{
.appVersion = "3414";
DisplayStrings = (
"/ampersand_ampersand.liga.ss03  & &&"
);
classes = (
{

glyphs = (
{
glyphname = A;
layers = (
{
anchors = (
{
name = bottom;
position = "{595, 0}";
},
{
name = ogonek;
position = "{1100, 0}";
},
{
name = top;
position = "{600, 1374}";
},
{
name = topleft;
position = "{406, 1374}";
}
);
layerId = "5A91C8AF-16C0-4BC2-89AA-7C90677D5BAF";
paths = (
{
closed = 1;
nodes = (
"504 0 LINE",
"570 0 LINE",
"342 687 LINE",
"257.5 687 LINE",
"30 0 LINE",
"90 0 LINE",
"150.5 183.5 LINE",
"443.5 183.5 LINE"
);
},
{
closed = 1;
nodes = (
"298 627.5 LINE",
"422.5 241.5 LINE",
"172 241.5 LINE"
);
}
);
vertWidth = 0;
width = 600;
},
{
anchors = (
{
name = bottom;
position = "{598, 0}";
},
{
name = ogonek;
position = "{1086, 0}";
},
{
name = top;
position = "{600, 1374}";
},
{
name = topleft;
position = "{361, 1374}";
}
);
layerId = "426AEE65-830A-4D9C-AD83-8E047A05F635";
paths = (
{
closed = 1;
nodes = (
"436.5 0 LINE",
"612 0 LINE",
"400 687 LINE",
"201 687 LINE",
"-11 0 LINE",
"160.5 0 LINE",
"197 147.5 LINE",
"400 147.5 LINE"
);
},
{
closed = 1;
nodes = (
"298 569.5 LINE",
"373 266.5 LINE",
"223 266.5 LINE"
);
}
);
vertWidth = 0;
width = 600;
}
);
note = "";
unicode = 0041;
},
{
glyphname = AE;
layers = (
{
anchors = (
{
name = bottom;
position = "{600, 0}";
},
{
name = top;
position = "{729, 1374}";
}
);
layerId = "5A91C8AF-16C0-4BC2-89AA-7C90677D5BAF";
paths = (
{
closed = 1;
nodes = (
"374.5 0 LINE",
"609 0 LINE",
"609 58.5 LINE",
"430.5 58.5 LINE",
"374 319.5 LINE",
"557.5 319.5 LINE",
"557.5 378 LINE",
"362.5 378 LINE",
"306.5 628.5 LINE",
"558 628.5 LINE",
"566.5 687 LINE",
"198 687 LINE",
"-12 0 LINE",
"56 0 LINE",
"112 182.5 LINE",
"334.5 182.5 LINE"
);
},
{
closed = 1;
nodes = (
"239 631 LINE",
"319 243.5 LINE",
"136 243.5 LINE"
);
}
);
vertWidth = 0;
width = 600;
},
{
anchors = (
{
name = bottom;
position = "{600, 0}";
},
{
name = top;
position = "{701, 1374}";
}
);
layerId = "426AEE65-830A-4D9C-AD83-8E047A05F635";
paths = (
{
closed = 1;
nodes = (
"338 0 LINE",
"603 0 LINE",
"603 111 LINE",
"454.5 111 LINE",
"419 292.5 LINE",
"556 292.5 LINE",
"556 403.5 LINE",
"399 403.5 LINE",
"366 576.5 LINE",
"548 576.5 LINE",
"565 687 LINE",
"162.5 687 LINE",
"-12 0 LINE",
"145 0 LINE",
"172.5 151 LINE",
"313.5 151 LINE"
);
},
{
closed = 1;
nodes = (
"245 577.5 LINE",
"296.5 262.5 LINE",
"191 262.5 LINE"
);
}
);
vertWidth = 0;
width = 600;
}
);
note = "";
unicode = 00C6;
},
{
glyphname = B;
layers = (
{
anchors = (
{
name = bottom;
position = "{600, 0}";
},
{
name = top;
position = "{600, 1374}";
}
);
layerId = "5A91C8AF-16C0-4BC2-89AA-7C90677D5BAF";
paths = (
{
closed = 1;
nodes = (
"461.5 79 OFFCURVE",
"370 57.5 OFFCURVE",
"301.5 57.5 CURVE SMOOTH",
"172 57.5 LINE",
"172 329 LINE",
"304.5 329 LINE SMOOTH",
"387.5 329 OFFCURVE",
"461.5 302 OFFCURVE",
"461.5 188.5 CURVE SMOOTH"
);
},
{
closed = 1;
nodes = (
"434 426.5 OFFCURVE",
"384 389.5 OFFCURVE",
"299.5 389.5 CURVE SMOOTH",
"172 389.5 LINE",
"172 631 LINE",
"290 631 LINE SMOOTH",
"376.5 631 OFFCURVE",
"434 599 OFFCURVE",
"434 513.5 CURVE SMOOTH"
);
},
{
closed = 1;
nodes = (
"530 312.5 OFFCURVE",
"448.5 350.5 OFFCURVE",
"372 364 CURVE",
"437 378 OFFCURVE",
"500 424.5 OFFCURVE",
"500 514.5 CURVE SMOOTH",
"500 649.5 OFFCURVE",
"377 687 OFFCURVE",
"263 687 CURVE SMOOTH",
"108.5 687 LINE",
"108.5 0 LINE",
"280 0 LINE SMOOTH",
"399.5 0 OFFCURVE",
"530 47.5 OFFCURVE",
"530 194.5 CURVE SMOOTH"
);
}
);
vertWidth = 0;
width = 600;
},
{
anchors = (
{
name = bottom;
position = "{600, 0}";
},
{
name = top;
position = "{600, 1374}";
}
);
layerId = "426AEE65-830A-4D9C-AD83-8E047A05F635";
paths = (
{
closed = 1;
nodes = (
"402 134 OFFCURVE",
"345 119.5 OFFCURVE",
"280.5 119.5 CURVE SMOOTH",
"220 119.5 LINE",
"220 303.5 LINE",
"287.5 303.5 LINE SMOOTH",
"356.5 303.5 OFFCURVE",
"402 279.5 OFFCURVE",
"402 208 CURVE SMOOTH"
);
},
{
closed = 1;
nodes = (
"376 437 OFFCURVE",
"346 413.5 OFFCURVE",
"275.5 413.5 CURVE SMOOTH",
"220 413.5 LINE",
"220 571 LINE",
"270.5 571 LINE SMOOTH",
"342 571 OFFCURVE",
"376 548.5 OFFCURVE",
"376 495 CURVE SMOOTH"
);
},
{
closed = 1;
nodes = (
"571 311 OFFCURVE",
"488.5 352 OFFCURVE",
"414 364 CURVE",
"482.5 381 OFFCURVE",
"541 430 OFFCURVE",
"541 511.5 CURVE SMOOTH",
"541 645.5 OFFCURVE",
"418 687 OFFCURVE",
"275.5 687 CURVE SMOOTH",
"56 687 LINE",
"56 0 LINE",
"286 0 LINE SMOOTH",
"436 0 OFFCURVE",
"571 42.5 OFFCURVE",
"571 201.5 CURVE SMOOTH"
);
}
);
vertWidth = 0;
width = 600;
}
);
note = "";
unicode = 0042;
},
{
glyphname = C;
layers = (
{
anchors = (
{
name = bottom;
position = "{698, 0}";
},
{
name = top;
position = "{734, 1374}";
}
);
layerId = "5A91C8AF-16C0-4BC2-89AA-7C90677D5BAF";
paths = (
{
closed = 1;
nodes = (
"205.5 696.5 OFFCURVE",
"72 575.5 OFFCURVE",
"72 343.5 CURVE SMOOTH",
"72 114.5 OFFCURVE",
"201.5 -10 OFFCURVE",
"363 -10 CURVE SMOOTH",
"458.5 -10 OFFCURVE",
"522 22 OFFCURVE",
"561 59.5 CURVE",
"525 105.5 LINE",
"489 75.5 OFFCURVE",
"441 49 OFFCURVE",
"362 49 CURVE SMOOTH",
"238 49 OFFCURVE",
"138.5 127 OFFCURVE",
"138.5 343.5 CURVE SMOOTH",
"138.5 566 OFFCURVE",
"244.5 638.5 OFFCURVE",
"365 638.5 CURVE SMOOTH",
"417.5 638.5 OFFCURVE",
"466.5 625.5 OFFCURVE",
"511.5 587.5 CURVE",
"550.5 632 LINE",
"497 674.5 OFFCURVE",
"445 696.5 OFFCURVE",
"358 696.5 CURVE SMOOTH"
);
}
);
vertWidth = 0;
width = 600;
},
{
anchors = (
{
name = bottom;
position = "{704, 0}";
},
{
name = top;
position = "{722, 1374}";
}
);
layerId = "426AEE65-830A-4D9C-AD83-8E047A05F635";
paths = (
{
closed = 1;
nodes = (
"174.5 704.5 OFFCURVE",
"34 575 OFFCURVE",
"34 345 CURVE SMOOTH",
"34 109 OFFCURVE",
"167.5 -17 OFFCURVE",
"356 -17 CURVE SMOOTH",
"463 -17 OFFCURVE",
"537 24.5 OFFCURVE",
"589.5 76 CURVE",
"515 171 LINE",
"476 140 OFFCURVE",
"434 109.5 OFFCURVE",
"365 109.5 CURVE SMOOTH",
"270.5 109.5 OFFCURVE",
"203.5 180.5 OFFCURVE",
"203.5 345 CURVE SMOOTH",
"203.5 512.5 OFFCURVE",
"274.5 583 OFFCURVE",
"362 583 CURVE SMOOTH",
"415.5 583 OFFCURVE",
"461.5 563.5 OFFCURVE",
"500 532.5 CURVE",
"580.5 629.5 LINE",
"523 677 OFFCURVE",
"457.5 704.5 OFFCURVE",
"358 704.5 CURVE SMOOTH"
);
}
);
vertWidth = 0;
width = 600;
}
);
note = "";
unicode = 0043;
},
{
glyphname = D;
layers = (
{
anchors = (
{
name = bottom;
position = "{600, 0}";
},
{
name = center;
position = "{600, 688}";
},
{
name = top;
position = "{565, 1374}";
}
);
layerId = "5A91C8AF-16C0-4BC2-89AA-7C90677D5BAF";
paths = (
{
closed = 1;
nodes = (
"476.5 105.5 OFFCURVE",
"353.5 55 OFFCURVE",
"252.5 55 CURVE SMOOTH",
"156.5 55 LINE",
"156.5 630.5 LINE",
"251 630.5 LINE SMOOTH",
"348 630.5 OFFCURVE",
"476.5 602.5 OFFCURVE",
"476.5 347 CURVE SMOOTH"
);
},
{
closed = 1;
nodes = (
"546 633 OFFCURVE",
"387.5 687 OFFCURVE",
"231.5 687 CURVE SMOOTH",
"93 687 LINE",
"93 0 LINE",
"242 0 LINE SMOOTH",
"376 0 OFFCURVE",
"546 56.5 OFFCURVE",
"546 347 CURVE SMOOTH"
);
}
);
vertWidth = 0;
width = 600;
},
{
anchors = (
{
name = bottom;
position = "{600, 0}";
},
{
name = center;
position = "{600, 688}";
},
{
name = top;
position = "{574, 1374}";
}
);
layerId = "426AEE65-830A-4D9C-AD83-8E047A05F635";
paths = (
{
closed = 1;
nodes = (
"404.5 167 OFFCURVE",
"342 118.5 OFFCURVE",
"251 118.5 CURVE SMOOTH",
"216 118.5 LINE",
"216 568 LINE",
"251 568 LINE SMOOTH",
"338 568 OFFCURVE",
"404.5 530.5 OFFCURVE",
"404.5 347 CURVE SMOOTH"
);
},
{
closed = 1;
nodes = (
"574.5 630.5 OFFCURVE",
"404.5 687 OFFCURVE",
"227 687 CURVE SMOOTH",
"52 687 LINE",
"52 0 LINE",
"239 0 LINE SMOOTH",
"411.5 0 OFFCURVE",
"574.5 67.5 OFFCURVE",
"574.5 347 CURVE SMOOTH"
);
}
);
vertWidth = 0;
width = 600;
}
);
note = "";
unicode = 0044;
},
{
glyphname = Eth;
layers = (
{
anchors = (
{
name = bottom;
position = "{617, 0}";
},
{
name = center;
position = "{617, 688}";
},
{
name = top;
position = "{582, 1374}";
}
);
components = (
{
alignment = -1;
name = D;
transform = "{0.5, 0, 0, 0.5, 8.5, 0}";
}
);
layerId = "5A91C8AF-16C0-4BC2-89AA-7C90677D5BAF";
paths = (
{
closed = 1;
nodes = (
"23.5 381.5 LINE",
"23.5 324.5 LINE",
"334.5 324.5 LINE",
"334.5 381.5 LINE"
);
}
);
vertWidth = 0;
width = 600;
},
{
anchors = (
{
name = bottom;
position = "{626, 0}";
},
{
name = center;
position = "{626, 688}";
},
{
name = top;
position = "{600, 1374}";
}
);
components = (
{
alignment = -1;
name = D;
transform = "{0.5, 0, 0, 0.5, 13, 0}";
}
);
layerId = "426AEE65-830A-4D9C-AD83-8E047A05F635";
paths = (
{
closed = 1;
nodes = (
"9.5 399.5 LINE",
"9.5 300.5 LINE",
"348.5 300.5 LINE",
"348.5 399.5 LINE"
);
}
);
vertWidth = 0;
width = 600;
}
);
note = "";
unicode = 00D0;
},
{
glyphname = E;
layers = (
{
anchors = (
{
name = bottom;
position = "{654, 0}";
},
{
name = ogonek;
position = "{957, 0}";
},
{
name = top;
position = "{643, 1374}";
},
{
name = topleft;
position = "{250, 1374}";
}
);
layerId = "5A91C8AF-16C0-4BC2-89AA-7C90677D5BAF";
paths = (
{
closed = 1;
nodes = (
"499.5 630 LINE",
"508 687 LINE",
"135 687 LINE",
"135 0 LINE",
"519.5 0 LINE",
"519.5 55.5 LINE",
"199 55.5 LINE",
"199 320 LINE",
"459 320 LINE",
"459 378.5 LINE",
"199 378.5 LINE",
"199 630 LINE"
);
}
);
vertWidth = 0;
width = 600;
},
{
anchors = (
{
name = bottom;
position = "{640, 0}";
},
{
name = ogonek;
position = "{954, 0}";
},
{
name = top;
position = "{640, 1374}";
},
{
name = topleft;
position = "{166, 1374}";
}
);
layerId = "426AEE65-830A-4D9C-AD83-8E047A05F635";
paths = (
{
closed = 1;
nodes = (
"529.5 570 LINE",
"546 687 LINE",
"93 687 LINE",
"93 0 LINE",
"546.5 0 LINE",
"546.5 117.5 LINE",
"257 117.5 LINE",
"257 291.5 LINE",
"497 291.5 LINE",
"497 406.5 LINE",
"257 406.5 LINE",
"257 570 LINE"
);
}
);
vertWidth = 0;
width = 600;
}
);
note = "";
unicode = 0045;
},
{
glyphname = F;
layers = (
{
anchors = (
{
name = bottom;
position = "{600, 0}";
},
{
name = top;
position = "{600, 1374}";
}
);
layerId = "5A91C8AF-16C0-4BC2-89AA-7C90677D5BAF";
paths = (
{
closed = 1;
nodes = (
"529.5 630 LINE",
"538 687 LINE",
"147.5 687 LINE",
"147.5 0 LINE",
"210.5 0 LINE",
"210.5 316 LINE",
"488.5 316 LINE",
"488.5 371.5 LINE",
"210.5 371.5 LINE",
"210.5 630 LINE"
);
}
);
vertWidth = 0;
width = 600;
},
{
anchors = (
{
name = bottom;
position = "{600, 0}";
},
{
name = top;
position = "{600, 1374}";
}
);
layerId = "426AEE65-830A-4D9C-AD83-8E047A05F635";
paths = (
{
closed = 1;
nodes = (
"546.5 570 LINE",
"563.5 687 LINE",
"108 687 LINE",
"108 0 LINE",
"272.5 0 LINE",
"272.5 272 LINE",
"515.5 272 LINE",
"515.5 389.5 LINE",
"272.5 389.5 LINE",
"272.5 570 LINE"
);
}
);
vertWidth = 0;
width = 600;
}
);
note = "";
unicode = 0046;
},
{
glyphname = G;
layers = (
{
anchors = (
{
name = bottom;
position = "{663, 0}";
},
{
name = top;
position = "{660, 1374}";
}
);
layerId = "5A91C8AF-16C0-4BC2-89AA-7C90677D5BAF";
paths = (
{
closed = 1;
nodes = (
"408.5 -10 OFFCURVE",
"470 16 OFFCURVE",
"530 47 CURVE",
"530 370.5 LINE",
"305.5 370.5 LINE",
"314.5 311 LINE",
"464 311 LINE",
"464 86 LINE",
"419.5 61.5 OFFCURVE",
"372 49 OFFCURVE",
"320 49 CURVE SMOOTH",
"191.5 49 OFFCURVE",
"122.5 138.5 OFFCURVE",
"122.5 344 CURVE SMOOTH",
"122.5 567.5 OFFCURVE",
"227 637.5 OFFCURVE",
"328.5 637.5 CURVE SMOOTH",
"387.5 637.5 OFFCURVE",
"435.5 619.5 OFFCURVE",
"477.5 579.5 CURVE",
"520 623.5 LINE",
"466 673 OFFCURVE",
"417 696.5 OFFCURVE",
"330.5 696.5 CURVE SMOOTH",
"191.5 696.5 OFFCURVE",
"52.5 581 OFFCURVE",
"52.5 343.5 CURVE SMOOTH",
"52.5 105.5 OFFCURVE",
"157 -10 OFFCURVE",
"310 -10 CURVE SMOOTH"
);
}
);
vertWidth = 0;
width = 600;
},
{
anchors = (
{
name = bottom;
position = "{654, 0}";
},
{
name = top;
position = "{660, 1374}";
}
);
layerId = "426AEE65-830A-4D9C-AD83-8E047A05F635";
paths = (
{
closed = 1;
nodes = (
"419.5 -17 OFFCURVE",
"498 9.5 OFFCURVE",
"568 52.5 CURVE",
"568 394.5 LINE",
"310 394.5 LINE",
"326 279.5 LINE",
"413 279.5 LINE",
"413 123.5 LINE",
"389 111 OFFCURVE",
"359.5 103 OFFCURVE",
"327 103 CURVE SMOOTH",
"235 103 OFFCURVE",
"191.5 164.5 OFFCURVE",
"191.5 344 CURVE SMOOTH",
"191.5 515.5 OFFCURVE",
"259.5 585 OFFCURVE",
"352.5 585 CURVE SMOOTH",
"401.5 585 OFFCURVE",
"436.5 567.5 OFFCURVE",
"479 530.5 CURVE",
"565 619.5 LINE",
"510.5 670.5 OFFCURVE",
"445 704.5 OFFCURVE",
"344.5 704.5 CURVE SMOOTH",
"164.5 704.5 OFFCURVE",
"22.5 579 OFFCURVE",
"22.5 345 CURVE SMOOTH",
"22.5 109 OFFCURVE",
"128.5 -17 OFFCURVE",
"325.5 -17 CURVE SMOOTH"
);
}
);
vertWidth = 0;
width = 600;
}
);
note = "";
unicode = 0047;
},
{
glyphname = H;
layers = (
{
anchors = (
{
name = bottom;
position = "{600, 0}";
},
{
name = bottomright;
position = "{1034, 0}";
},
{
name = center;
position = "{600, 688}";
},
{
name = top;
position = "{600, 1374}";
},
{
name = topleft;
position = "{166, 1374}";
}
);
layerId = "5A91C8AF-16C0-4BC2-89AA-7C90677D5BAF";
paths = (
{
closed = 1;
nodes = (
"507 0 LINE",
"507 687 LINE",
"443.5 687 LINE",
"443.5 389 LINE",
"156.5 389 LINE",
"156.5 687 LINE",
"93 687 LINE",
"93 0 LINE",
"156.5 0 LINE",
"156.5 337 LINE",
"443.5 337 LINE",
"443.5 0 LINE"
);
}
);
vertWidth = 0;
width = 600;
},
{
anchors = (
{
name = bottom;
position = "{600, 0}";
},
{
name = bottomright;
position = "{1116, 0}";
},
{
name = center;
position = "{600, 688}";
},
{
name = top;
position = "{600, 1374}";
},
{
name = topleft;
position = "{84, 1374}";
}
);
layerId = "426AEE65-830A-4D9C-AD83-8E047A05F635";
paths = (
{
closed = 1;
nodes = (
"548 0 LINE",
"548 687 LINE",
"384 687 LINE",
"384 424 LINE",
"216 424 LINE",
"216 687 LINE",
"52 687 LINE",
"52 0 LINE",
"216 0 LINE",
"216 289 LINE",
"384 289 LINE",
"384 0 LINE"
);
}
);
vertWidth = 0;
width = 600;
}
);
note = "";
unicode = 0048;
},
{
glyphname = Hbar;
layers = (
{
layerId = "5A91C8AF-16C0-4BC2-89AA-7C90677D5BAF";
paths = (
{
closed = 1;
nodes = (
"445.5 687 LINE",
"445.5 390.5 LINE",
"154.5 390.5 LINE",
"154.5 687 LINE",
"90.5 687 LINE",
"90.5 0 LINE",
"154.5 0 LINE",
"154.5 335 LINE",
"445.5 335 LINE",
"445.5 0 LINE",
"509.5 0 LINE",
"509.5 687 LINE"
);
},
{
closed = 1;
nodes = (
"2 570.5 LINE",
"2 511.5 LINE",
"598 511.5 LINE",
"598 570.5 LINE"
);
}
);
vertWidth = 0;
width = 600;
},
{
layerId = "426AEE65-830A-4D9C-AD83-8E047A05F635";
paths = (
{
closed = 1;
nodes = (
"379.5 687 LINE",
"379.5 421.5 LINE",
"220.5 421.5 LINE",
"220.5 687 LINE",
"56.5 687 LINE",
"56.5 0 LINE",
"220.5 0 LINE",
"220.5 294 LINE",
"379.5 294 LINE",
"379.5 0 LINE",
"543.5 0 LINE",
"543.5 687 LINE"
);
},
{
closed = 1;
nodes = (
"2 586.5 LINE",
"2 495.5 LINE",
"598 495.5 LINE",
"598 586.5 LINE"
);
}
);
vertWidth = 0;
width = 600;
}
);
note = "";
unicode = 0126;
},
{
glyphname = I;
layers = (
{
anchors = (
{
name = bottom;
position = "{600, 0}";
},
{
name = ogonek;
position = "{685, 0}";
},
{
name = top;
position = "{600, 1374}";
},
{
name = topleft;
position = "{203, 1374}";
}
);
layerId = "5A91C8AF-16C0-4BC2-89AA-7C90677D5BAF";
paths = (
{
closed = 1;
nodes = (
"111.5 687 LINE",
"111.5 632.5 LINE",
"267.5 632.5 LINE",
"267.5 54.5 LINE",
"111.5 54.5 LINE",
"111.5 0 LINE",
"488.5 0 LINE",
"488.5 54.5 LINE",
"332.5 54.5 LINE",
"332.5 632.5 LINE",
"488.5 632.5 LINE",
"488.5 687 LINE"
);
}
);
vertWidth = 0;
width = 600;
},
{
anchors = (
{
name = bottom;
position = "{600, 0}";
},
{
name = ogonek;
position = "{784, 0}";
},
{
name = top;
position = "{600, 1374}";
},
{
name = topleft;
position = "{130, 1374}";
}
);
layerId = "426AEE65-830A-4D9C-AD83-8E047A05F635";
paths = (
{
closed = 1;
nodes = (
"75 687 LINE",
"75 567 LINE",
"218 567 LINE",
"218 120.5 LINE",
"75 120.5 LINE",
"75 0 LINE",
"525 0 LINE",
"525 120.5 LINE",
"382 120.5 LINE",
"382 567 LINE",
"525 567 LINE",
"525 687 LINE"
);
}
);
vertWidth = 0;
width = 600;
}
);
note = "";
unicode = 0049;
},
{
glyphname = IJ;
layers = (
{
layerId = "5A91C8AF-16C0-4BC2-89AA-7C90677D5BAF";
paths = (
{
closed = 1;
nodes = (
"206 -122 LINE",
"473 -103.5 OFFCURVE",
"525.5 47.5 OFFCURVE",
"525.5 193 CURVE SMOOTH",
"525.5 687 LINE",
"12.5 687 LINE",
"12.5 624 LINE",
"120.5 624 LINE",
"120.5 62.5 LINE",
"12.5 62.5 LINE",
"12.5 0 LINE",
"279 0 LINE",
"279 62.5 LINE",
"191 62.5 LINE",
"191 624 LINE",
"459 624 LINE",
"459 202 LINE SMOOTH",
"459 49 OFFCURVE",
"407 -54.5 OFFCURVE",
"198.5 -70.5 CURVE"
);
}
);
vertWidth = 0;
width = 600;
},
{
layerId = "426AEE65-830A-4D9C-AD83-8E047A05F635";
paths = (
{
closed = 1;
nodes = (
"200 -182 LINE",
"463 -139.5 OFFCURVE",
"556.5 -18 OFFCURVE",
"556.5 168.5 CURVE SMOOTH",
"556.5 687 LINE",
"8 687 LINE",
"8 586 LINE",
"81 586 LINE",
"81 101.5 LINE",
"8 101.5 LINE",
"8 0 LINE",
"285 0 LINE",
"285 101.5 LINE",
"232 101.5 LINE",
"232 586 LINE",
"398.5 586 LINE",
"398.5 162 LINE SMOOTH",
"398.5 29 OFFCURVE",
"365 -40 OFFCURVE",
"181.5 -71.5 CURVE"
);
}
);
vertWidth = 0;
width = 600;
}
);
note = "";
unicode = 0132;
},
{
glyphname = J;
layers = (
{
anchors = (
{
name = bottom;
position = "{600, 0}";
},
{
name = top;
position = "{698, 1374}";
}
);
layerId = "5A91C8AF-16C0-4BC2-89AA-7C90677D5BAF";
paths = (
{
closed = 1;
nodes = (
"222.5 687 LINE",
"222.5 631 LINE",
"424 631 LINE",
"424 229.5 LINE SMOOTH",
"424 119 OFFCURVE",
"370 47.5 OFFCURVE",
"267 47.5 CURVE SMOOTH",
"229.5 47.5 OFFCURVE",
"177 56.5 OFFCURVE",
"114 96 CURVE",
"82.5 51.5 LINE",
"135.5 10.5 OFFCURVE",
"204 -10.5 OFFCURVE",
"265.5 -10.5 CURVE SMOOTH",
"448 -10.5 OFFCURVE",
"487.5 121.5 OFFCURVE",
"487.5 222.5 CURVE SMOOTH",
"487.5 687 LINE"
);
}
);
vertWidth = 0;
width = 600;
},
{
anchors = (
{
name = bottom;
position = "{600, 0}";
},
{
name = top;
position = "{704, 1374}";
}
);
layerId = "426AEE65-830A-4D9C-AD83-8E047A05F635";
paths = (
{
closed = 1;
nodes = (
"150.5 687 LINE",
"150.5 567 LINE",
"363.5 567 LINE",
"363.5 245.5 LINE SMOOTH",
"363.5 151 OFFCURVE",
"309.5 107 OFFCURVE",
"238.5 107 CURVE SMOOTH",
"185.5 107 OFFCURVE",
"148.5 118.5 OFFCURVE",
"101.5 150.5 CURVE",
"39 49.5 LINE",
"99.5 8.5 OFFCURVE",
"159.5 -15 OFFCURVE",
"248.5 -15 CURVE SMOOTH",
"425.5 -15 OFFCURVE",
"527 86.5 OFFCURVE",
"527 247.5 CURVE SMOOTH",
"527 687 LINE"
);
}
);
vertWidth = 0;
width = 600;
}
);
note = "";
unicode = 004A;
},
{
glyphname = K;
layers = (
{
anchors = (
{
name = bottom;
position = "{658, 0}";
},
{
name = top;
position = "{669, 1374}";
}
);
layerId = "5A91C8AF-16C0-4BC2-89AA-7C90677D5BAF";
paths = (
{
closed = 1;
nodes = (
"182 687 LINE",
"118.5 687 LINE",
"118.5 0 LINE",
"182 0 LINE"
);
},
{
closed = 1;
nodes = (
"496.5 0 LINE",
"580 0 LINE",
"270.5 370.5 LINE",
"561 687 LINE",
"482.5 687 LINE",
"187 367 LINE"
);
}
);
vertWidth = 0;
width = 600;
},
{
anchors = (
{
name = bottom;
position = "{601, 0}";
},
{
name = top;
position = "{601, 1374}";
}
);
layerId = "426AEE65-830A-4D9C-AD83-8E047A05F635";
paths = (
{
closed = 1;
nodes = (
"223 687 LINE",
"59 687 LINE",
"59 0 LINE",
"223 0 LINE"
);
},
{
closed = 1;
nodes = (
"418.5 0 LINE",
"608.5 0 LINE",
"393.5 379 LINE",
"589.5 687 LINE",
"417.5 687 LINE",
"228 367 LINE"
);
}
);
vertWidth = 0;
width = 600;
}
);
note = "";
unicode = 004B;
},
{
glyphname = L;
layers = (
{
anchors = (
{
name = bottom;
position = "{671, 0}";
},
{
name = center;
position = "{946, 756}";
},
{
name = top;
position = "{362, 1374}";
},
{
name = topright;
position = "{524, 1374}";
}
);
layerId = "5A91C8AF-16C0-4BC2-89AA-7C90677D5BAF";
paths = (
{
closed = 1;
nodes = (
"522.5 0 LINE",
"530.5 62 LINE",
"212 62 LINE",
"212 687 LINE",
"148 687 LINE",
"148 0 LINE"
);
}
);
vertWidth = 0;
width = 600;
},
{
anchors = (
{
name = bottom;
position = "{635, 0}";
},
{
name = center;
position = "{932, 764}";
},
{
name = top;
position = "{350, 1374}";
},
{
name = topright;
position = "{614, 1374}";
}
);
layerId = "426AEE65-830A-4D9C-AD83-8E047A05F635";
paths = (
{
closed = 1;
nodes = (
"540.5 0 LINE",
"557.5 129.5 LINE",
"257 129.5 LINE",
"257 687 LINE",
"93 687 LINE",
"93 0 LINE"
);
}
);
vertWidth = 0;
width = 600;
}
);
note = "";
unicode = 004C;
},
{
glyphname = Lslash;
layers = (
{
anchors = (
{
name = bottom;
position = "{658, 0}";
},
{
name = center;
position = "{933, 756}";
},
{
name = top;
position = "{349, 1374}";
},
{
name = topright;
position = "{511, 1374}";
}
);
components = (
{
alignment = -1;
name = L;
transform = "{0.5, 0, 0, 0.5, -6.5, 0}";
}
);
layerId = "5A91C8AF-16C0-4BC2-89AA-7C90677D5BAF";
paths = (
{
closed = 1;
nodes = (
"413.5 448 LINE",
"381.5 495 LINE",
"50 289.5 LINE",
"80.5 242 LINE"
);
}
);
vertWidth = 0;
width = 600;
},
{
anchors = (
{
name = bottom;
position = "{664, 0}";
},
{
name = center;
position = "{961, 764}";
},
{
name = top;
position = "{379, 1374}";
},
{
name = topright;
position = "{643, 1374}";
}
);
components = (
{
alignment = -1;
name = L;
transform = "{0.5, 0, 0, 0.5, 14.5, 0}";
}
);
layerId = "426AEE65-830A-4D9C-AD83-8E047A05F635";
paths = (
{
closed = 1;
nodes = (
"450 438 LINE",
"395.5 523.5 LINE",
"9 285.5 LINE",
"62.5 198.5 LINE"
);
}
);
vertWidth = 0;
width = 600;
}
);
note = "";
unicode = 0141;
},
{
glyphname = M;
layers = (
{
anchors = (
{
name = bottom;
position = "{600, 0}";
},
{
name = bottomright;
position = "{1090, 0}";
},
{
name = top;
position = "{600, 1374}";
}
);
layerId = "5A91C8AF-16C0-4BC2-89AA-7C90677D5BAF";
paths = (
{
closed = 1;
nodes = (
"418.5 687 LINE",
"302 208.5 LINE",
"180 687 LINE",
"73.5 687 LINE",
"34.5 0 LINE",
"98.5 0 LINE",
"121 380 LINE SMOOTH",
"125.5 459 OFFCURVE",
"124.5 601.5 OFFCURVE",
"125 625.5 CURVE",
"261.5 125 LINE",
"337.5 125 LINE",
"465 625.5 LINE",
"466 601.5 OFFCURVE",
"468.5 470 OFFCURVE",
"474.5 378.5 CURVE SMOOTH",
"500 0 LINE",
"565.5 0 LINE",
"526.5 687 LINE"
);
}
);
vertWidth = 0;
width = 600;
},
{
anchors = (
{
name = bottom;
position = "{600, 0}";
},
{
name = bottomright;
position = "{1231, 0}";
},
{
name = top;
position = "{600, 1374}";
}
);
layerId = "426AEE65-830A-4D9C-AD83-8E047A05F635";
paths = (
{
closed = 1;
nodes = (
"375 687 LINE",
"302 243.5 LINE",
"225 687 LINE",
"56.5 687 LINE",
"17.5 0 LINE",
"158 0 LINE",
"163 290.5 LINE SMOOTH",
"165 400.5 OFFCURVE",
"161.5 460 OFFCURVE",
"153.5 547.5 CURVE",
"237.5 117 LINE",
"361.5 117 LINE",
"439.5 547.5 LINE",
"432.5 456.5 OFFCURVE",
"428 402.5 OFFCURVE",
"431 292.5 CURVE SMOOTH",
"439.5 0 LINE",
"582.5 0 LINE",
"543.5 687 LINE"
);
}
);
vertWidth = 0;
width = 600;
}
);
note = "";
unicode = 004D;
},
{
glyphname = N;
layers = (
{
anchors = (
{
name = bottom;
position = "{600, 0}";
},
{
name = top;
position = "{591, 1374}";
}
);
layerId = "5A91C8AF-16C0-4BC2-89AA-7C90677D5BAF";
paths = (
{
closed = 1;
nodes = (
"507 0 LINE",
"507 687 LINE",
"444 687 LINE",
"444 319 LINE SMOOTH",
"444 195.5 OFFCURVE",
"453.5 81.5 OFFCURVE",
"451.5 63.5 CURVE",
"184.5 687 LINE",
"93 687 LINE",
"93 0 LINE",
"156 0 LINE",
"156 370 LINE SMOOTH",
"156 472 OFFCURVE",
"147 598.5 OFFCURVE",
"148.5 619.5 CURVE",
"408.5 0 LINE"
);
}
);
vertWidth = 0;
width = 600;
},
{
anchors = (
{
name = bottom;
position = "{600, 0}";
},
{
name = top;
position = "{619, 1374}";
}
);
layerId = "426AEE65-830A-4D9C-AD83-8E047A05F635";
paths = (
{
closed = 1;
nodes = (
"548 0 LINE",
"548 687 LINE",
"408.5 687 LINE",
"408.5 425.5 LINE SMOOTH",
"408.5 302 OFFCURVE",
"422.5 201.5 OFFCURVE",
"433.5 138.5 CURVE",
"256.5 687 LINE",
"52 687 LINE",
"52 0 LINE",
"191.5 0 LINE",
"191.5 257.5 LINE SMOOTH",
"191.5 378.5 OFFCURVE",
"175.5 492.5 OFFCURVE",
"166.5 552 CURVE",
"349 0 LINE"
);
}
);
vertWidth = 0;
width = 600;
}
);
note = "";
unicode = 004E;
},
{
glyphname = O;
layers = (
{
anchors = (
{
name = bottom;
position = "{600, 0}";
},
{
name = top;
position = "{600, 1374}";
},
{
name = topleft;
position = "{217, 1374}";
}
);
layerId = "5A91C8AF-16C0-4BC2-89AA-7C90677D5BAF";
paths = (
{
closed = 1;
nodes = (
"546.5 552 OFFCURVE",
"463.5 696.5 OFFCURVE",
"300 696.5 CURVE SMOOTH",
"136.5 696.5 OFFCURVE",
"53.5 547 OFFCURVE",
"53.5 341 CURVE SMOOTH",
"53.5 132 OFFCURVE",
"136.5 -10 OFFCURVE",
"300 -10 CURVE SMOOTH",
"463.5 -10 OFFCURVE",
"546.5 137 OFFCURVE",
"546.5 342.5 CURVE SMOOTH"
);
},
{
closed = 1;
nodes = (
"478.5 154.5 OFFCURVE",
"426.5 49 OFFCURVE",
"300 49 CURVE SMOOTH",
"176.5 49 OFFCURVE",
"121.5 154 OFFCURVE",
"121.5 341 CURVE SMOOTH",
"121.5 528.5 OFFCURVE",
"172.5 637.5 OFFCURVE",
"300 637.5 CURVE SMOOTH",
"427.5 637.5 OFFCURVE",
"478.5 530 OFFCURVE",
"478.5 342.5 CURVE SMOOTH"
);
}
);
vertWidth = 0;
width = 600;
},
{
anchors = (
{
name = bottom;
position = "{600, 0}";
},
{
name = top;
position = "{600, 1374}";
},
{
name = topleft;
position = "{189, 1374}";
}
);
layerId = "426AEE65-830A-4D9C-AD83-8E047A05F635";
paths = (
{
closed = 1;
nodes = (
"577.5 566.5 OFFCURVE",
"481.5 704.5 OFFCURVE",
"300 704.5 CURVE SMOOTH",
"118.5 704.5 OFFCURVE",
"22.5 561.5 OFFCURVE",
"22.5 344 CURVE SMOOTH",
"22.5 121 OFFCURVE",
"118.5 -17 OFFCURVE",
"300 -17 CURVE SMOOTH",
"481.5 -17 OFFCURVE",
"577.5 126 OFFCURVE",
"577.5 344 CURVE SMOOTH"
);
},
{
closed = 1;
nodes = (
"409.5 177.5 OFFCURVE",
"380 103 OFFCURVE",
"300 103 CURVE SMOOTH",
"223 103 OFFCURVE",
"190.5 175.5 OFFCURVE",
"190.5 344 CURVE SMOOTH",
"190.5 512.5 OFFCURVE",
"222 585 OFFCURVE",
"300 585 CURVE SMOOTH",
"378 585 OFFCURVE",
"409.5 512.5 OFFCURVE",
"409.5 344 CURVE SMOOTH"
);
}
);
vertWidth = 0;
width = 600;
}
);
note = "";
unicode = 004F;
},
{
glyphname = Oslash;
layers = (
{
anchors = (
{
name = bottom;
position = "{600, 0}";
},
{
name = top;
position = "{600, 1374}";
}
);
layerId = "5A91C8AF-16C0-4BC2-89AA-7C90677D5BAF";
paths = (
{
closed = 1;
nodes = (
"136.5 696.5 OFFCURVE",
"53.5 547 OFFCURVE",
"53.5 341 CURVE SMOOTH",
"53.5 132 OFFCURVE",
"135 -10 OFFCURVE",
"300 -10 CURVE SMOOTH",
"463.5 -10 OFFCURVE",
"546.5 137 OFFCURVE",
"546.5 342.5 CURVE SMOOTH",
"546.5 552 OFFCURVE",
"465 696.5 OFFCURVE",
"300 696.5 CURVE SMOOTH"
);
},
{
closed = 1;
nodes = (
"368.5 687 LINE",
"356 638.5 LINE",
"189.5 60 LINE",
"174 27 LINE",
"135.5 -94.5 LINE",
"200 -110.5 LINE",
"235.5 5.5 LINE",
"239.5 36.5 LINE",
"411 631.5 LINE",
"426.5 658.5 LINE",
"466 787.5 LINE",
"401.5 803 LINE"
);
},
{
closed = 1;
nodes = (
"425 636 OFFCURVE",
"476 557.5 OFFCURVE",
"476 342.5 CURVE SMOOTH",
"476 156 OFFCURVE",
"425 50.5 OFFCURVE",
"300 50.5 CURVE SMOOTH",
"179 50.5 OFFCURVE",
"124 126.5 OFFCURVE",
"124 341 CURVE SMOOTH",
"124 527 OFFCURVE",
"174.5 636 OFFCURVE",
"300 636 CURVE SMOOTH"
);
}
);
vertWidth = 0;
width = 600;
},
{
anchors = (
{
name = bottom;
position = "{600, 0}";
},
{
name = top;
position = "{600, 1374}";
}
);
layerId = "426AEE65-830A-4D9C-AD83-8E047A05F635";
paths = (
{
closed = 1;
nodes = (
"118.5 704.5 OFFCURVE",
"22.5 561.5 OFFCURVE",
"22.5 344 CURVE SMOOTH",
"22.5 121 OFFCURVE",
"128 -17 OFFCURVE",
"300 -17 CURVE SMOOTH",
"481.5 -17 OFFCURVE",
"577.5 126 OFFCURVE",
"577.5 344 CURVE SMOOTH",
"577.5 566.5 OFFCURVE",
"472 704.5 OFFCURVE",
"300 704.5 CURVE SMOOTH"
);
},
{
closed = 1;
nodes = (
"347.5 687 LINE",
"340.5 612 LINE",
"206.5 162 LINE",
"151.5 62.5 LINE",
"108.5 -75.5 LINE",
"219.5 -108 LINE",
"252.5 4 LINE",
"269.5 101.5 LINE",
"398.5 538 LINE",
"453.5 644.5 LINE",
"491.5 763.5 LINE",
"380.5 796 LINE"
);
},
{
closed = 1;
nodes = (
"384 588.5 OFFCURVE",
"415.5 516 OFFCURVE",
"415.5 344 CURVE SMOOTH",
"415.5 174.5 OFFCURVE",
"384 100 OFFCURVE",
"300 100 CURVE SMOOTH",
"217 100 OFFCURVE",
"184.5 172.5 OFFCURVE",
"184.5 344 CURVE SMOOTH",
"184.5 515.5 OFFCURVE",
"218 588.5 OFFCURVE",
"300 588.5 CURVE SMOOTH"
);
}
);
vertWidth = 0;
width = 600;
}
);
note = "";
unicode = 00D8;
},
{
glyphname = OE;
layers = (
{
anchors = (
{
name = bottom;
position = "{600, 0}";
},
{
name = top;
position = "{600, 1374}";
}
);
layerId = "5A91C8AF-16C0-4BC2-89AA-7C90677D5BAF";
paths = (
{
closed = 1;
nodes = (
"69 696.5 OFFCURVE",
"-4.5 572.5 OFFCURVE",
"-4.5 341 CURVE SMOOTH",
"-4.5 106.5 OFFCURVE",
"67.5 -10 OFFCURVE",
"207.5 -10 CURVE SMOOTH",
"229 -10 OFFCURVE",
"249 -6 OFFCURVE",
"269.5 0 CURVE",
"623.5 0 LINE",
"623.5 58.5 LINE",
"338 58.5 LINE",
"383.5 106.5 OFFCURVE",
"411 189 OFFCURVE",
"413.5 319.5 CURVE",
"576.5 319.5 LINE",
"576.5 378 LINE",
"414 378 LINE",
"408.5 504 OFFCURVE",
"382.5 583.5 OFFCURVE",
"341.5 628.5 CURVE",
"603.5 628.5 LINE",
"612 687 LINE",
"272 687 LINE",
"250.5 694 OFFCURVE",
"229 696.5 OFFCURVE",
"207.5 696.5 CURVE SMOOTH"
);
},
{
closed = 1;
nodes = (
"300.5 637 OFFCURVE",
"342 551.5 OFFCURVE",
"342 342.5 CURVE SMOOTH",
"342 132 OFFCURVE",
"299 49 OFFCURVE",
"207.5 49 CURVE SMOOTH",
"122 49 OFFCURVE",
"74.5 130.5 OFFCURVE",
"74.5 341 CURVE SMOOTH",
"74.5 552 OFFCURVE",
"119.5 637 OFFCURVE",
"207.5 637 CURVE SMOOTH"
);
}
);
vertWidth = 0;
width = 600;
},
{
anchors = (
{
name = bottom;
position = "{600, 0}";
},
{
name = top;
position = "{600, 1374}";
}
);
layerId = "426AEE65-830A-4D9C-AD83-8E047A05F635";
paths = (
{
closed = 1;
nodes = (
"72 704.5 OFFCURVE",
"9.5 569 OFFCURVE",
"9.5 344 CURVE SMOOTH",
"9.5 114 OFFCURVE",
"72 -17 OFFCURVE",
"224.5 -17 CURVE SMOOTH",
"261.5 -17 OFFCURVE",
"287 -9 OFFCURVE",
"316 0 CURVE",
"596.5 0 LINE",
"596.5 111 LINE",
"393 111 LINE",
"417.5 155.5 OFFCURVE",
"433.5 216 OFFCURVE",
"437.5 292.5 CURVE",
"558.5 292.5 LINE",
"558.5 403.5 LINE",
"436.5 403.5 LINE",
"432.5 477 OFFCURVE",
"419 535 OFFCURVE",
"398 576.5 CURVE",
"579.5 576.5 LINE",
"596.5 687 LINE",
"320 687 LINE",
"287 698 OFFCURVE",
"261.5 704.5 OFFCURVE",
"224.5 704.5 CURVE SMOOTH"
);
},
{
closed = 1;
nodes = (
"286.5 593.5 OFFCURVE",
"304 529.5 OFFCURVE",
"304 344 CURVE SMOOTH",
"304 164 OFFCURVE",
"283.5 94 OFFCURVE",
"225.5 94 CURVE SMOOTH",
"170 94 OFFCURVE",
"149.5 164 OFFCURVE",
"149.5 344 CURVE SMOOTH",
"149.5 525 OFFCURVE",
"166 593.5 OFFCURVE",
"225.5 593.5 CURVE SMOOTH"
);
}
);
vertWidth = 0;
width = 600;
}
);
note = "";
unicode = 0152;
},
{
glyphname = P;
layers = (
{
anchors = (
{
name = bottom;
position = "{600, 0}";
},
{
name = top;
position = "{600, 1374}";
},
{
name = topleft;
position = "{243, 1374}";
}
);
layerId = "5A91C8AF-16C0-4BC2-89AA-7C90677D5BAF";
paths = (
{
closed = 1;
nodes = (
"481 350 OFFCURVE",
"403.5 318.5 OFFCURVE",
"301 318.5 CURVE SMOOTH",
"195.5 318.5 LINE",
"195.5 632.5 LINE",
"308 632.5 LINE SMOOTH",
"404 632.5 OFFCURVE",
"481 595 OFFCURVE",
"481 478.5 CURVE SMOOTH"
);
},
{
closed = 1;
nodes = (
"551 622 OFFCURVE",
"451.5 687 OFFCURVE",
"294.5 687 CURVE SMOOTH",
"131.5 687 LINE",
"131.5 0 LINE",
"195.5 0 LINE",
"195.5 263 LINE",
"287.5 263 LINE SMOOTH",
"440 263 OFFCURVE",
"551 319 OFFCURVE",
"551 480 CURVE SMOOTH"
);
}
);
vertWidth = 0;
width = 600;
},
{
anchors = (
{
name = bottom;
position = "{600, 0}";
},
{
name = top;
position = "{600, 1374}";
},
{
name = topleft;
position = "{105, 1374}";
}
);
layerId = "426AEE65-830A-4D9C-AD83-8E047A05F635";
paths = (
{
closed = 1;
nodes = (
"407.5 383 OFFCURVE",
"364 347 OFFCURVE",
"291 347 CURVE SMOOTH",
"226.5 347 LINE",
"226.5 570 LINE",
"282.5 570 LINE SMOOTH",
"366 570 OFFCURVE",
"407.5 535.5 OFFCURVE",
"407.5 463 CURVE SMOOTH"
);
},
{
closed = 1;
nodes = (
"576.5 613.5 OFFCURVE",
"468.5 687 OFFCURVE",
"280.5 687 CURVE SMOOTH",
"62.5 687 LINE",
"62.5 0 LINE",
"226.5 0 LINE",
"226.5 228 LINE",
"301.5 228 LINE SMOOTH",
"465 228 OFFCURVE",
"576.5 303.5 OFFCURVE",
"576.5 463.5 CURVE SMOOTH"
);
}
);
vertWidth = 0;
width = 600;
}
);
note = "";
unicode = 0050;
},
{
glyphname = Thorn;
layers = (
{
anchors = (
{
name = bottom;
position = "{600, 0}";
},
{
name = top;
position = "{600, 1374}";
}
);
layerId = "5A91C8AF-16C0-4BC2-89AA-7C90677D5BAF";
paths = (
{
closed = 1;
nodes = (
"121.5 687 LINE",
"121.5 0 LINE",
"184.5 0 LINE",
"184.5 132 LINE",
"289.5 132 LINE SMOOTH",
"438.5 132 OFFCURVE",
"549.5 195.5 OFFCURVE",
"549.5 355.5 CURVE SMOOTH",
"549.5 502.5 OFFCURVE",
"455.5 569.5 OFFCURVE",
"296.5 569.5 CURVE SMOOTH",
"184.5 569.5 LINE",
"184.5 687 LINE"
);
},
{
closed = 1;
nodes = (
"409.5 515 OFFCURVE",
"482 469 OFFCURVE",
"482 353 CURVE SMOOTH",
"482 222.5 OFFCURVE",
"408.5 187 OFFCURVE",
"307.5 187 CURVE SMOOTH",
"184.5 187 LINE",
"184.5 515 LINE",
"309 515 LINE SMOOTH"
);
}
);
vertWidth = 0;
width = 600;
},
{
anchors = (
{
name = bottom;
position = "{600, 0}";
},
{
name = top;
position = "{600, 1374}";
}
);
layerId = "426AEE65-830A-4D9C-AD83-8E047A05F635";
paths = (
{
closed = 1;
nodes = (
"59.5 687 LINE",
"59.5 0 LINE",
"224 0 LINE",
"224 115.5 LINE",
"301 115.5 LINE SMOOTH",
"472.5 115.5 OFFCURVE",
"576.5 189.5 OFFCURVE",
"576.5 351 CURVE SMOOTH",
"576.5 502.5 OFFCURVE",
"467 576 OFFCURVE",
"279.5 576 CURVE SMOOTH",
"224 576 LINE",
"224 687 LINE"
);
},
{
closed = 1;
nodes = (
"363 459.5 OFFCURVE",
"405.5 427 OFFCURVE",
"405.5 350 CURVE SMOOTH",
"405.5 264.5 OFFCURVE",
"362 233.5 OFFCURVE",
"290.5 233.5 CURVE SMOOTH",
"224 233.5 LINE",
"224 459.5 LINE",
"283.5 459.5 LINE SMOOTH"
);
}
);
vertWidth = 0;
width = 600;
}
);
note = "";
unicode = 00DE;
},
{
glyphname = Q;
layers = (
{
anchors = (
{
name = bottom;
position = "{600, 0}";
},
{
name = top;
position = "{600, 1374}";
}
);
layerId = "5A91C8AF-16C0-4BC2-89AA-7C90677D5BAF";
paths = (
{
closed = 1;
nodes = (
"547.5 552 OFFCURVE",
"462 696.5 OFFCURVE",
"298.5 696.5 CURVE SMOOTH",
"135.5 696.5 OFFCURVE",
"49.5 547 OFFCURVE",
"49.5 341 CURVE SMOOTH",
"49.5 132 OFFCURVE",
"136 -8 OFFCURVE",
"290 -8 CURVE SMOOTH",
"408 -8 OFFCURVE",
"460.5 -66 OFFCURVE",
"501.5 -173 CURVE",
"580 -140 LINE",
"548 -42.5 OFFCURVE",
"499 3.5 OFFCURVE",
"406 22.5 CURVE",
"510 81.5 OFFCURVE",
"547.5 193.5 OFFCURVE",
"547.5 342.5 CURVE SMOOTH"
);
},
{
closed = 1;
nodes = (
"481.5 154.5 OFFCURVE",
"425 49 OFFCURVE",
"298.5 49 CURVE SMOOTH",
"175 49 OFFCURVE",
"116 153.5 OFFCURVE",
"116 341 CURVE SMOOTH",
"116 529.5 OFFCURVE",
"171 638 OFFCURVE",
"298.5 638 CURVE SMOOTH",
"425.5 638 OFFCURVE",
"481.5 530.5 OFFCURVE",
"481.5 342.5 CURVE SMOOTH"
);
}
);
vertWidth = 0;
width = 600;
},
{
anchors = (
{
name = bottom;
position = "{600, 0}";
},
{
name = top;
position = "{600, 1374}";
}
);
layerId = "426AEE65-830A-4D9C-AD83-8E047A05F635";
paths = (
{
closed = 1;
nodes = (
"574.5 566.5 OFFCURVE",
"484.5 704.5 OFFCURVE",
"303 704.5 CURVE SMOOTH",
"121.5 704.5 OFFCURVE",
"32.5 561.5 OFFCURVE",
"32.5 344 CURVE SMOOTH",
"32.5 121 OFFCURVE",
"116.5 -14 OFFCURVE",
"290 -14 CURVE SMOOTH",
"411 -14 OFFCURVE",
"456 -68.5 OFFCURVE",
"500 -171.5 CURVE",
"634 -126 LINE",
"596 -15 OFFCURVE",
"537 21.5 OFFCURVE",
"428.5 39.5 CURVE",
"538.5 95 OFFCURVE",
"574.5 209 OFFCURVE",
"574.5 344 CURVE SMOOTH"
);
},
{
closed = 1;
nodes = (
"403.5 177.5 OFFCURVE",
"383 103 OFFCURVE",
"303 103 CURVE SMOOTH",
"226 103 OFFCURVE",
"202 176.5 OFFCURVE",
"202 344 CURVE SMOOTH",
"202 510.5 OFFCURVE",
"225 584 OFFCURVE",
"303 584 CURVE SMOOTH",
"382 584 OFFCURVE",
"403.5 511.5 OFFCURVE",
"403.5 344 CURVE SMOOTH"
);
}
);
vertWidth = 0;
width = 600;
}
);
note = "";
unicode = 0051;
},
{
glyphname = R;
layers = (
{
anchors = (
{
name = bottom;
position = "{591, 0}";
},
{
name = top;
position = "{600, 1374}";
}
);
layerId = "5A91C8AF-16C0-4BC2-89AA-7C90677D5BAF";
paths = (
{
closed = 1;
nodes = (
"530.5 621.5 OFFCURVE",
"443.5 687 OFFCURVE",
"279 687 CURVE SMOOTH",
"114.5 687 LINE",
"114.5 0 LINE",
"178.5 0 LINE",
"178.5 304.5 LINE",
"285.5 304.5 LINE",
"484.5 0 LINE",
"564.5 0 LINE",
"353.5 309.5 LINE",
"453.5 330 OFFCURVE",
"530.5 394.5 OFFCURVE",
"530.5 499.5 CURVE SMOOTH"
);
},
{
closed = 1;
nodes = (
"460 397.5 OFFCURVE",
"397.5 359.5 OFFCURVE",
"290 359.5 CURVE SMOOTH",
"178.5 359.5 LINE",
"178.5 632 LINE",
"292 632 LINE SMOOTH",
"407 632 OFFCURVE",
"460 594 OFFCURVE",
"460 499.5 CURVE SMOOTH"
);
}
);
vertWidth = 0;
width = 600;
},
{
anchors = (
{
name = bottom;
position = "{619, 0}";
},
{
name = top;
position = "{600, 1374}";
}
);
layerId = "426AEE65-830A-4D9C-AD83-8E047A05F635";
paths = (
{
closed = 1;
nodes = (
"561.5 620.5 OFFCURVE",
"464.5 687 OFFCURVE",
"276 687 CURVE SMOOTH",
"58 687 LINE",
"58 0 LINE",
"222 0 LINE",
"222 262 LINE",
"268.5 262 LINE",
"418.5 0 LINE",
"604 0 LINE",
"422.5 289.5 LINE",
"500 320 OFFCURVE",
"561.5 379.5 OFFCURVE",
"561.5 478 CURVE SMOOTH"
);
},
{
closed = 1;
nodes = (
"392.5 405.5 OFFCURVE",
"353.5 374.5 OFFCURVE",
"283 374.5 CURVE SMOOTH",
"222 374.5 LINE",
"222 572 LINE",
"276.5 572 LINE SMOOTH",
"353 572 OFFCURVE",
"392.5 543.5 OFFCURVE",
"392.5 478 CURVE SMOOTH"
);
}
);
vertWidth = 0;
width = 600;
}
);
note = "";
unicode = 0052;
},
{
glyphname = S;
layers = (
{
anchors = (
{
name = bottom;
position = "{591, 0}";
},
{
name = top;
position = "{608, 1374}";
}
);
layerId = "5A91C8AF-16C0-4BC2-89AA-7C90677D5BAF";
paths = (
{
closed = 1;
nodes = (
"527 320 OFFCURVE",
"428.5 361.5 OFFCURVE",
"328.5 389.5 CURVE SMOOTH",
"191 429.5 OFFCURVE",
"145.5 462 OFFCURVE",
"145.5 526.5 CURVE SMOOTH",
"145.5 602 OFFCURVE",
"214 638 OFFCURVE",
"293 638 CURVE SMOOTH",
"352 638 OFFCURVE",
"411.5 619 OFFCURVE",
"461.5 574 CURVE",
"504.5 621 LINE",
"447.5 669.5 OFFCURVE",
"384.5 696.5 OFFCURVE",
"293 696.5 CURVE SMOOTH",
"165 696.5 OFFCURVE",
"81.5 622.5 OFFCURVE",
"81.5 526.5 CURVE SMOOTH",
"81.5 415.5 OFFCURVE",
"174.5 369.5 OFFCURVE",
"302.5 332.5 CURVE SMOOTH",
"427.5 296 OFFCURVE",
"461 260 OFFCURVE",
"461 188.5 CURVE SMOOTH",
"461 92.5 OFFCURVE",
"376 48.5 OFFCURVE",
"288 48.5 CURVE SMOOTH",
"201 48.5 OFFCURVE",
"141.5 77.5 OFFCURVE",
"95 122.5 CURVE",
"53 74.5 LINE",
"111 19 OFFCURVE",
"193 -10 OFFCURVE",
"284.5 -10 CURVE SMOOTH",
"440 -10 OFFCURVE",
"527 71.5 OFFCURVE",
"527 187 CURVE SMOOTH"
);
}
);
vertWidth = 0;
width = 600;
},
{
anchors = (
{
name = bottom;
position = "{600, 0}";
},
{
name = top;
position = "{620, 1374}";
}
);
layerId = "426AEE65-830A-4D9C-AD83-8E047A05F635";
paths = (
{
closed = 1;
nodes = (
"568 327.5 OFFCURVE",
"490.5 382.5 OFFCURVE",
"359 423 CURVE SMOOTH",
"249 457 OFFCURVE",
"217.5 473.5 OFFCURVE",
"217.5 517.5 CURVE SMOOTH",
"217.5 561 OFFCURVE",
"259 584 OFFCURVE",
"321.5 584 CURVE SMOOTH",
"378 584 OFFCURVE",
"433 565 OFFCURVE",
"479.5 527 CURVE",
"557 615.5 LINE",
"497.5 672 OFFCURVE",
"415.5 704.5 OFFCURVE",
"308.5 704.5 CURVE SMOOTH",
"165 704.5 OFFCURVE",
"47.5 631 OFFCURVE",
"47.5 505 CURVE SMOOTH",
"47.5 400 OFFCURVE",
"109 339.5 OFFCURVE",
"273 289.5 CURVE SMOOTH",
"368 260.5 OFFCURVE",
"397.5 238 OFFCURVE",
"397.5 188.5 CURVE SMOOTH",
"397.5 135.5 OFFCURVE",
"350.5 105 OFFCURVE",
"282 105 CURVE SMOOTH",
"207.5 105 OFFCURVE",
"145.5 130 OFFCURVE",
"95 174 CURVE",
"12 82.5 LINE",
"70 26 OFFCURVE",
"154.5 -17 OFFCURVE",
"286 -17 CURVE SMOOTH",
"462.5 -17 OFFCURVE",
"568 72.5 OFFCURVE",
"568 201 CURVE SMOOTH"
);
}
);
vertWidth = 0;
width = 600;
}
);
note = "";
unicode = 0053;
},
{
color = 3;
glyphname = Germandbls;
production = uni1E9E;
layers = (
{
layerId = "5A91C8AF-16C0-4BC2-89AA-7C90677D5BAF";
paths = (
{
closed = 1;
nodes = (
"162.5 701.5 OFFCURVE",
"85.5 627.5 OFFCURVE",
"85.5 497.5 CURVE SMOOTH",
"85.5 5.5 LINE",
"145.5 5.5 LINE",
"145.5 495.5 LINE SMOOTH",
"145.5 602.5 OFFCURVE",
"200.5 650.5 OFFCURVE",
"295.5 650.5 CURVE SMOOTH",
"363.5 650.5 OFFCURVE",
"419.5 631.5 OFFCURVE",
"471.5 607.5 CURVE",
"279.5 397.5 LINE",
"279.5 348.5 LINE",
"430.5 340.5 OFFCURVE",
"507.5 295.5 OFFCURVE",
"507.5 191.5 CURVE SMOOTH",
"507.5 95.5 OFFCURVE",
"451.5 45.5 OFFCURVE",
"359.5 45.5 CURVE SMOOTH",
"318.5 45.5 OFFCURVE",
"291.5 52.5 OFFCURVE",
"267.5 61.5 CURVE",
"247.5 17.5 LINE",
"274.5 3.5 OFFCURVE",
"313.5 -5.5 OFFCURVE",
"362.5 -5.5 CURVE SMOOTH",
"488.5 -5.5 OFFCURVE",
"570.5 68.5 OFFCURVE",
"570.5 191.5 CURVE SMOOTH",
"570.5 308.5 OFFCURVE",
"491.5 374.5 OFFCURVE",
"338.5 390.5 CURVE",
"527.5 592.5 LINE",
"527.5 633.5 LINE",
"458.5 672.5 OFFCURVE",
"381.5 701.5 OFFCURVE",
"294.5 701.5 CURVE SMOOTH"
);
}
);
vertWidth = 0;
width = 600;
},
{
layerId = "426AEE65-830A-4D9C-AD83-8E047A05F635";
paths = (
{
closed = 1;
nodes = (
"115.5 712.5 OFFCURVE",
"32.5 628 OFFCURVE",
"32.5 489 CURVE SMOOTH",
"32.5 8.5 LINE",
"196.5 8.5 LINE",
"196.5 493 LINE SMOOTH",
"196.5 562 OFFCURVE",
"225.5 592.5 OFFCURVE",
"286.5 592.5 CURVE SMOOTH",
"333.5 592.5 OFFCURVE",
"374 583.5 OFFCURVE",
"412.5 570 CURVE",
"274.5 406 LINE",
"274.5 319.5 LINE",
"389.5 311.5 OFFCURVE",
"439.5 276 OFFCURVE",
"439.5 206 CURVE SMOOTH",
"439.5 141 OFFCURVE",
"400.5 114.5 OFFCURVE",
"348.5 114.5 CURVE SMOOTH",
"321.5 114.5 OFFCURVE",
"302.5 119.5 OFFCURVE",
"286.5 126.5 CURVE",
"238.5 18.5 LINE",
"269.5 2.5 OFFCURVE",
"314.5 -8.5 OFFCURVE",
"369.5 -8.5 CURVE SMOOTH",
"501.5 -8.5 OFFCURVE",
"610.5 63 OFFCURVE",
"610.5 203 CURVE SMOOTH",
"610.5 324.5 OFFCURVE",
"532 380 OFFCURVE",
"416.5 398 CURVE",
"563.5 567.5 LINE",
"563.5 642 LINE",
"482 680.5 OFFCURVE",
"395.5 712.5 OFFCURVE",
"276.5 712.5 CURVE SMOOTH"
);
}
);
vertWidth = 0;
width = 600;
}
);
note = "";
unicode = 1E9E;
},
{
glyphname = T;
layers = (
{
anchors = (
{
name = bottom;
position = "{598, 0}";
},
{
name = bottomright;
position = "{680, 0}";
},
{
name = center;
position = "{600, 688}";
},
{
name = top;
position = "{598, 1374}";
}
);
layerId = "5A91C8AF-16C0-4BC2-89AA-7C90677D5BAF";
paths = (
{
closed = 1;
nodes = (
"545.5 628 LINE",
"552.5 687 LINE",
"45 687 LINE",
"45 628 LINE",
"266.5 628 LINE",
"266.5 0 LINE",
"330 0 LINE",
"330 628 LINE"
);
}
);
vertWidth = 0;
width = 600;
},
{
anchors = (
{
name = bottom;
position = "{598, 0}";
},
{
name = bottomright;
position = "{782, 0}";
},
{
name = center;
position = "{600, 688}";
},
{
name = top;
position = "{598, 1374}";
}
);
layerId = "426AEE65-830A-4D9C-AD83-8E047A05F635";
paths = (
{
closed = 1;
nodes = (
"566.5 561.5 LINE",
"583.5 687 LINE",
"22.5 687 LINE",
"22.5 561.5 LINE",
"217 561.5 LINE",
"217 0 LINE",
"381 0 LINE",
"381 561.5 LINE"
);
}
);
vertWidth = 0;
width = 600;
}
);
note = "";
unicode = 0054;
},
{
glyphname = Tbar;
layers = (
{
anchors = (
{
name = bottom;
position = "{598, 0}";
},
{
name = bottomright;
position = "{680, 0}";
},
{
name = center;
position = "{600, 688}";
},
{
name = top;
position = "{598, 1374}";
}
);
components = (
{
alignment = -1;
name = T;
transform = "{0.5, 0, 0, 0.5, 0, 0}";
}
);
layerId = "5A91C8AF-16C0-4BC2-89AA-7C90677D5BAF";
paths = (
{
closed = 1;
nodes = (
"466 360.5 LINE",
"466 420.5 LINE",
"131.5 420.5 LINE",
"131.5 360.5 LINE"
);
}
);
vertWidth = 0;
width = 600;
},
{
anchors = (
{
name = bottom;
position = "{598, 0}";
},
{
name = bottomright;
position = "{782, 0}";
},
{
name = center;
position = "{600, 688}";
},
{
name = top;
position = "{598, 1374}";
}
);
components = (
{
alignment = -1;
name = T;
transform = "{0.5, 0, 0, 0.5, 0, 0}";
}
);
layerId = "426AEE65-830A-4D9C-AD83-8E047A05F635";
paths = (
{
closed = 1;
nodes = (
"498.5 310.5 LINE",
"498.5 403 LINE",
"100.5 403 LINE",
"100.5 310.5 LINE"
);
}
);
vertWidth = 0;
width = 600;
}
);
note = "";
unicode = 0166;
},
{
glyphname = U;
layers = (
{
anchors = (
{
name = bottom;
position = "{600, 0}";
},
{
name = ogonek;
position = "{754, 0}";
},
{
name = top;
position = "{600, 1374}";
}
);
layerId = "5A91C8AF-16C0-4BC2-89AA-7C90677D5BAF";
paths = (
{
closed = 1;
nodes = (
"454 687 LINE",
"454 198.5 LINE SMOOTH",
"454 99.5 OFFCURVE",
"392 51 OFFCURVE",
"298.5 51 CURVE SMOOTH",
"206.5 51 OFFCURVE",
"144.5 99.5 OFFCURVE",
"144.5 198.5 CURVE SMOOTH",
"144.5 687 LINE",
"81.5 687 LINE",
"81.5 220.5 LINE SMOOTH",
"81.5 84 OFFCURVE",
"166.5 -10 OFFCURVE",
"298.5 -10 CURVE SMOOTH",
"428.5 -10 OFFCURVE",
"518.5 81.5 OFFCURVE",
"518.5 220.5 CURVE SMOOTH",
"518.5 687 LINE"
);
}
);
vertWidth = 0;
width = 600;
},
{
anchors = (
{
name = bottom;
position = "{600, 0}";
},
{
name = ogonek;
position = "{830, 0}";
},
{
name = top;
position = "{600, 1374}";
}
);
layerId = "426AEE65-830A-4D9C-AD83-8E047A05F635";
paths = (
{
closed = 1;
nodes = (
"393.5 687 LINE",
"393.5 292 LINE SMOOTH",
"393.5 168 OFFCURVE",
"379.5 105 OFFCURVE",
"300 105 CURVE SMOOTH",
"220.5 105 OFFCURVE",
"206.5 168 OFFCURVE",
"206.5 292 CURVE SMOOTH",
"206.5 687 LINE",
"42 687 LINE",
"42 230 LINE SMOOTH",
"42 83.5 OFFCURVE",
"127 -17 OFFCURVE",
"300 -17 CURVE SMOOTH",
"472 -17 OFFCURVE",
"558 89.5 OFFCURVE",
"558 230 CURVE SMOOTH",
"558 687 LINE"
);
}
);
vertWidth = 0;
width = 600;
}
);
note = "";
unicode = 0055;
},
{
glyphname = V;
layers = (
{
anchors = (
{
name = bottom;
position = "{600, 0}";
},
{
name = top;
position = "{600, 1374}";
}
);
layerId = "5A91C8AF-16C0-4BC2-89AA-7C90677D5BAF";
paths = (
{
closed = 1;
nodes = (
"101.5 687 LINE",
"32 687 LINE",
"272 0 LINE",
"328 0 LINE",
"567.5 687 LINE",
"504 687 LINE",
"301.5 90 LINE"
);
}
);
vertWidth = 0;
width = 600;
},
{
anchors = (
{
name = bottom;
position = "{600, 0}";
},
{
name = top;
position = "{600, 1374}";
}
);
layerId = "426AEE65-830A-4D9C-AD83-8E047A05F635";
paths = (
{
closed = 1;
nodes = (
"173.5 687 LINE",
"-0.5 687 LINE",
"198.5 0 LINE",
"401.5 0 LINE",
"601.5 687 LINE",
"433.5 687 LINE",
"303 127.5 LINE"
);
}
);
vertWidth = 0;
width = 600;
}
);
note = "";
unicode = 0056;
},
{
glyphname = W;
layers = (
{
anchors = (
{
name = bottom;
position = "{600, 0}";
},
{
name = top;
position = "{600, 1374}";
}
);
layerId = "5A91C8AF-16C0-4BC2-89AA-7C90677D5BAF";
paths = (
{
closed = 1;
nodes = (
"531 687 LINE",
"434.5 82 LINE",
"348.5 607 LINE",
"252.5 607 LINE",
"162.5 82 LINE",
"74 687 LINE",
"7 687 LINE",
"110 0 LINE",
"210 0 LINE",
"296.5 526.5 LINE",
"384 0 LINE",
"481 0 LINE",
"593 687 LINE"
);
}
);
vertWidth = 0;
width = 600;
},
{
anchors = (
{
name = bottom;
position = "{600, 0}";
},
{
name = top;
position = "{600, 1374}";
}
);
layerId = "426AEE65-830A-4D9C-AD83-8E047A05F635";
paths = (
{
closed = 1;
nodes = (
"460.5 687 LINE",
"426 139.5 LINE",
"372.5 608 LINE",
"231.5 608 LINE",
"174 139.5 LINE",
"150.5 687 LINE",
"-3 687 LINE",
"72 0 LINE",
"245.5 0 LINE",
"301 491 LINE",
"351.5 0 LINE",
"522 0 LINE",
"603 687 LINE"
);
}
);
vertWidth = 0;
width = 600;
}
);
note = "";
unicode = 0057;
},
{
glyphname = X;
layers = (
{
anchors = (
{
name = bottom;
position = "{600, 0}";
},
{
name = bottomright;
position = "{1025, 0}";
},
{
name = top;
position = "{600, 1374}";
}
);
layerId = "5A91C8AF-16C0-4BC2-89AA-7C90677D5BAF";
paths = (
{
closed = 1;
nodes = (
"261 366.5 LINE",
"39 0 LINE",
"108.5 0 LINE",
"298 325 LINE",
"484 0 LINE",
"560.5 0 LINE",
"336.5 370.5 LINE",
"535 687 LINE",
"465 687 LINE",
"300 410 LINE",
"135 687 LINE",
"58.5 687 LINE"
);
}
);
vertWidth = 0;
width = 600;
},
{
anchors = (
{
name = bottom;
position = "{600, 0}";
},
{
name = bottomright;
position = "{1118, 0}";
},
{
name = top;
position = "{600, 1374}";
}
);
layerId = "426AEE65-830A-4D9C-AD83-8E047A05F635";
paths = (
{
closed = 1;
nodes = (
"200.5 365 LINE",
"3.5 0 LINE",
"177.5 0 LINE",
"298 261.5 LINE",
"420.5 0 LINE",
"597 0 LINE",
"396 372 LINE",
"580 687 LINE",
"407 687 LINE",
"300 467.5 LINE",
"195.5 687 LINE",
"19 687 LINE"
);
}
);
vertWidth = 0;
width = 600;
}
);
note = "";
unicode = 0058;
},
{
glyphname = Y;
layers = (
{
anchors = (
{
name = bottom;
position = "{600, 0}";
},
{
name = top;
position = "{609, 1374}";
},
{
name = topleft;
position = "{66, 1374}";
}
);
layerId = "5A91C8AF-16C0-4BC2-89AA-7C90677D5BAF";
paths = (
{
closed = 1;
nodes = (
"567 687 LINE",
"501.5 687 LINE",
"301.5 328.5 LINE",
"104 687 LINE",
"33 687 LINE",
"267.5 266 LINE",
"267.5 0 LINE",
"332.5 0 LINE",
"332.5 267 LINE"
);
}
);
vertWidth = 0;
width = 600;
},
{
anchors = (
{
name = bottom;
position = "{600, 0}";
},
{
name = top;
position = "{600, 1374}";
},
{
name = topleft;
position = "{-16, 1374}";
}
);
layerId = "426AEE65-830A-4D9C-AD83-8E047A05F635";
paths = (
{
closed = 1;
nodes = (
"608 687 LINE",
"435.5 687 LINE",
"303 392 LINE",
"171.5 687 LINE",
"-8 687 LINE",
"218 256.5 LINE",
"218 0 LINE",
"382 0 LINE",
"382 257.5 LINE"
);
}
);
vertWidth = 0;
width = 600;
}
);
note = "";
unicode = 0059;
},
{
glyphname = Z;
layers = (
{
anchors = (
{
name = bottom;
position = "{600, 0}";
},
{
name = top;
position = "{640, 1374}";
}
);
layerId = "5A91C8AF-16C0-4BC2-89AA-7C90677D5BAF";
paths = (
{
closed = 1;
nodes = (
"520.5 631.5 LINE",
"520.5 687 LINE",
"117 687 LINE",
"117 628.5 LINE",
"455.5 628.5 LINE",
"81 55 LINE",
"81 0 LINE",
"508.5 0 LINE",
"517 58.5 LINE",
"147.5 58.5 LINE"
);
}
);
vertWidth = 0;
width = 600;
},
{
anchors = (
{
name = bottom;
position = "{600, 0}";
},
{
name = top;
position = "{626, 1374}";
}
);
layerId = "426AEE65-830A-4D9C-AD83-8E047A05F635";
paths = (
{
closed = 1;
nodes = (
"554.5 563.5 LINE",
"554.5 687 LINE",
"75 687 LINE",
"75 560.5 LINE",
"368 560.5 LINE",
"39 122.5 LINE",
"39 0 LINE",
"545 0 LINE",
"562 130.5 LINE",
"232 130.5 LINE"
);
}
);
vertWidth = 0;
width = 600;
}
);
note = "";
unicode = 005A;
},
{
color = 3;
glyphname = F_l.liga.ss10;
layers = (
{
anchors = (
{
name = bottom;
position = "{-600, 0}";
},
{
name = center;
position = "{1116, 766}";
},
{
name = top;
position = "{-600, 1374}";
},
{
name = topright;
position = "{675, 1475}";
}
);
layerId = "5A91C8AF-16C0-4BC2-89AA-7C90677D5BAF";
paths = (
{
closed = 1;
nodes = (
"-452.5 687 LINE",
"-452.5 0 LINE",
"-389.5 0 LINE",
"-389.5 316 LINE",
"-111.5 316 LINE",
"-111.5 371.5 LINE",
"-389.5 371.5 LINE",
"-389.5 630 LINE",
"231 630 LINE",
"231 119 LINE SMOOTH",
"231 37 OFFCURVE",
"296.5 -10 OFFCURVE",
"379.5 -10 CURVE SMOOTH",
"428.5 -10 OFFCURVE",
"470 2 OFFCURVE",
"496 15 CURVE",
"478 63 LINE",
"447.5 51 OFFCURVE",
"418.5 44 OFFCURVE",
"385.5 44 CURVE SMOOTH",
"332 44 OFFCURVE",
"293 64.5 OFFCURVE",
"293 119 CURVE SMOOTH",
"293 687 LINE"
);
}
);
vertWidth = 0;
width = 600;
},
{
anchors = (
{
name = bottom;
position = "{-600, 0}";
},
{
name = center;
position = "{1136, 759}";
},
{
name = top;
position = "{-600, 1374}";
},
{
name = topright;
position = "{754, 1471}";
}
);
layerId = "426AEE65-830A-4D9C-AD83-8E047A05F635";
paths = (
{
closed = 1;
nodes = (
"-492 687 LINE",
"-492 0 LINE",
"-327.5 0 LINE",
"-327.5 272 LINE",
"-84.5 272 LINE",
"-84.5 389.5 LINE",
"-327.5 389.5 LINE",
"-327.5 570 LINE",
"189 570 LINE",
"189 186 LINE SMOOTH",
"189 62.5 OFFCURVE",
"247 -17 OFFCURVE",
"375 -17 CURVE SMOOTH",
"442.5 -17 OFFCURVE",
"492.5 -1 OFFCURVE",
"528.5 18 CURVE",
"490.5 123.5 LINE",
"468.5 114.5 OFFCURVE",
"442.5 107.5 OFFCURVE",
"415.5 107.5 CURVE SMOOTH",
"373 107.5 OFFCURVE",
"347 124 OFFCURVE",
"347 166 CURVE SMOOTH",
"347 687 LINE"
);
}
);
vertWidth = 0;
width = 600;
}
);
note = "";
},
{
color = 3;
glyphname = T_l.liga.ss10;
layers = (
{
anchors = (
{
name = bottom;
position = "{-602, 0}";
},
{
name = bottomright;
position = "{-520, 0}";
},
{
name = center;
position = "{-600, 688}";
},
{
name = top;
position = "{-602, 1374}";
},
{
name = topright;
position = "{675, 1475}";
}
);
layerId = "5A91C8AF-16C0-4BC2-89AA-7C90677D5BAF";
paths = (
{
closed = 1;
nodes = (
"-555 687 LINE",
"-555 628 LINE",
"-333.5 628 LINE",
"-333.5 0 LINE",
"-270 0 LINE",
"-270 628 LINE",
"231 628 LINE",
"231 119 LINE SMOOTH",
"231 37 OFFCURVE",
"296.5 -10 OFFCURVE",
"379.5 -10 CURVE SMOOTH",
"428.5 -10 OFFCURVE",
"470 2 OFFCURVE",
"496 15 CURVE",
"478 63 LINE",
"447.5 51 OFFCURVE",
"418.5 44 OFFCURVE",
"385.5 44 CURVE SMOOTH",
"332 44 OFFCURVE",
"293 64.5 OFFCURVE",
"293 119 CURVE SMOOTH",
"293 687 LINE"
);
}
);
vertWidth = 0;
width = 600;
},
{
anchors = (
{
name = bottom;
position = "{-602, 0}";
},
{
name = bottomright;
position = "{-418, 0}";
},
{
name = center;
position = "{-600, 688}";
},
{
name = top;
position = "{-602, 1374}";
},
{
name = topright;
position = "{754, 1471}";
}
);
layerId = "426AEE65-830A-4D9C-AD83-8E047A05F635";
paths = (
{
closed = 1;
nodes = (
"-577.5 687 LINE",
"-577.5 561.5 LINE",
"-383 561.5 LINE",
"-383 0 LINE",
"-219 0 LINE",
"-219 561.5 LINE",
"189 561.5 LINE",
"189 186 LINE SMOOTH",
"189 62.5 OFFCURVE",
"247 -17 OFFCURVE",
"375 -17 CURVE SMOOTH",
"442.5 -17 OFFCURVE",
"492.5 -1 OFFCURVE",
"528.5 18 CURVE",
"490.5 123.5 LINE",
"468.5 114.5 OFFCURVE",
"442.5 107.5 OFFCURVE",
"415.5 107.5 CURVE SMOOTH",
"373 107.5 OFFCURVE",
"347 124 OFFCURVE",
"347 166 CURVE SMOOTH",
"347 687 LINE"
);
}
);
vertWidth = 0;
width = 600;
}
);
rightMetricsKey = l;
note = "";
},
{
glyphname = a;
layers = (
{
anchors = (
{
name = bottom;
position = "{600, 0}";
},
{
name = ogonek;
position = "{1008, -21}";
},
{
name = top;
position = "{583, 1050}";
}
);
layerId = "5A91C8AF-16C0-4BC2-89AA-7C90677D5BAF";
paths = (
{
closed = 1;
nodes = (
"466 369.5 LINE SMOOTH",
"466 468.5 OFFCURVE",
"402 534.5 OFFCURVE",
"279 534.5 CURVE SMOOTH",
"230.5 534.5 OFFCURVE",
"180.5 526.5 OFFCURVE",
"117.5 503 CURVE",
"135.5 452 LINE",
"190 471.5 OFFCURVE",
"234.5 478.5 OFFCURVE",
"270 478.5 CURVE SMOOTH",
"351 478.5 OFFCURVE",
"401.5 449.5 OFFCURVE",
"401.5 367.5 CURVE SMOOTH",
"401.5 316.5 LINE",
"322 316.5 LINE SMOOTH",
"163.5 316.5 OFFCURVE",
"78.5 258 OFFCURVE",
"78.5 151.5 CURVE SMOOTH",
"78.5 53.5 OFFCURVE",
"141.5 -10 OFFCURVE",
"245.5 -10 CURVE SMOOTH",
"314.5 -10 OFFCURVE",
"371 16 OFFCURVE",
"407.5 65 CURVE",
"420 17 OFFCURVE",
"454 -4.5 OFFCURVE",
"494 -10.5 CURVE",
"511 35 LINE",
"480.5 44 OFFCURVE",
"466 60.5 OFFCURVE",
"466 103.5 CURVE SMOOTH"
);
},
{
closed = 1;
nodes = (
"182 39.5 OFFCURVE",
"147 76.5 OFFCURVE",
"147 149.5 CURVE SMOOTH",
"147 221.5 OFFCURVE",
"190 269 OFFCURVE",
"314.5 269 CURVE SMOOTH",
"401.5 269 LINE",
"401.5 119 LINE",
"366.5 69 OFFCURVE",
"314.5 39.5 OFFCURVE",
"257.5 39.5 CURVE SMOOTH"
);
}
);
vertWidth = 0;
width = 600;
},
{
anchors = (
{
name = bottom;
position = "{600, 0}";
},
{
name = ogonek;
position = "{1059, -30}";
},
{
name = top;
position = "{586, 1050}";
}
);
layerId = "426AEE65-830A-4D9C-AD83-8E047A05F635";
paths = (
{
closed = 1;
nodes = (
"517 357 LINE SMOOTH",
"517 477.5 OFFCURVE",
"442.5 542.5 OFFCURVE",
"285 542.5 CURVE SMOOTH",
"226 542.5 OFFCURVE",
"146 529 OFFCURVE",
"78 503.5 CURVE",
"114.5 398.5 LINE",
"167.5 416.5 OFFCURVE",
"226 426.5 OFFCURVE",
"260 426.5 CURVE SMOOTH",
"328.5 426.5 OFFCURVE",
"365 400.5 OFFCURVE",
"365 346 CURVE SMOOTH",
"365 327 LINE",
"293.5 327 LINE SMOOTH",
"129.5 327 OFFCURVE",
"35 262 OFFCURVE",
"35 148.5 CURVE SMOOTH",
"35 51.5 OFFCURVE",
"105 -17 OFFCURVE",
"214.5 -17 CURVE SMOOTH",
"280 -17 OFFCURVE",
"348.5 5.5 OFFCURVE",
"389.5 54 CURVE",
"414 10.5 OFFCURVE",
"457 -9 OFFCURVE",
"519.5 -15 CURVE",
"552 89 LINE",
"527 98 OFFCURVE",
"517 112.5 OFFCURVE",
"517 152 CURVE SMOOTH"
);
},
{
closed = 1;
nodes = (
"224 96 OFFCURVE",
"198 119.5 OFFCURVE",
"198 159.5 CURVE SMOOTH",
"198 210.5 OFFCURVE",
"238 237.5 OFFCURVE",
"326 237.5 CURVE SMOOTH",
"365 237.5 LINE",
"365 153.5 LINE",
"345.5 116.5 OFFCURVE",
"303 96 OFFCURVE",
"269 96 CURVE SMOOTH"
);
}
);
vertWidth = 0;
width = 600;
}
);
note = "";
unicode = 0061;
},
{
glyphname = ae;
layers = (
{
anchors = (
{
name = top;
position = "{621, 1050}";
}
);
layerId = "5A91C8AF-16C0-4BC2-89AA-7C90677D5BAF";
paths = (
{
closed = 1;
nodes = (
"369 534.5 OFFCURVE",
"323.5 499.5 OFFCURVE",
"304 441.5 CURVE",
"286 498 OFFCURVE",
"250.5 534.5 OFFCURVE",
"172.5 534.5 CURVE SMOOTH",
"132.5 534.5 OFFCURVE",
"82.5 521.5 OFFCURVE",
"40.5 501.5 CURVE",
"59.5 444.5 LINE",
"103.5 463.5 OFFCURVE",
"130.5 472.5 OFFCURVE",
"166.5 472.5 CURVE SMOOTH",
"225 472.5 OFFCURVE",
"258.5 442.5 OFFCURVE",
"258.5 367.5 CURVE SMOOTH",
"258.5 318.5 LINE",
"212 318.5 LINE SMOOTH",
"70.5 318.5 OFFCURVE",
"-6 259 OFFCURVE",
"-6 150.5 CURVE SMOOTH",
"-6 53 OFFCURVE",
"54.5 -10 OFFCURVE",
"147.5 -10 CURVE SMOOTH",
"214 -10 OFFCURVE",
"253.5 16 OFFCURVE",
"296 89.5 CURVE",
"334 21 OFFCURVE",
"378.5 -10 OFFCURVE",
"448.5 -10 CURVE SMOOTH",
"502.5 -10 OFFCURVE",
"542.5 10 OFFCURVE",
"582.5 41.5 CURVE",
"550 92.5 LINE",
"515.5 66 OFFCURVE",
"488 50.5 OFFCURVE",
"447 50.5 CURVE SMOOTH",
"372.5 50.5 OFFCURVE",
"338.5 107.5 OFFCURVE",
"329.5 234.5 CURVE",
"607 234.5 LINE",
"608 246.5 OFFCURVE",
"608.5 262.5 OFFCURVE",
"608.5 280.5 CURVE SMOOTH",
"608.5 436 OFFCURVE",
"554.5 534.5 OFFCURVE",
"436.5 534.5 CURVE SMOOTH"
);
},
{
closed = 1;
nodes = (
"258.5 224 OFFCURVE",
"264 184 OFFCURVE",
"273 146.5 CURVE",
"237 79 OFFCURVE",
"204.5 44 OFFCURVE",
"154.5 44 CURVE SMOOTH",
"105.5 44 OFFCURVE",
"72 81 OFFCURVE",
"72 154.5 CURVE SMOOTH",
"72 222.5 OFFCURVE",
"105 268.5 OFFCURVE",
"210 268.5 CURVE SMOOTH",
"258.5 268.5 LINE"
);
},
{
closed = 1;
nodes = (
"510 473.5 OFFCURVE",
"535 410.5 OFFCURVE",
"537.5 294.5 CURVE",
"329.5 294.5 LINE",
"339.5 426 OFFCURVE",
"369.5 473.5 OFFCURVE",
"435 473.5 CURVE SMOOTH"
);
}
);
vertWidth = 0;
width = 600;
},
{
anchors = (
{
name = top;
position = "{604, 1050}";
}
);
layerId = "426AEE65-830A-4D9C-AD83-8E047A05F635";
paths = (
{
closed = 1;
nodes = (
"368 542.5 OFFCURVE",
"326 515 OFFCURVE",
"302 473.5 CURVE",
"277.5 515 OFFCURVE",
"237.5 542.5 OFFCURVE",
"164 542.5 CURVE SMOOTH",
"111 542.5 OFFCURVE",
"70.5 529.5 OFFCURVE",
"19.5 507.5 CURVE",
"55 421.5 LINE",
"94.5 440 OFFCURVE",
"116.5 446 OFFCURVE",
"148.5 446 CURVE SMOOTH",
"205.5 446 OFFCURVE",
"237.5 413 OFFCURVE",
"237.5 346 CURVE SMOOTH",
"237.5 323.5 LINE",
"196.5 323.5 LINE SMOOTH",
"59 323.5 OFFCURVE",
"-6 262 OFFCURVE",
"-6 150.5 CURVE SMOOTH",
"-6 52 OFFCURVE",
"50 -17 OFFCURVE",
"143 -17 CURVE SMOOTH",
"211 -17 OFFCURVE",
"245.5 9.5 OFFCURVE",
"284.5 66.5 CURVE",
"318 14.5 OFFCURVE",
"369 -17 OFFCURVE",
"444 -17 CURVE SMOOTH",
"511 -17 OFFCURVE",
"561 7 OFFCURVE",
"599.5 39.5 CURVE",
"540 118.5 LINE",
"511.5 98 OFFCURVE",
"485 86.5 OFFCURVE",
"453 86.5 CURVE SMOOTH",
"396.5 86.5 OFFCURVE",
"365.5 130.5 OFFCURVE",
"356.5 223.5 CURVE",
"597 223.5 LINE",
"599 239.5 OFFCURVE",
"600 255 OFFCURVE",
"600 273 CURVE SMOOTH",
"600 446.5 OFFCURVE",
"553 542.5 OFFCURVE",
"428 542.5 CURVE SMOOTH"
);
},
{
closed = 1;
nodes = (
"237.5 209 OFFCURVE",
"238.5 176 OFFCURVE",
"241.5 146.5 CURVE",
"221.5 107 OFFCURVE",
"200 86 OFFCURVE",
"171.5 86 CURVE SMOOTH",
"142 86 OFFCURVE",
"126 113 OFFCURVE",
"126 157.5 CURVE SMOOTH",
"126 208.5 OFFCURVE",
"150 238.5 OFFCURVE",
"216 238.5 CURVE SMOOTH",
"237.5 238.5 LINE"
);
},
{
closed = 1;
nodes = (
"469 444 OFFCURVE",
"480 401.5 OFFCURVE",
"481 308.5 CURVE",
"356.5 308.5 LINE",
"360.5 411 OFFCURVE",
"381 444 OFFCURVE",
"422.5 444 CURVE SMOOTH"
);
}
);
vertWidth = 0;
width = 600;
},
{
anchors = (
{
name = top;
position = "{621, 1050}";
}
);
associatedMasterId = "5A91C8AF-16C0-4BC2-89AA-7C90677D5BAF";
layerId = "C985ECE6-96DA-4A87-A1E7-DD0B4B079F2E";
name = "Mar 28 19, 14:59";
paths = (
{
closed = 1;
nodes = (
"745 1069 OFFCURVE",
"655 999 OFFCURVE",
"621 883 CURVE",
"583 996 OFFCURVE",
"509 1069 OFFCURVE",
"345 1069 CURVE SMOOTH",
"265 1069 OFFCURVE",
"165 1043 OFFCURVE",
"81 1003 CURVE",
"119 889 LINE",
"207 927 OFFCURVE",
"261 945 OFFCURVE",
"333 945 CURVE SMOOTH",
"450 945 OFFCURVE",
"517 885 OFFCURVE",
"517 735 CURVE SMOOTH",
"517 637 LINE",
"424 637 LINE SMOOTH",
"141 637 OFFCURVE",
"-12 518 OFFCURVE",
"-12 301 CURVE SMOOTH",
"-12 106 OFFCURVE",
"109 -20 OFFCURVE",
"295 -20 CURVE SMOOTH",
"428 -20 OFFCURVE",
"509 34 OFFCURVE",
"605 163 CURVE",
"671 45 OFFCURVE",
"757 -20 OFFCURVE",
"897 -20 CURVE SMOOTH",
"1005 -20 OFFCURVE",
"1085 20 OFFCURVE",
"1165 83 CURVE",
"1100 185 LINE",
"1031 132 OFFCURVE",
"976 101 OFFCURVE",
"894 101 CURVE SMOOTH",
"745 101 OFFCURVE",
"677 215 OFFCURVE",
"659 469 CURVE",
"1214 469 LINE",
"1216 493 OFFCURVE",
"1217 525 OFFCURVE",
"1217 561 CURVE SMOOTH",
"1217 872 OFFCURVE",
"1109 1069 OFFCURVE",
"873 1069 CURVE SMOOTH"
);
},
{
closed = 1;
nodes = (
"517 448 OFFCURVE",
"528 368 OFFCURVE",
"551 302 CURVE",
"471 161 OFFCURVE",
"409 88 OFFCURVE",
"309 88 CURVE SMOOTH",
"211 88 OFFCURVE",
"144 162 OFFCURVE",
"144 309 CURVE SMOOTH",
"144 445 OFFCURVE",
"210 537 OFFCURVE",
"420 537 CURVE SMOOTH",
"517 537 LINE"
);
},
{
closed = 1;
nodes = (
"1020 947 OFFCURVE",
"1070 821 OFFCURVE",
"1075 589 CURVE",
"659 589 LINE",
"679 852 OFFCURVE",
"739 947 OFFCURVE",
"870 947 CURVE SMOOTH"
);
}
);
vertWidth = 0;
width = 1200;
}
);
note = "";
unicode = 00E6;
},
{
color = 4;
glyphname = b;
layers = (
{
anchors = (
{
name = bottom;
position = "{600, 0}";
},
{
name = top;
position = "{600, 1475}";
}
);
layerId = "5A91C8AF-16C0-4BC2-89AA-7C90677D5BAF";
paths = (
{
closed = 1;
nodes = (
"171.5 746 LINE",
"109.5 737.5 LINE",
"109.5 0 LINE",
"163.5 0 LINE",
"169.5 56.5 LINE",
"206 10.5 OFFCURVE",
"253 -10 OFFCURVE",
"316.5 -10 CURVE SMOOTH",
"451.5 -10 OFFCURVE",
"523.5 104.5 OFFCURVE",
"523.5 262.5 CURVE SMOOTH",
"523.5 425.5 OFFCURVE",
"468 534.5 OFFCURVE",
"326 534.5 CURVE SMOOTH",
"263.5 534.5 OFFCURVE",
"211.5 505 OFFCURVE",
"171.5 452.5 CURVE"
);
},
{
closed = 1;
nodes = (
"250.5 44 OFFCURVE",
"201.5 73 OFFCURVE",
"171.5 118 CURVE",
"171.5 390 LINE",
"201.5 434 OFFCURVE",
"251.5 481.5 OFFCURVE",
"317 481.5 CURVE SMOOTH",
"407.5 481.5 OFFCURVE",
"453.5 403 OFFCURVE",
"453.5 263.5 CURVE SMOOTH",
"453.5 117 OFFCURVE",
"400 44 OFFCURVE",
"303 44 CURVE SMOOTH"
);
}
);
vertWidth = 0;
width = 600;
},
{
anchors = (
{
name = bottom;
position = "{600, 0}";
},
{
name = top;
position = "{600, 1467}";
}
);
layerId = "426AEE65-830A-4D9C-AD83-8E047A05F635";
paths = (
{
closed = 1;
nodes = (
"228 750 LINE",
"70 733.5 LINE",
"70 0 LINE",
"210 0 LINE",
"216 47.5 LINE",
"247 6 OFFCURVE",
"293.5 -17 OFFCURVE",
"347.5 -17 CURVE SMOOTH",
"485.5 -17 OFFCURVE",
"560 102 OFFCURVE",
"560 264 CURVE SMOOTH",
"560 434.5 OFFCURVE",
"500.5 542.5 OFFCURVE",
"364 542.5 CURVE SMOOTH",
"310.5 542.5 OFFCURVE",
"261.5 515.5 OFFCURVE",
"228 471.5 CURVE"
);
},
{
closed = 1;
nodes = (
"271.5 98 OFFCURVE",
"248 114.5 OFFCURVE",
"228 145.5 CURVE",
"228 366 LINE",
"250.5 402.5 OFFCURVE",
"278 426 OFFCURVE",
"314 426 CURVE SMOOTH",
"364 426 OFFCURVE",
"397 392 OFFCURVE",
"397 262 CURVE SMOOTH",
"397 144.5 OFFCURVE",
"362 98 OFFCURVE",
"306 98 CURVE SMOOTH"
);
}
);
vertWidth = 0;
width = 600;
}
);
note = "";
unicode = 0062;
},
{
glyphname = c;
layers = (
{
anchors = (
{
name = bottom;
position = "{678, 0}";
},
{
name = bottomAttach;
position = "{678, 0}";
},
{
name = top;
position = "{688, 1036}";
}
);
layerId = "5A91C8AF-16C0-4BC2-89AA-7C90677D5BAF";
paths = (
{
closed = 1;
nodes = (
"237.5 47 OFFCURVE",
"167.5 113.5 OFFCURVE",
"167.5 260.5 CURVE SMOOTH",
"167.5 405.5 OFFCURVE",
"237.5 479.5 OFFCURVE",
"334.5 479.5 CURVE SMOOTH",
"381.5 479.5 OFFCURVE",
"427.5 463 OFFCURVE",
"475 430.5 CURVE",
"508 475 LINE",
"459 514.5 OFFCURVE",
"401 534.5 OFFCURVE",
"337.5 534.5 CURVE SMOOTH",
"183.5 534.5 OFFCURVE",
"98.5 416.5 OFFCURVE",
"98.5 260.5 CURVE SMOOTH",
"98.5 96 OFFCURVE",
"184 -10 OFFCURVE",
"337 -10 CURVE SMOOTH",
"393 -10 OFFCURVE",
"463.5 13 OFFCURVE",
"509.5 51.5 CURVE",
"477 93.5 LINE",
"438 66 OFFCURVE",
"390.5 47 OFFCURVE",
"334.5 47 CURVE SMOOTH"
);
}
);
vertWidth = 0;
width = 600;
},
{
anchors = (
{
name = bottom;
position = "{678, 0}";
},
{
name = bottomAttach;
position = "{678, 0}";
},
{
name = top;
position = "{688, 1024}";
}
);
layerId = "426AEE65-830A-4D9C-AD83-8E047A05F635";
paths = (
{
closed = 1;
nodes = (
"284 107.5 OFFCURVE",
"233.5 143.5 OFFCURVE",
"233.5 259 CURVE SMOOTH",
"233.5 376.5 OFFCURVE",
"281 421 OFFCURVE",
"352.5 421 CURVE SMOOTH",
"396 421 OFFCURVE",
"436.5 406 OFFCURVE",
"472 382 CURVE",
"540.5 476.5 LINE",
"488 520 OFFCURVE",
"426.5 542.5 OFFCURVE",
"346 542.5 CURVE SMOOTH",
"175 542.5 OFFCURVE",
"68.5 423 OFFCURVE",
"68.5 259 CURVE SMOOTH",
"68.5 95 OFFCURVE",
"171.5 -17 OFFCURVE",
"343 -17 CURVE SMOOTH",
"425.5 -17 OFFCURVE",
"494 13 OFFCURVE",
"540.5 52.5 CURVE",
"470 152.5 LINE",
"431.5 126 OFFCURVE",
"395 107.5 OFFCURVE",
"351.5 107.5 CURVE SMOOTH"
);
}
);
vertWidth = 0;
width = 600;
}
);
note = "";
unicode = 0063;
},
{
glyphname = d;
layers = (
{
anchors = (
{
name = bottom;
position = "{600, 0}";
},
{
name = center;
position = "{600, 526}";
},
{
name = top;
position = "{600, 1475}";
},
{
name = topright;
position = "{1050, 1475}";
}
);
layerId = "5A91C8AF-16C0-4BC2-89AA-7C90677D5BAF";
paths = (
{
closed = 1;
nodes = (
"428.5 468.5 LINE",
"392.5 512 OFFCURVE",
"345.5 534.5 OFFCURVE",
"281.5 534.5 CURVE SMOOTH",
"151.5 534.5 OFFCURVE",
"76.5 418 OFFCURVE",
"76.5 261 CURVE SMOOTH",
"76.5 100.5 OFFCURVE",
"139.5 -10 OFFCURVE",
"278.5 -10 CURVE SMOOTH",
"333 -10 OFFCURVE",
"386.5 12.5 OFFCURVE",
"428.5 72.5 CURVE",
"436.5 0 LINE",
"490.5 0 LINE",
"490.5 737.5 LINE",
"428.5 746 LINE"
);
},
{
closed = 1;
nodes = (
"350.5 481 OFFCURVE",
"398 453.5 OFFCURVE",
"428.5 406.5 CURVE",
"428.5 133.5 LINE",
"398.5 88.5 OFFCURVE",
"353 44 OFFCURVE",
"286.5 44 CURVE SMOOTH",
"193.5 44 OFFCURVE",
"146.5 123.5 OFFCURVE",
"146.5 261.5 CURVE SMOOTH",
"146.5 406.5 OFFCURVE",
"199.5 481 OFFCURVE",
"297 481 CURVE SMOOTH"
);
}
);
vertWidth = 0;
width = 600;
},
{
anchors = (
{
name = bottom;
position = "{600, 0}";
},
{
name = center;
position = "{600, 526}";
},
{
name = top;
position = "{600, 1467}";
},
{
name = topright;
position = "{1101, 1467}";
}
);
layerId = "426AEE65-830A-4D9C-AD83-8E047A05F635";
paths = (
{
closed = 1;
nodes = (
"372 494.5 LINE",
"340 526 OFFCURVE",
"298.5 542.5 OFFCURVE",
"251.5 542.5 CURVE SMOOTH",
"120.5 542.5 OFFCURVE",
"40 425.5 OFFCURVE",
"40 264 CURVE SMOOTH",
"40 95 OFFCURVE",
"103 -17 OFFCURVE",
"235 -17 CURVE SMOOTH",
"305 -17 OFFCURVE",
"353 17.5 OFFCURVE",
"382 57.5 CURVE",
"390 0 LINE",
"530 0 LINE",
"530 733.5 LINE",
"372 750 LINE"
);
},
{
closed = 1;
nodes = (
"326.5 427 OFFCURVE",
"350 411.5 OFFCURVE",
"372 385 CURVE",
"372 159 LINE",
"349.5 122.5 OFFCURVE",
"321 99 OFFCURVE",
"285 99 CURVE SMOOTH",
"237 99 OFFCURVE",
"203 134 OFFCURVE",
"203 263 CURVE SMOOTH",
"203 380.5 OFFCURVE",
"239 427 OFFCURVE",
"294 427 CURVE SMOOTH"
);
}
);
vertWidth = 0;
width = 600;
}
);
note = "";
unicode = 0064;
},
{
glyphname = dcroat;
layers = (
{
anchors = (
{
name = bottom;
position = "{617, 0}";
},
{
name = center;
position = "{617, 526}";
},
{
name = top;
position = "{617, 1475}";
},
{
name = topright;
position = "{1067, 1475}";
}
);
components = (
{
alignment = -1;
name = d;
transform = "{0.5, 0, 0, 0.5, 8.5, 0}";
}
);
layerId = "5A91C8AF-16C0-4BC2-89AA-7C90677D5BAF";
paths = (
{
closed = 1;
nodes = (
"251 658.5 LINE",
"251 599 LINE",
"437 599 LINE",
"577.5 599 LINE",
"577.5 658.5 LINE",
"499 658.5 LINE"
);
}
);
vertWidth = 0;
width = 600;
},
{
anchors = (
{
name = bottom;
position = "{563, 0}";
},
{
name = center;
position = "{563, 526}";
},
{
name = top;
position = "{563, 1467}";
},
{
name = topright;
position = "{1064, 1467}";
}
);
components = (
{
alignment = -1;
name = d;
transform = "{0.5, 0, 0, 0.5, -18.5, 0}";
}
);
layerId = "426AEE65-830A-4D9C-AD83-8E047A05F635";
paths = (
{
closed = 1;
nodes = (
"231.5 678.5 LINE",
"231.5 586 LINE",
"353.5 586 LINE",
"591.5 586 LINE",
"591.5 678.5 LINE",
"511.5 678.5 LINE"
);
}
);
vertWidth = 0;
width = 600;
}
);
note = "";
unicode = 0111;
},
{
glyphname = eth;
layers = (
{
layerId = "5A91C8AF-16C0-4BC2-89AA-7C90677D5BAF";
paths = (
{
closed = 1;
nodes = (
"230.5 533.5 LINE",
"315.5 621.5 LINE",
"384 571.5 OFFCURVE",
"434.5 495.5 OFFCURVE",
"452 406 CURVE",
"413 453.5 OFFCURVE",
"357.5 480.5 OFFCURVE",
"287 480.5 CURVE SMOOTH",
"173.5 480.5 OFFCURVE",
"75 383.5 OFFCURVE",
"75 235.5 CURVE SMOOTH",
"75 78 OFFCURVE",
"174.5 -10 OFFCURVE",
"295.5 -10 CURVE SMOOTH",
"431 -10 OFFCURVE",
"525.5 90 OFFCURVE",
"525.5 259.5 CURVE SMOOTH",
"525.5 454.5 OFFCURVE",
"472 581.5 OFFCURVE",
"356.5 663 CURVE",
"421 730 LINE",
"379.5 766.5 LINE",
"311 693 LINE",
"270 716.5 OFFCURVE",
"220 732.5 OFFCURVE",
"160.5 746.5 CURVE",
"145.5 691.5 LINE",
"195.5 681 OFFCURVE",
"235.5 669 OFFCURVE",
"270 651 CURVE",
"182.5 559.5 LINE"
);
},
{
closed = 1;
nodes = (
"462.5 122.5 OFFCURVE",
"394 44 OFFCURVE",
"292.5 44 CURVE SMOOTH",
"203 44 OFFCURVE",
"138.5 114.5 OFFCURVE",
"138.5 240.5 CURVE SMOOTH",
"138.5 370 OFFCURVE",
"211.5 426 OFFCURVE",
"289 426 CURVE SMOOTH",
"361 426 OFFCURVE",
"422.5 394 OFFCURVE",
"459 334 CURVE",
"461.5 313.5 OFFCURVE",
"462.5 294 OFFCURVE",
"462.5 270.5 CURVE SMOOTH"
);
}
);
vertWidth = 0;
width = 600;
},
{
layerId = "426AEE65-830A-4D9C-AD83-8E047A05F635";
paths = (
{
closed = 1;
nodes = (
"226 519 LINE",
"281.5 574.5 LINE",
"329 540.5 OFFCURVE",
"365.5 494.5 OFFCURVE",
"388.5 427 CURVE",
"353 459.5 OFFCURVE",
"314.5 476.5 OFFCURVE",
"254.5 476.5 CURVE SMOOTH",
"139.5 476.5 OFFCURVE",
"39.5 377.5 OFFCURVE",
"39.5 231.5 CURVE SMOOTH",
"39.5 74 OFFCURVE",
"150.5 -17 OFFCURVE",
"294 -17 CURVE SMOOTH",
"463.5 -17 OFFCURVE",
"556.5 111.5 OFFCURVE",
"556.5 273.5 CURVE SMOOTH",
"556.5 450.5 OFFCURVE",
"500.5 583.5 OFFCURVE",
"370.5 665.5 CURVE",
"424 718.5 LINE",
"343 789 LINE",
"270 714 LINE",
"228 729.5 OFFCURVE",
"179 741.5 OFFCURVE",
"124 749.5 CURVE",
"93 647 LINE",
"126.5 640.5 OFFCURVE",
"156.5 633 OFFCURVE",
"184 624 CURVE",
"126 565 LINE"
);
},
{
closed = 1;
nodes = (
"396.5 148.5 OFFCURVE",
"365.5 98 OFFCURVE",
"297 98 CURVE SMOOTH",
"238.5 98 OFFCURVE",
"200.5 137.5 OFFCURVE",
"200.5 233 CURVE SMOOTH",
"200.5 323.5 OFFCURVE",
"238.5 366 OFFCURVE",
"296 366 CURVE SMOOTH",
"335 366 OFFCURVE",
"370 351.5 OFFCURVE",
"395.5 324 CURVE",
"396.5 301.5 OFFCURVE",
"396.5 278 OFFCURVE",
"396.5 253.5 CURVE SMOOTH"
);
}
);
vertWidth = 0;
width = 600;
}
);
note = "";
unicode = 00F0;
},
{
glyphname = e;
layers = (
{
anchors = (
{
name = bottom;
position = "{600, 0}";
},
{
name = ogonek;
position = "{797, 0}";
},
{
name = top;
position = "{623, 1050}";
}
);
layerId = "5A91C8AF-16C0-4BC2-89AA-7C90677D5BAF";
paths = (
{
closed = 1;
nodes = (
"511.5 237.5 LINE",
"512 248 OFFCURVE",
"513 262.5 OFFCURVE",
"513 280.5 CURVE SMOOTH",
"513 437 OFFCURVE",
"437 534.5 OFFCURVE",
"309.5 534.5 CURVE SMOOTH",
"177.5 534.5 OFFCURVE",
"88 422 OFFCURVE",
"88 262 CURVE SMOOTH",
"88 98.5 OFFCURVE",
"173.5 -10 OFFCURVE",
"319 -10 CURVE SMOOTH",
"377 -10 OFFCURVE",
"442 11.5 OFFCURVE",
"490.5 49 CURVE",
"458 95.5 LINE",
"410.5 62.5 OFFCURVE",
"371.5 47 OFFCURVE",
"316.5 47 CURVE SMOOTH",
"230.5 47 OFFCURVE",
"157 105.5 OFFCURVE",
"154.5 237.5 CURVE"
);
},
{
closed = 1;
nodes = (
"393.5 476.5 OFFCURVE",
"451.5 417 OFFCURVE",
"454 293.5 CURVE",
"155.5 293.5 LINE",
"162.5 417.5 OFFCURVE",
"226 476.5 OFFCURVE",
"311 476.5 CURVE SMOOTH"
);
}
);
vertWidth = 0;
width = 600;
},
{
anchors = (
{
name = bottom;
position = "{600, 0}";
},
{
name = ogonek;
position = "{890, 0}";
},
{
name = top;
position = "{614, 1050}";
}
);
layerId = "426AEE65-830A-4D9C-AD83-8E047A05F635";
paths = (
{
closed = 1;
nodes = (
"551 216.5 LINE",
"553 232.5 OFFCURVE",
"554 255 OFFCURVE",
"554 273 CURVE SMOOTH",
"554 442 OFFCURVE",
"456.5 542.5 OFFCURVE",
"305 542.5 CURVE SMOOTH",
"138 542.5 OFFCURVE",
"46 417 OFFCURVE",
"46 262 CURVE SMOOTH",
"46 99 OFFCURVE",
"139.5 -17 OFFCURVE",
"322 -17 CURVE SMOOTH",
"412.5 -17 OFFCURVE",
"484.5 13 OFFCURVE",
"534 55.5 CURVE",
"470.5 141.5 LINE",
"428 114.5 OFFCURVE",
"382.5 98 OFFCURVE",
"334.5 98 CURVE SMOOTH",
"267 98 OFFCURVE",
"217.5 131.5 OFFCURVE",
"207 216.5 CURVE"
);
},
{
closed = 1;
nodes = (
"372.5 437 OFFCURVE",
"399 386.5 OFFCURVE",
"400 311.5 CURVE",
"205 311.5 LINE",
"212 399 OFFCURVE",
"248.5 437 OFFCURVE",
"305 437 CURVE SMOOTH"
);
}
);
vertWidth = 0;
width = 600;
}
);
note = "";
unicode = 0065;
},
{
glyphname = f;
layers = (
{
anchors = (
{
name = bottom;
position = "{520, 0}";
},
{
name = top;
position = "{740, 1475}";
}
);
layerId = "5A91C8AF-16C0-4BC2-89AA-7C90677D5BAF";
paths = (
{
closed = 1;
nodes = (
"313.5 746 OFFCURVE",
"229 690.5 OFFCURVE",
"229 595.5 CURVE SMOOTH",
"229 482 LINE",
"99 482 LINE",
"99 429 LINE",
"229 429 LINE",
"229 0 LINE",
"291 0 LINE",
"291 429 LINE",
"465 429 LINE",
"471.5 482 LINE",
"291 482 LINE",
"291 599.5 LINE SMOOTH",
"291 660.5 OFFCURVE",
"332 691.5 OFFCURVE",
"408.5 691.5 CURVE SMOOTH",
"449.5 691.5 OFFCURVE",
"488.5 684 OFFCURVE",
"521 668.5 CURVE",
"543.5 719 LINE",
"503.5 736.5 OFFCURVE",
"463 746 OFFCURVE",
"412.5 746 CURVE SMOOTH"
);
}
);
vertWidth = 0;
width = 600;
},
{
anchors = (
{
name = bottom;
position = "{534, 0}";
},
{
name = top;
position = "{740, 1467}";
}
);
layerId = "426AEE65-830A-4D9C-AD83-8E047A05F635";
paths = (
{
closed = 1;
nodes = (
"264 750 OFFCURVE",
"188 671 OFFCURVE",
"188 567.5 CURVE SMOOTH",
"188 492 LINE",
"76.5 492 LINE",
"76.5 383 LINE",
"188 383 LINE",
"188 0 LINE",
"345 0 LINE",
"345 383 LINE",
"500.5 383 LINE",
"518 492 LINE",
"345 492 LINE",
"345 561.5 LINE SMOOTH",
"345 613 OFFCURVE",
"370 634 OFFCURVE",
"432.5 634 CURVE SMOOTH",
"470.5 634 OFFCURVE",
"509.5 628 OFFCURVE",
"546.5 614 CURVE",
"590 717 LINE",
"541.5 737 OFFCURVE",
"485.5 750 OFFCURVE",
"408 750 CURVE SMOOTH"
);
}
);
vertWidth = 0;
width = 600;
}
);
note = "";
unicode = 0066;
},
{
glyphname = g;
layers = (
{
anchors = (
{
name = bottom;
position = "{600, -386}";
},
{
name = top;
position = "{582, 1050}";
}
);
layerId = "5A91C8AF-16C0-4BC2-89AA-7C90677D5BAF";
paths = (
{
closed = 1;
nodes = (
"463.5 548.5 OFFCURVE",
"424.5 536.5 OFFCURVE",
"287.5 535 CURVE SMOOTH",
"167.5 535 OFFCURVE",
"85.5 458 OFFCURVE",
"85.5 355.5 CURVE SMOOTH",
"85.5 288 OFFCURVE",
"114 242.5 OFFCURVE",
"172 212 CURVE",
"134 186.5 OFFCURVE",
"115 154.5 OFFCURVE",
"115 122.5 CURVE SMOOTH",
"115 71.5 OFFCURVE",
"154 25.5 OFFCURVE",
"238 25.5 CURVE SMOOTH",
"335 25.5 LINE SMOOTH",
"407 25.5 OFFCURVE",
"466 -1.5 OFFCURVE",
"466 -57 CURVE SMOOTH",
"466 -121.5 OFFCURVE",
"406.5 -151.5 OFFCURVE",
"286 -151.5 CURVE SMOOTH",
"163 -151.5 OFFCURVE",
"133 -120 OFFCURVE",
"133 -54 CURVE",
"76 -54 LINE",
"76 -162 OFFCURVE",
"130.5 -209 OFFCURVE",
"288 -209 CURVE SMOOTH",
"439.5 -209 OFFCURVE",
"530 -155 OFFCURVE",
"530 -53 CURVE SMOOTH",
"530 25.5 OFFCURVE",
"449.5 86.5 OFFCURVE",
"348.5 86.5 CURVE SMOOTH",
"251.5 86.5 LINE SMOOTH",
"196 86.5 OFFCURVE",
"177.5 106.5 OFFCURVE",
"177.5 134 CURVE SMOOTH",
"177.5 156.5 OFFCURVE",
"190.5 178.5 OFFCURVE",
"207.5 191.5 CURVE",
"230.5 183.5 OFFCURVE",
"252 180 OFFCURVE",
"291.5 180 CURVE SMOOTH",
"412 180 OFFCURVE",
"481.5 255 OFFCURVE",
"481.5 359.5 CURVE SMOOTH",
"481.5 417 OFFCURVE",
"452.5 463 OFFCURVE",
"393 490.5 CURVE",
"450 490.5 OFFCURVE",
"500 491 OFFCURVE",
"547.5 504.5 CURVE",
"524.5 572.5 LINE"
);
},
{
closed = 1;
nodes = (
"370.5 486 OFFCURVE",
"413.5 440 OFFCURVE",
"413.5 355 CURVE SMOOTH",
"413.5 272.5 OFFCURVE",
"369.5 223 OFFCURVE",
"289 223 CURVE SMOOTH",
"192 223 OFFCURVE",
"149.5 279.5 OFFCURVE",
"149.5 354.5 CURVE SMOOTH",
"149.5 429.5 OFFCURVE",
"191 486 OFFCURVE",
"286 486 CURVE SMOOTH"
);
}
);
vertWidth = 0;
width = 600;
},
{
anchors = (
{
name = bottom;
position = "{600, -439}";
},
{
name = top;
position = "{602, 1050}";
}
);
layerId = "426AEE65-830A-4D9C-AD83-8E047A05F635";
paths = (
{
closed = 1;
nodes = (
"477.5 572.5 OFFCURVE",
"410.5 541.5 OFFCURVE",
"292 541.5 CURVE SMOOTH",
"153.5 541.5 OFFCURVE",
"54.5 468.5 OFFCURVE",
"54.5 350 CURVE SMOOTH",
"54.5 282 OFFCURVE",
"81 235.5 OFFCURVE",
"149.5 199.5 CURVE",
"111 175.5 OFFCURVE",
"89.5 138 OFFCURVE",
"89.5 100 CURVE SMOOTH",
"89.5 43.5 OFFCURVE",
"138.5 -5 OFFCURVE",
"253.5 -5 CURVE SMOOTH",
"338 -5 LINE SMOOTH",
"391 -5 OFFCURVE",
"415 -25.5 OFFCURVE",
"415 -56.5 CURVE SMOOTH",
"415 -90 OFFCURVE",
"392 -115.5 OFFCURVE",
"292 -115.5 CURVE SMOOTH",
"191.5 -115.5 OFFCURVE",
"171 -96 OFFCURVE",
"171 -50.5 CURVE",
"31 -50.5 LINE",
"31 -154 OFFCURVE",
"84 -219 OFFCURVE",
"288 -219 CURVE SMOOTH",
"476 -219 OFFCURVE",
"572 -153 OFFCURVE",
"572 -45.5 CURVE SMOOTH",
"572 42 OFFCURVE",
"493 106.5 OFFCURVE",
"369.5 106.5 CURVE SMOOTH",
"282.5 106.5 LINE SMOOTH",
"231.5 106.5 OFFCURVE",
"224 122.5 OFFCURVE",
"224 138.5 CURVE SMOOTH",
"224 150.5 OFFCURVE",
"230.5 162.5 OFFCURVE",
"241.5 168 CURVE",
"260 164.5 OFFCURVE",
"280.5 162.5 OFFCURVE",
"303 162.5 CURVE SMOOTH",
"440.5 162.5 OFFCURVE",
"528 236.5 OFFCURVE",
"528 338.5 CURVE SMOOTH",
"528 406.5 OFFCURVE",
"491.5 445.5 OFFCURVE",
"425.5 473.5 CURVE",
"492 473.5 OFFCURVE",
"541 479.5 OFFCURVE",
"578.5 494.5 CURVE",
"541.5 610 LINE"
);
},
{
closed = 1;
nodes = (
"349.5 439 OFFCURVE",
"377 412.5 OFFCURVE",
"377 354 CURVE SMOOTH",
"377 293.5 OFFCURVE",
"348.5 263 OFFCURVE",
"296 263 CURVE SMOOTH",
"247 263 OFFCURVE",
"214.5 294.5 OFFCURVE",
"214.5 352 CURVE SMOOTH",
"214.5 406.5 OFFCURVE",
"246 439 OFFCURVE",
"296 439 CURVE SMOOTH"
);
}
);
vertWidth = 0;
width = 600;
}
);
note = "";
unicode = 0067;
},
{
glyphname = h;
layers = (
{
anchors = (
{
name = bottom;
position = "{600, 0}";
},
{
name = center;
position = "{600, 526}";
},
{
name = top;
position = "{600, 1475}";
}
);
layerId = "5A91C8AF-16C0-4BC2-89AA-7C90677D5BAF";
paths = (
{
closed = 1;
nodes = (
"109.5 736 LINE",
"109.5 0 LINE",
"171.5 0 LINE",
"171.5 388.5 LINE",
"198.5 430 OFFCURVE",
"259 483 OFFCURVE",
"327 483 CURVE SMOOTH",
"396.5 483 OFFCURVE",
"430 453.5 OFFCURVE",
"430 391 CURVE SMOOTH",
"430 0 LINE",
"492 0 LINE",
"492 380 LINE SMOOTH",
"492 476.5 OFFCURVE",
"448.5 534.5 OFFCURVE",
"343 534.5 CURVE SMOOTH",
"280 534.5 OFFCURVE",
"212 504.5 OFFCURVE",
"171.5 447.5 CURVE",
"171.5 743.5 LINE"
);
}
);
vertWidth = 0;
width = 600;
},
{
anchors = (
{
name = bottom;
position = "{600, 0}";
},
{
name = center;
position = "{600, 526}";
},
{
name = top;
position = "{600, 1467}";
}
);
layerId = "426AEE65-830A-4D9C-AD83-8E047A05F635";
paths = (
{
closed = 1;
nodes = (
"70 733.5 LINE",
"70 0 LINE",
"228 0 LINE",
"228 363 LINE",
"258 402.5 OFFCURVE",
"287.5 426 OFFCURVE",
"321 426 CURVE SMOOTH",
"360 426 OFFCURVE",
"372 404.5 OFFCURVE",
"372 341.5 CURVE SMOOTH",
"372 0 LINE",
"530 0 LINE",
"530 386 LINE SMOOTH",
"530 485 OFFCURVE",
"478.5 542.5 OFFCURVE",
"384 542.5 CURVE SMOOTH",
"325.5 542.5 OFFCURVE",
"272.5 520 OFFCURVE",
"228 473.5 CURVE",
"228 749 LINE"
);
}
);
vertWidth = 0;
width = 600;
}
);
note = "";
unicode = 0068;
},
{
glyphname = hbar;
layers = (
{
anchors = (
{
name = bottom;
position = "{600, 0}";
},
{
name = center;
position = "{600, 526}";
},
{
name = top;
position = "{600, 1475}";
}
);
components = (
{
alignment = -1;
name = h;
transform = "{0.5, 0, 0, 0.5, 0, 0}";
}
);
layerId = "5A91C8AF-16C0-4BC2-89AA-7C90677D5BAF";
paths = (
{
closed = 1;
nodes = (
"109.5 658.5 LINE",
"22.5 658.5 LINE",
"22.5 599 LINE",
"171.5 599 LINE",
"349 599 LINE",
"349 658.5 LINE"
);
}
);
vertWidth = 0;
width = 600;
},
{
anchors = (
{
name = bottom;
position = "{600, 0}";
},
{
name = center;
position = "{600, 526}";
},
{
name = top;
position = "{600, 1467}";
}
);
components = (
{
alignment = -1;
name = h;
transform = "{0.5, 0, 0, 0.5, 0, 0}";
}
);
layerId = "426AEE65-830A-4D9C-AD83-8E047A05F635";
paths = (
{
closed = 1;
nodes = (
"70 678.5 LINE",
"8.5 678.5 LINE",
"8.5 586 LINE",
"228 586 LINE",
"368.5 586 LINE",
"368.5 678.5 LINE"
);
}
);
vertWidth = 0;
width = 600;
}
);
note = "";
unicode = 0127;
},
{
glyphname = i;
layers = (
{
anchors = (
{
name = bottom;
position = "{600, 0}";
}
);
layerId = "5A91C8AF-16C0-4BC2-89AA-7C90677D5BAF";
paths = (
{
closed = 1;
nodes = (
"136 525 LINE",
"136 471 LINE",
"297 471 LINE",
"297 54 LINE",
"131 54 LINE",
"131 0 LINE",
"511.5 0 LINE",
"511.5 54 LINE",
"359 54 LINE",
"359 525 LINE"
);
},
{
closed = 1;
nodes = (
"270.5 762.5 OFFCURVE",
"250 740.5 OFFCURVE",
"250 713 CURVE SMOOTH",
"250 683.5 OFFCURVE",
"270.5 661.5 OFFCURVE",
"300.5 661.5 CURVE SMOOTH",
"332.5 661.5 OFFCURVE",
"352.5 683.5 OFFCURVE",
"352.5 713 CURVE SMOOTH",
"352.5 740.5 OFFCURVE",
"332.5 762.5 OFFCURVE",
"300.5 762.5 CURVE SMOOTH"
);
}
);
vertWidth = 0;
width = 600;
},
{
anchors = (
{
name = bottom;
position = "{600, 0}";
}
);
layerId = "426AEE65-830A-4D9C-AD83-8E047A05F635";
paths = (
{
closed = 1;
nodes = (
"91 525 LINE",
"91 417.5 LINE",
"236.5 417.5 LINE",
"236.5 108 LINE",
"86 108 LINE",
"86 0 LINE",
"529.5 0 LINE",
"529.5 108 LINE",
"394.5 108 LINE",
"394.5 525 LINE"
);
},
{
closed = 1;
nodes = (
"243.5 800.5 OFFCURVE",
"205 762 OFFCURVE",
"205 712 CURVE SMOOTH",
"205 661.5 OFFCURVE",
"243.5 623 OFFCURVE",
"299 623 CURVE SMOOTH",
"353.5 623 OFFCURVE",
"392 662 OFFCURVE",
"392 712 CURVE SMOOTH",
"392 762 OFFCURVE",
"353.5 800.5 OFFCURVE",
"299 800.5 CURVE SMOOTH"
);
}
);
vertWidth = 0;
width = 600;
}
);
note = "";
unicode = 0069;
},
{
glyphname = idotless;
production = dotlessi;
layers = (
{
anchors = (
{
name = ogonek;
position = "{738, 0}";
},
{
name = top;
position = "{604, 1050}";
}
);
layerId = "5A91C8AF-16C0-4BC2-89AA-7C90677D5BAF";
paths = (
{
closed = 1;
nodes = (
"136 525 LINE",
"136 471 LINE",
"297 471 LINE",
"297 54 LINE",
"131 54 LINE",
"131 0 LINE",
"511.5 0 LINE",
"511.5 54 LINE",
"359 54 LINE",
"359 525 LINE"
);
}
);
vertWidth = 0;
width = 600;
},
{
anchors = (
{
name = ogonek;
position = "{809, 0}";
},
{
name = top;
position = "{598, 1050}";
}
);
layerId = "426AEE65-830A-4D9C-AD83-8E047A05F635";
paths = (
{
closed = 1;
nodes = (
"91 525 LINE",
"91 417.5 LINE",
"236.5 417.5 LINE",
"236.5 108 LINE",
"86 108 LINE",
"86 0 LINE",
"529.5 0 LINE",
"529.5 108 LINE",
"394.5 108 LINE",
"394.5 525 LINE"
);
}
);
vertWidth = 0;
width = 600;
}
);
note = "";
unicode = 0131;
},
{
glyphname = ij;
layers = (
{
layerId = "5A91C8AF-16C0-4BC2-89AA-7C90677D5BAF";
paths = (
{
closed = 1;
nodes = (
"57.5 525 LINE",
"57.5 473.5 LINE",
"153.5 473.5 LINE",
"153.5 54 LINE",
"52.5 54 LINE",
"52.5 0 LINE",
"320.5 0 LINE",
"320.5 54 LINE",
"212 54 LINE",
"212 473.5 LINE",
"427.5 473.5 LINE",
"427.5 32 LINE SMOOTH",
"427.5 -72 OFFCURVE",
"313 -123 OFFCURVE",
"228 -159 CURVE",
"245 -209 LINE",
"370.5 -167 OFFCURVE",
"487 -92 OFFCURVE",
"487 34.5 CURVE SMOOTH",
"487 525 LINE"
);
},
{
closed = 1;
nodes = (
"154.5 762.5 OFFCURVE",
"134 740.5 OFFCURVE",
"134 713 CURVE SMOOTH",
"134 683.5 OFFCURVE",
"154.5 661.5 OFFCURVE",
"185 661.5 CURVE SMOOTH",
"215 661.5 OFFCURVE",
"236 683.5 OFFCURVE",
"236 713 CURVE SMOOTH",
"236 740.5 OFFCURVE",
"215 762.5 OFFCURVE",
"185 762.5 CURVE SMOOTH"
);
},
{
closed = 1;
nodes = (
"415.5 762.5 OFFCURVE",
"395.5 740.5 OFFCURVE",
"395.5 713 CURVE SMOOTH",
"395.5 683.5 OFFCURVE",
"415.5 661.5 OFFCURVE",
"446 661.5 CURVE SMOOTH",
"476.5 661.5 OFFCURVE",
"497.5 683.5 OFFCURVE",
"497.5 713 CURVE SMOOTH",
"497.5 740.5 OFFCURVE",
"476.5 762.5 OFFCURVE",
"446 762.5 CURVE SMOOTH"
);
}
);
vertWidth = 0;
width = 600;
},
{
layerId = "426AEE65-830A-4D9C-AD83-8E047A05F635";
paths = (
{
closed = 1;
nodes = (
"40.5 525 LINE",
"40.5 418.5 LINE",
"104 418.5 LINE",
"104 108 LINE",
"35.5 108 LINE",
"35.5 0 LINE",
"312 0 LINE",
"312 108 LINE",
"260 108 LINE",
"260 418.5 LINE",
"388 418.5 LINE",
"388 108.5 LINE SMOOTH",
"388 -23 OFFCURVE",
"322.5 -63.5 OFFCURVE",
"192.5 -103 CURVE",
"245 -219 LINE",
"435.5 -162 OFFCURVE",
"545 -85 OFFCURVE",
"545 122 CURVE SMOOTH",
"545 525 LINE"
);
},
{
closed = 1;
nodes = (
"127.5 800.5 OFFCURVE",
"89 762 OFFCURVE",
"89 712 CURVE SMOOTH",
"89 661.5 OFFCURVE",
"127.5 623 OFFCURVE",
"182 623 CURVE SMOOTH",
"237.5 623 OFFCURVE",
"277 662 OFFCURVE",
"277 712 CURVE SMOOTH",
"277 762 OFFCURVE",
"237.5 800.5 OFFCURVE",
"182 800.5 CURVE SMOOTH"
);
},
{
closed = 1;
nodes = (
"401.5 800.5 OFFCURVE",
"361.5 762 OFFCURVE",
"361.5 712 CURVE SMOOTH",
"361.5 661.5 OFFCURVE",
"401.5 623 OFFCURVE",
"456 623 CURVE SMOOTH",
"510.5 623 OFFCURVE",
"550 662 OFFCURVE",
"550 712 CURVE SMOOTH",
"550 762 OFFCURVE",
"510.5 800.5 OFFCURVE",
"456 800.5 CURVE SMOOTH"
);
}
);
vertWidth = 0;
width = 600;
}
);
note = "";
unicode = 0133;
},
{
glyphname = j;
layers = (
{
anchors = (
{
name = bottom;
position = "{600, -386}";
},
{
name = top;
position = "{734, 1050}";
}
);
layerId = "5A91C8AF-16C0-4BC2-89AA-7C90677D5BAF";
paths = (
{
closed = 1;
nodes = (
"147.5 525 LINE",
"147.5 471 LINE",
"375 471 LINE",
"375 59.5 LINE SMOOTH",
"375 -78 OFFCURVE",
"257.5 -138 OFFCURVE",
"103.5 -160.5 CURVE",
"114 -209 LINE",
"315.5 -177.5 OFFCURVE",
"437 -96 OFFCURVE",
"437 64 CURVE SMOOTH",
"437 525 LINE"
);
},
{
closed = 1;
nodes = (
"335.5 762.5 OFFCURVE",
"315.5 740.5 OFFCURVE",
"315.5 713 CURVE SMOOTH",
"315.5 683.5 OFFCURVE",
"335.5 661.5 OFFCURVE",
"365.5 661.5 CURVE SMOOTH",
"397.5 661.5 OFFCURVE",
"418 683.5 OFFCURVE",
"418 713 CURVE SMOOTH",
"418 740.5 OFFCURVE",
"397.5 762.5 OFFCURVE",
"365.5 762.5 CURVE SMOOTH"
);
}
);
vertWidth = 0;
width = 600;
},
{
anchors = (
{
name = bottom;
position = "{600, -439}";
},
{
name = top;
position = "{740, 1050}";
}
);
layerId = "426AEE65-830A-4D9C-AD83-8E047A05F635";
paths = (
{
closed = 1;
nodes = (
"123.5 525 LINE",
"123.5 417.5 LINE",
"314.5 417.5 LINE",
"314.5 144 LINE SMOOTH",
"314.5 -9 OFFCURVE",
"230.5 -62.5 OFFCURVE",
"69.5 -99 CURVE",
"94.5 -219 LINE",
"342 -171 OFFCURVE",
"472.5 -75.5 OFFCURVE",
"472.5 154 CURVE SMOOTH",
"472.5 525 LINE"
);
},
{
closed = 1;
nodes = (
"314.5 800.5 OFFCURVE",
"276 762 OFFCURVE",
"276 712 CURVE SMOOTH",
"276 661.5 OFFCURVE",
"314.5 623 OFFCURVE",
"370 623 CURVE SMOOTH",
"424.5 623 OFFCURVE",
"463 662 OFFCURVE",
"463 712 CURVE SMOOTH",
"463 762 OFFCURVE",
"424.5 800.5 OFFCURVE",
"370 800.5 CURVE SMOOTH"
);
}
);
vertWidth = 0;
width = 600;
}
);
note = "";
unicode = 006A;
},
{
glyphname = dotlessj;
production = uni0237;
layers = (
{
anchors = (
{
name = top;
position = "{734, 1050}";
}
);
layerId = "5A91C8AF-16C0-4BC2-89AA-7C90677D5BAF";
paths = (
{
closed = 1;
nodes = (
"147.5 525 LINE",
"147.5 471 LINE",
"375 471 LINE",
"375 59.5 LINE SMOOTH",
"375 -78 OFFCURVE",
"257.5 -138 OFFCURVE",
"103.5 -160.5 CURVE",
"114 -209 LINE",
"315.5 -177.5 OFFCURVE",
"437 -96 OFFCURVE",
"437 64 CURVE SMOOTH",
"437 525 LINE"
);
}
);
vertWidth = 0;
width = 600;
},
{
anchors = (
{
name = top;
position = "{740, 1050}";
}
);
layerId = "426AEE65-830A-4D9C-AD83-8E047A05F635";
paths = (
{
closed = 1;
nodes = (
"123.5 525 LINE",
"123.5 417.5 LINE",
"314.5 417.5 LINE",
"314.5 144 LINE SMOOTH",
"314.5 -9 OFFCURVE",
"230.5 -62.5 OFFCURVE",
"69.5 -99 CURVE",
"94.5 -219 LINE",
"342 -171 OFFCURVE",
"472.5 -75.5 OFFCURVE",
"472.5 154 CURVE SMOOTH",
"472.5 525 LINE"
);
}
);
vertWidth = 0;
width = 600;
}
);
note = "";
unicode = 0237;
},
{
glyphname = k;
layers = (
{
anchors = (
{
name = bottom;
position = "{614, 0}";
},
{
name = top;
position = "{600, 1475}";
}
);
layerId = "5A91C8AF-16C0-4BC2-89AA-7C90677D5BAF";
paths = (
{
closed = 1;
nodes = (
"439.5 525 LINE",
"189 286.5 LINE",
"473.5 0 LINE",
"563 0 LINE",
"276.5 287.5 LINE",
"532 525 LINE"
);
},
{
closed = 1;
nodes = (
"116.5 737.5 LINE",
"116.5 0 LINE",
"178.5 0 LINE",
"178.5 746 LINE"
);
}
);
vertWidth = 0;
width = 600;
},
{
anchors = (
{
name = bottom;
position = "{600, 0}";
},
{
name = top;
position = "{600, 1467}";
}
);
layerId = "426AEE65-830A-4D9C-AD83-8E047A05F635";
paths = (
{
closed = 1;
nodes = (
"408.5 525 LINE",
"234 288 LINE",
"408.5 0 LINE",
"588.5 0 LINE",
"399.5 293 LINE",
"574 525 LINE"
);
},
{
closed = 1;
nodes = (
"70 733.5 LINE",
"70 0 LINE",
"228 0 LINE",
"228 750 LINE"
);
}
);
vertWidth = 0;
width = 600;
}
);
note = "";
unicode = 006B;
},
{
glyphname = kgreenlandic;
layers = (
{
anchors = (
{
name = bottom;
position = "{600, 0}";
},
{
name = top;
position = "{600, 1050}";
}
);
layerId = "5A91C8AF-16C0-4BC2-89AA-7C90677D5BAF";
paths = (
{
closed = 1;
nodes = (
"432.5 525 LINE",
"181.5 284.5 LINE",
"466 0 LINE",
"556 0 LINE",
"267 288.5 LINE",
"524.5 525 LINE"
);
},
{
closed = 1;
nodes = (
"109.5 525 LINE",
"109.5 0 LINE",
"171.5 0 LINE",
"171.5 525 LINE"
);
}
);
vertWidth = 0;
width = 600;
},
{
anchors = (
{
name = bottom;
position = "{600, 0}";
},
{
name = top;
position = "{600, 1050}";
}
);
layerId = "426AEE65-830A-4D9C-AD83-8E047A05F635";
paths = (
{
closed = 1;
nodes = (
"408.5 525 LINE",
"234 272.5 LINE",
"408 0 LINE",
"588.5 0 LINE",
"398.5 283.5 LINE",
"574 525 LINE"
);
},
{
closed = 1;
nodes = (
"70 525 LINE",
"70 0 LINE",
"228 0 LINE",
"228 525 LINE"
);
}
);
vertWidth = 0;
width = 600;
}
);
note = "";
unicode = 0138;
},
{
glyphname = l;
layers = (
{
anchors = (
{
name = bottom;
position = "{724, 0}";
},
{
name = center;
position = "{1116, 766}";
},
{
name = middle;
position = "{524, 766}";
},
{
name = top;
position = "{535, 1475}";
},
{
name = topright;
position = "{675, 1475}";
}
);
layerId = "5A91C8AF-16C0-4BC2-89AA-7C90677D5BAF";
paths = (
{
closed = 1;
nodes = (
"68 737.5 LINE",
"68 683.5 LINE",
"231 683.5 LINE",
"231 119 LINE SMOOTH",
"231 37 OFFCURVE",
"296.5 -10 OFFCURVE",
"379.5 -10 CURVE SMOOTH",
"428.5 -10 OFFCURVE",
"470 2 OFFCURVE",
"496 15 CURVE",
"478 63 LINE",
"447.5 51 OFFCURVE",
"418.5 44 OFFCURVE",
"385.5 44 CURVE SMOOTH",
"332 44 OFFCURVE",
"293 64.5 OFFCURVE",
"293 119 CURVE SMOOTH",
"293 737.5 LINE"
);
}
);
vertWidth = 0;
width = 600;
},
{
anchors = (
{
name = bottom;
position = "{710, 0}";
},
{
name = center;
position = "{1136, 757}";
},
{
name = middle;
position = "{536, 757}";
},
{
name = top;
position = "{512, 1467}";
},
{
name = topright;
position = "{754, 1467}";
}
);
layerId = "426AEE65-830A-4D9C-AD83-8E047A05F635";
paths = (
{
closed = 1;
nodes = (
"32.5 733.5 LINE",
"32.5 626 LINE",
"189 626 LINE",
"189 185.5 LINE SMOOTH",
"189 62.5 OFFCURVE",
"247 -17 OFFCURVE",
"375 -17 CURVE SMOOTH",
"442.5 -17 OFFCURVE",
"492.5 -1 OFFCURVE",
"528.5 18 CURVE",
"490.5 123 LINE",
"469 114.5 OFFCURVE",
"443 107.5 OFFCURVE",
"415.5 107.5 CURVE SMOOTH",
"373 107.5 OFFCURVE",
"347 124 OFFCURVE",
"347 166 CURVE SMOOTH",
"347 733.5 LINE"
);
}
);
vertWidth = 0;
width = 600;
}
);
note = "";
unicode = 006C;
},
{
glyphname = m;
layers = (
{
anchors = (
{
name = bottom;
position = "{600, 0}";
},
{
name = top;
position = "{600, 1050}";
}
);
layerId = "5A91C8AF-16C0-4BC2-89AA-7C90677D5BAF";
paths = (
{
closed = 1;
nodes = (
"387 534.5 OFFCURVE",
"355 505.5 OFFCURVE",
"327.5 463 CURVE",
"309.5 520.5 OFFCURVE",
"267.5 534.5 OFFCURVE",
"227.5 534.5 CURVE SMOOTH",
"173.5 534.5 OFFCURVE",
"139.5 500.5 OFFCURVE",
"112 461.5 CURVE",
"108.5 525 LINE",
"57.5 525 LINE",
"57.5 0 LINE",
"117.5 0 LINE",
"117.5 414 LINE",
"148.5 464.5 OFFCURVE",
"183 485.5 OFFCURVE",
"220.5 485.5 CURVE SMOOTH",
"263 485.5 OFFCURVE",
"265 454 OFFCURVE",
"265 379.5 CURVE SMOOTH",
"265 0 LINE",
"334 0 LINE",
"334 414 LINE",
"365 464.5 OFFCURVE",
"401 485.5 OFFCURVE",
"437 485.5 CURVE SMOOTH",
"479.5 485.5 OFFCURVE",
"481.5 454 OFFCURVE",
"481.5 379.5 CURVE SMOOTH",
"481.5 0 LINE",
"542.5 0 LINE",
"542.5 391.5 LINE SMOOTH",
"542.5 516.5 OFFCURVE",
"485.5 534.5 OFFCURVE",
"443 534.5 CURVE SMOOTH"
);
}
);
vertWidth = 0;
width = 600;
},
{
anchors = (
{
name = bottom;
position = "{600, 0}";
},
{
name = top;
position = "{600, 1050}";
}
);
layerId = "426AEE65-830A-4D9C-AD83-8E047A05F635";
paths = (
{
closed = 1;
nodes = (
"415.5 542.5 OFFCURVE",
"377.5 517 OFFCURVE",
"345.5 480.5 CURVE",
"333.5 523 OFFCURVE",
"304 542.5 OFFCURVE",
"264 542.5 CURVE SMOOTH",
"217 542.5 OFFCURVE",
"186 519 OFFCURVE",
"153 474.5 CURVE",
"142.5 525 LINE",
"26.5 525 LINE",
"26.5 0 LINE",
"164 0 LINE",
"164 386.5 LINE",
"184.5 412 OFFCURVE",
"202.5 420 OFFCURVE",
"219 420 CURVE SMOOTH",
"240.5 420 OFFCURVE",
"245.5 406.5 OFFCURVE",
"245.5 370.5 CURVE SMOOTH",
"245.5 0 LINE",
"356.5 0 LINE",
"356.5 386.5 LINE",
"377 412 OFFCURVE",
"395 420 OFFCURVE",
"411.5 420 CURVE SMOOTH",
"433 420 OFFCURVE",
"438 406.5 OFFCURVE",
"438 370.5 CURVE SMOOTH",
"438 0 LINE",
"573.5 0 LINE",
"573.5 388.5 LINE SMOOTH",
"573.5 496.5 OFFCURVE",
"538 542.5 OFFCURVE",
"462.5 542.5 CURVE SMOOTH"
);
}
);
vertWidth = 0;
width = 600;
}
);
note = "";
unicode = 006D;
},
{
glyphname = n;
layers = (
{
anchors = (
{
name = bottom;
position = "{602, 0}";
},
{
name = top;
position = "{599, 1050}";
}
);
layerId = "5A91C8AF-16C0-4BC2-89AA-7C90677D5BAF";
paths = (
{
closed = 1;
nodes = (
"171.5 0 LINE",
"171.5 387 LINE",
"198.5 429 OFFCURVE",
"257.5 483 OFFCURVE",
"328 483 CURVE SMOOTH",
"419.5 483 OFFCURVE",
"430 433.5 OFFCURVE",
"430 313.5 CURVE SMOOTH",
"430 0 LINE",
"492 0 LINE",
"492 380 LINE SMOOTH",
"492 476.5 OFFCURVE",
"450.5 534.5 OFFCURVE",
"343 534.5 CURVE SMOOTH",
"284 534.5 OFFCURVE",
"208 503 OFFCURVE",
"166.5 448.5 CURVE",
"161.5 525 LINE",
"109.5 525 LINE",
"109.5 0 LINE"
);
}
);
vertWidth = 0;
width = 600;
},
{
anchors = (
{
name = bottom;
position = "{602, 0}";
},
{
name = top;
position = "{602, 1050}";
}
);
layerId = "426AEE65-830A-4D9C-AD83-8E047A05F635";
paths = (
{
closed = 1;
nodes = (
"228 0 LINE",
"228 367 LINE",
"258 404.5 OFFCURVE",
"287.5 426 OFFCURVE",
"321 426 CURVE SMOOTH",
"360 426 OFFCURVE",
"372 404.5 OFFCURVE",
"372 341 CURVE SMOOTH",
"372 0 LINE",
"530 0 LINE",
"530 386 LINE SMOOTH",
"530 485 OFFCURVE",
"474.5 542.5 OFFCURVE",
"384 542.5 CURVE SMOOTH",
"317 542.5 OFFCURVE",
"266 517 OFFCURVE",
"219 464.5 CURVE",
"208 525 LINE",
"70 525 LINE",
"70 0 LINE"
);
}
);
vertWidth = 0;
width = 600;
}
);
note = "";
unicode = 006E;
},
{
glyphname = napostrophe;
layers = (
{
anchors = (
{
name = bottom;
position = "{613, 0}";
},
{
name = top;
position = "{610, 1050}";
}
);
components = (
{
alignment = -1;
name = n;
transform = "{0.5, 0, 0, 0.5, 5.5, 0}";
}
);
layerId = "5A91C8AF-16C0-4BC2-89AA-7C90677D5BAF";
paths = (
{
closed = 1;
nodes = (
"38 748 OFFCURVE",
"15 729 OFFCURVE",
"15 700.5 CURVE SMOOTH",
"15 686 OFFCURVE",
"23.5 671.5 OFFCURVE",
"35.5 660.5 CURVE",
"3 533.5 LINE",
"44.5 533.5 LINE",
"85.5 622 LINE SMOOTH",
"109.5 673 OFFCURVE",
"113 687.5 OFFCURVE",
"113 700.5 CURVE SMOOTH",
"113 727.5 OFFCURVE",
"91.5 748 OFFCURVE",
"65 748 CURVE SMOOTH"
);
}
);
vertWidth = 0;
width = 600;
},
{
anchors = (
{
name = bottom;
position = "{641, 0}";
},
{
name = top;
position = "{641, 1050}";
}
);
components = (
{
alignment = -1;
name = n;
transform = "{0.5, 0, 0, 0.5, 19.5, 0}";
}
);
layerId = "426AEE65-830A-4D9C-AD83-8E047A05F635";
paths = (
{
closed = 1;
nodes = (
"15.5 755 OFFCURVE",
"-17.5 721 OFFCURVE",
"-17.5 681 CURVE SMOOTH",
"-17.5 652.5 OFFCURVE",
"-3.5 633 OFFCURVE",
"14.5 619 CURVE",
"-7 529 LINE",
"71.5 529 LINE",
"112.5 608 LINE SMOOTH",
"127.5 637 OFFCURVE",
"135.5 655.5 OFFCURVE",
"135.5 681 CURVE SMOOTH",
"135.5 723.5 OFFCURVE",
"103 755 OFFCURVE",
"59 755 CURVE SMOOTH"
);
}
);
vertWidth = 0;
width = 600;
}
);
note = "";
unicode = 0149;
},
{
glyphname = eng;
layers = (
{
layerId = "5A91C8AF-16C0-4BC2-89AA-7C90677D5BAF";
paths = (
{
closed = 1;
nodes = (
"492 380 LINE SMOOTH",
"492 476.5 OFFCURVE",
"448.5 534.5 OFFCURVE",
"343 534.5 CURVE SMOOTH",
"281.5 534.5 OFFCURVE",
"208 503 OFFCURVE",
"166.5 448.5 CURVE",
"161.5 525 LINE",
"109.5 525 LINE",
"109.5 0 LINE",
"171.5 0 LINE",
"171.5 388.5 LINE",
"198.5 430 OFFCURVE",
"259 483 OFFCURVE",
"327 483 CURVE SMOOTH",
"420.5 483 OFFCURVE",
"430 433.5 OFFCURVE",
"430 313.5 CURVE SMOOTH",
"430 15 LINE SMOOTH",
"430 -105.5 OFFCURVE",
"398.5 -130 OFFCURVE",
"329.5 -162.5 CURVE",
"354 -207.5 LINE",
"450.5 -163 OFFCURVE",
"492 -122.5 OFFCURVE",
"492 19 CURVE SMOOTH"
);
}
);
vertWidth = 0;
width = 600;
},
{
layerId = "426AEE65-830A-4D9C-AD83-8E047A05F635";
paths = (
{
closed = 1;
nodes = (
"530 386 LINE SMOOTH",
"530 485 OFFCURVE",
"478.5 542.5 OFFCURVE",
"384 542.5 CURVE SMOOTH",
"321.5 542.5 OFFCURVE",
"266 517 OFFCURVE",
"219 464.5 CURVE",
"208 525 LINE",
"70 525 LINE",
"70 0 LINE",
"228 0 LINE",
"228 363 LINE",
"258 402.5 OFFCURVE",
"287.5 426 OFFCURVE",
"321 426 CURVE SMOOTH",
"361 426 OFFCURVE",
"372 404.5 OFFCURVE",
"372 341 CURVE SMOOTH",
"372 50.5 LINE SMOOTH",
"372 -44.5 OFFCURVE",
"332 -74.5 OFFCURVE",
"263.5 -104 CURVE",
"318.5 -219.5 LINE",
"445.5 -168.5 OFFCURVE",
"530 -113 OFFCURVE",
"530 60 CURVE SMOOTH"
);
}
);
vertWidth = 0;
width = 600;
}
);
note = "";
unicode = 014B;
},
{
glyphname = o;
layers = (
{
anchors = (
{
name = bottom;
position = "{600, 0}";
},
{
name = top;
position = "{600, 1050}";
}
);
layerId = "5A91C8AF-16C0-4BC2-89AA-7C90677D5BAF";
paths = (
{
closed = 1;
nodes = (
"157 534.5 OFFCURVE",
"83 422 OFFCURVE",
"83 261.5 CURVE SMOOTH",
"83 100 OFFCURVE",
"155.5 -10 OFFCURVE",
"300 -10 CURVE SMOOTH",
"443 -10 OFFCURVE",
"517 106.5 OFFCURVE",
"517 262.5 CURVE SMOOTH",
"517 428.5 OFFCURVE",
"445.5 534.5 OFFCURVE",
"301.5 534.5 CURVE SMOOTH"
);
},
{
closed = 1;
nodes = (
"398.5 480 OFFCURVE",
"449 410 OFFCURVE",
"449 262.5 CURVE SMOOTH",
"449 116 OFFCURVE",
"398.5 45 OFFCURVE",
"300 45 CURVE SMOOTH",
"201.5 45 OFFCURVE",
"151 116 OFFCURVE",
"151 261.5 CURVE SMOOTH",
"151 410 OFFCURVE",
"203 480 OFFCURVE",
"301.5 480 CURVE SMOOTH"
);
}
);
vertWidth = 0;
width = 600;
},
{
anchors = (
{
name = bottom;
position = "{600, 0}";
},
{
name = top;
position = "{600, 1050}";
}
);
layerId = "426AEE65-830A-4D9C-AD83-8E047A05F635";
paths = (
{
closed = 1;
nodes = (
"137.5 542.5 OFFCURVE",
"42 430 OFFCURVE",
"42 263 CURVE SMOOTH",
"42 86.5 OFFCURVE",
"137.5 -17 OFFCURVE",
"300 -17 CURVE SMOOTH",
"462.5 -17 OFFCURVE",
"558 88.5 OFFCURVE",
"558 264 CURVE SMOOTH",
"558 432 OFFCURVE",
"463.5 542.5 OFFCURVE",
"300 542.5 CURVE SMOOTH"
);
},
{
closed = 1;
nodes = (
"364.5 426 OFFCURVE",
"395 376.5 OFFCURVE",
"395 264 CURVE SMOOTH",
"395 147.5 OFFCURVE",
"364.5 99 OFFCURVE",
"300 99 CURVE SMOOTH",
"235.5 99 OFFCURVE",
"205 147.5 OFFCURVE",
"205 263 CURVE SMOOTH",
"205 376.5 OFFCURVE",
"235.5 426 OFFCURVE",
"300 426 CURVE SMOOTH"
);
}
);
vertWidth = 0;
width = 600;
}
);
note = "";
unicode = 006F;
},
{
glyphname = oslash;
layers = (
{
anchors = (
{
name = top;
position = "{600, 1050}";
}
);
layerId = "5A91C8AF-16C0-4BC2-89AA-7C90677D5BAF";
paths = (
{
closed = 1;
nodes = (
"157 534.5 OFFCURVE",
"83 422 OFFCURVE",
"83 261.5 CURVE SMOOTH",
"83 100 OFFCURVE",
"163 -10 OFFCURVE",
"300 -10 CURVE SMOOTH",
"443 -10 OFFCURVE",
"517 106.5 OFFCURVE",
"517 262.5 CURVE SMOOTH",
"517 428.5 OFFCURVE",
"438 534.5 OFFCURVE",
"301.5 534.5 CURVE SMOOTH"
);
},
{
closed = 1;
nodes = (
"354 524.5 LINE",
"345.5 495.5 LINE",
"213 64 LINE",
"197.5 30 LINE",
"151 -111.5 LINE",
"207.5 -128.5 LINE",
"246 3 LINE",
"261 48.5 LINE",
"394 481.5 LINE",
"406 500.5 LINE",
"450.5 635 LINE",
"393.5 651.5 LINE"
);
},
{
closed = 1;
nodes = (
"393 478.5 OFFCURVE",
"447.5 418.5 OFFCURVE",
"447.5 262.5 CURVE SMOOTH",
"447.5 117 OFFCURVE",
"397.5 46.5 OFFCURVE",
"300 46.5 CURVE SMOOTH",
"207 46.5 OFFCURVE",
"152.5 107 OFFCURVE",
"152.5 261.5 CURVE SMOOTH",
"152.5 408.5 OFFCURVE",
"204 478.5 OFFCURVE",
"301.5 478.5 CURVE SMOOTH"
);
}
);
vertWidth = 0;
width = 600;
},
{
anchors = (
{
name = top;
position = "{600, 1050}";
}
);
layerId = "426AEE65-830A-4D9C-AD83-8E047A05F635";
paths = (
{
closed = 1;
nodes = (
"137.5 542.5 OFFCURVE",
"42 430 OFFCURVE",
"42 263 CURVE SMOOTH",
"42 86.5 OFFCURVE",
"137.5 -17 OFFCURVE",
"300 -17 CURVE SMOOTH",
"462.5 -17 OFFCURVE",
"558 88.5 OFFCURVE",
"558 264 CURVE SMOOTH",
"558 432 OFFCURVE",
"463.5 542.5 OFFCURVE",
"300 542.5 CURVE SMOOTH"
);
},
{
closed = 1;
nodes = (
"328.5 532.5 LINE",
"321.5 446 LINE",
"216 121.5 LINE",
"161 32.5 LINE",
"115.5 -101.5 LINE",
"231.5 -135.5 LINE",
"271.5 -7 LINE",
"280.5 78 LINE",
"384 396.5 LINE",
"441.5 493.5 LINE",
"484.5 622 LINE",
"369.5 655.5 LINE"
);
},
{
closed = 1;
nodes = (
"377.5 429.5 OFFCURVE",
"398 389.5 OFFCURVE",
"398 264 CURVE SMOOTH",
"398 144.5 OFFCURVE",
"367.5 96 OFFCURVE",
"300 96 CURVE SMOOTH",
"222.5 96 OFFCURVE",
"202 135 OFFCURVE",
"202 263 CURVE SMOOTH",
"202 379.5 OFFCURVE",
"232.5 429.5 OFFCURVE",
"300 429.5 CURVE SMOOTH"
);
}
);
vertWidth = 0;
width = 600;
}
);
note = "";
unicode = 00F8;
},
{
glyphname = oe;
layers = (
{
layerId = "5A91C8AF-16C0-4BC2-89AA-7C90677D5BAF";
paths = (
{
closed = 1;
nodes = (
"375 534.5 OFFCURVE",
"334 487.5 OFFCURVE",
"311 425.5 CURVE",
"288 490.5 OFFCURVE",
"251 534.5 OFFCURVE",
"164.5 534.5 CURVE SMOOTH",
"48 534.5 OFFCURVE",
"-1 422 OFFCURVE",
"-1 261.5 CURVE SMOOTH",
"-1 100 OFFCURVE",
"50.5 -10 OFFCURVE",
"164.5 -10 CURVE SMOOTH",
"247 -10 OFFCURVE",
"285 34.5 OFFCURVE",
"310.5 98 CURVE",
"335.5 29.5 OFFCURVE",
"385.5 -10 OFFCURVE",
"460 -10 CURVE SMOOTH",
"513 -10 OFFCURVE",
"551 10 OFFCURVE",
"591.5 41.5 CURVE",
"559 92.5 LINE",
"524 66 OFFCURVE",
"499 50.5 OFFCURVE",
"459 50.5 CURVE SMOOTH",
"385.5 50.5 OFFCURVE",
"354 108.5 OFFCURVE",
"344.5 234.5 CURVE",
"616 234.5 LINE",
"616.5 246.5 OFFCURVE",
"617.5 262.5 OFFCURVE",
"617.5 280.5 CURVE SMOOTH",
"617.5 436 OFFCURVE",
"567 534.5 OFFCURVE",
"452.5 534.5 CURVE SMOOTH"
);
},
{
closed = 1;
nodes = (
"247 481.5 OFFCURVE",
"273 408.5 OFFCURVE",
"273 262.5 CURVE SMOOTH",
"273 106 OFFCURVE",
"248.5 45 OFFCURVE",
"176 45 CURVE SMOOTH",
"104.5 45 OFFCURVE",
"76.5 112 OFFCURVE",
"76.5 261.5 CURVE SMOOTH",
"76.5 407 OFFCURVE",
"104.5 481.5 OFFCURVE",
"176 481.5 CURVE SMOOTH"
);
},
{
closed = 1;
nodes = (
"522.5 473.5 OFFCURVE",
"544 410.5 OFFCURVE",
"546.5 294.5 CURVE",
"345 294.5 LINE",
"354.5 426 OFFCURVE",
"384.5 473.5 OFFCURVE",
"450.5 473.5 CURVE SMOOTH"
);
}
);
vertWidth = 0;
width = 600;
},
{
layerId = "426AEE65-830A-4D9C-AD83-8E047A05F635";
paths = (
{
closed = 1;
nodes = (
"371.5 542.5 OFFCURVE",
"331 509 OFFCURVE",
"305 460.5 CURVE",
"281 512 OFFCURVE",
"244 542.5 OFFCURVE",
"176 542.5 CURVE SMOOTH",
"48 542.5 OFFCURVE",
"-8 429.5 OFFCURVE",
"-8 263 CURVE SMOOTH",
"-8 86.5 OFFCURVE",
"49 -17 OFFCURVE",
"176 -17 CURVE SMOOTH",
"241 -17 OFFCURVE",
"278 13 OFFCURVE",
"302 61 CURVE",
"334 12 OFFCURVE",
"384 -17 OFFCURVE",
"454 -17 CURVE SMOOTH",
"519 -17 OFFCURVE",
"566 6.5 OFFCURVE",
"605.5 39.5 CURVE",
"546.5 118.5 LINE",
"517.5 98 OFFCURVE",
"493 86.5 OFFCURVE",
"462 86.5 CURVE SMOOTH",
"406.5 86.5 OFFCURVE",
"376.5 128.5 OFFCURVE",
"368.5 223.5 CURVE",
"603.5 223.5 LINE",
"605 239.5 OFFCURVE",
"606 255 OFFCURVE",
"606 273 CURVE SMOOTH",
"606 446.5 OFFCURVE",
"561 542.5 OFFCURVE",
"438.5 542.5 CURVE SMOOTH"
);
},
{
closed = 1;
nodes = (
"224.5 426 OFFCURVE",
"240.5 382.5 OFFCURVE",
"240.5 264 CURVE SMOOTH",
"240.5 137.5 OFFCURVE",
"224.5 99 OFFCURVE",
"182 99 CURVE SMOOTH",
"138.5 99 OFFCURVE",
"123 139.5 OFFCURVE",
"123 263 CURVE SMOOTH",
"123 382.5 OFFCURVE",
"138.5 426 OFFCURVE",
"182 426 CURVE SMOOTH"
);
},
{
closed = 1;
nodes = (
"476 444 OFFCURVE",
"486 401.5 OFFCURVE",
"487 308.5 CURVE",
"367.5 308.5 LINE",
"372.5 411 OFFCURVE",
"393 444 OFFCURVE",
"432.5 444 CURVE SMOOTH"
);
}
);
vertWidth = 0;
width = 600;
}
);
note = "";
unicode = 0153;
},
{
glyphname = p;
layers = (
{
anchors = (
{
name = bottom;
position = "{600, -386}";
},
{
name = top;
position = "{600, 1050}";
}
);
layerId = "5A91C8AF-16C0-4BC2-89AA-7C90677D5BAF";
paths = (
{
closed = 1;
nodes = (
"260 534.5 OFFCURVE",
"205 501 OFFCURVE",
"167.5 447.5 CURVE",
"160.5 525 LINE",
"109.5 525 LINE",
"109.5 -209 LINE",
"171.5 -200.5 LINE",
"171.5 52.5 LINE",
"207.5 10.5 OFFCURVE",
"255.5 -10 OFFCURVE",
"314.5 -10 CURVE SMOOTH",
"453.5 -10 OFFCURVE",
"517 104.5 OFFCURVE",
"517 262.5 CURVE SMOOTH",
"517 425.5 OFFCURVE",
"468.5 534.5 OFFCURVE",
"327.5 534.5 CURVE SMOOTH"
);
},
{
closed = 1;
nodes = (
"408.5 481.5 OFFCURVE",
"449 403 OFFCURVE",
"449 263.5 CURVE SMOOTH",
"449 117 OFFCURVE",
"401.5 46.5 OFFCURVE",
"304.5 46.5 CURVE SMOOTH",
"250 46.5 OFFCURVE",
"200.5 74.5 OFFCURVE",
"171.5 118 CURVE",
"171.5 390 LINE",
"201.5 434 OFFCURVE",
"251.5 481.5 OFFCURVE",
"316.5 481.5 CURVE SMOOTH"
);
}
);
vertWidth = 0;
width = 600;
},
{
anchors = (
{
name = bottom;
position = "{600, -439}";
},
{
name = top;
position = "{600, 1050}";
}
);
layerId = "426AEE65-830A-4D9C-AD83-8E047A05F635";
paths = (
{
closed = 1;
nodes = (
"314 542.5 OFFCURVE",
"260 521 OFFCURVE",
"217 466.5 CURVE",
"210 525 LINE",
"70 525 LINE",
"70 -219 LINE",
"228 -203 LINE",
"228 38 LINE",
"260 2 OFFCURVE",
"301.5 -17 OFFCURVE",
"354 -17 CURVE SMOOTH",
"483.5 -17 OFFCURVE",
"558 102 OFFCURVE",
"558 264 CURVE SMOOTH",
"558 434.5 OFFCURVE",
"502.5 542.5 OFFCURVE",
"364 542.5 CURVE SMOOTH"
);
},
{
closed = 1;
nodes = (
"365 426 OFFCURVE",
"395 392 OFFCURVE",
"395 262 CURVE SMOOTH",
"395 144.5 OFFCURVE",
"362 99 OFFCURVE",
"306 99 CURVE SMOOTH",
"272.5 99 OFFCURVE",
"250 113.5 OFFCURVE",
"228 145.5 CURVE",
"228 366 LINE",
"250.5 402.5 OFFCURVE",
"278 426 OFFCURVE",
"315 426 CURVE SMOOTH"
);
}
);
vertWidth = 0;
width = 600;
}
);
leftMetricsKey = b;
note = "";
unicode = 0070;
},
{
glyphname = thorn;
layers = (
{
anchors = (
{
name = bottom;
position = "{600, -386}";
},
{
name = top;
position = "{600, 1475}";
}
);
layerId = "5A91C8AF-16C0-4BC2-89AA-7C90677D5BAF";
paths = (
{
closed = 1;
nodes = (
"109.5 737.5 LINE",
"109.5 -209 LINE",
"171.5 -200.5 LINE",
"171.5 52.5 LINE",
"207.5 10.5 OFFCURVE",
"255.5 -10 OFFCURVE",
"314.5 -10 CURVE SMOOTH",
"453.5 -10 OFFCURVE",
"517 104.5 OFFCURVE",
"517 262.5 CURVE SMOOTH",
"517 425.5 OFFCURVE",
"468.5 534.5 OFFCURVE",
"327.5 534.5 CURVE SMOOTH",
"267 534.5 OFFCURVE",
"212 507 OFFCURVE",
"171.5 456.5 CURVE",
"171.5 746 LINE"
);
},
{
closed = 1;
nodes = (
"408.5 481.5 OFFCURVE",
"449 403 OFFCURVE",
"449 263.5 CURVE SMOOTH",
"449 117 OFFCURVE",
"401.5 46.5 OFFCURVE",
"304.5 46.5 CURVE SMOOTH",
"250 46.5 OFFCURVE",
"200.5 74.5 OFFCURVE",
"171.5 118 CURVE",
"171.5 390 LINE",
"201.5 434 OFFCURVE",
"251.5 481.5 OFFCURVE",
"316.5 481.5 CURVE SMOOTH"
);
}
);
vertWidth = 0;
width = 600;
},
{
anchors = (
{
name = bottom;
position = "{600, -439}";
},
{
name = top;
position = "{600, 1467}";
}
);
layerId = "426AEE65-830A-4D9C-AD83-8E047A05F635";
paths = (
{
closed = 1;
nodes = (
"70 733.5 LINE",
"70 -219 LINE",
"228 -203 LINE",
"228 38 LINE",
"260 2 OFFCURVE",
"301.5 -17 OFFCURVE",
"354 -17 CURVE SMOOTH",
"483.5 -17 OFFCURVE",
"558 102 OFFCURVE",
"558 264 CURVE SMOOTH",
"558 434.5 OFFCURVE",
"502.5 542.5 OFFCURVE",
"364 542.5 CURVE SMOOTH",
"308.5 542.5 OFFCURVE",
"260.5 517.5 OFFCURVE",
"228 472.5 CURVE",
"228 750 LINE"
);
},
{
closed = 1;
nodes = (
"365 426 OFFCURVE",
"395 392 OFFCURVE",
"395 262 CURVE SMOOTH",
"395 144.5 OFFCURVE",
"362 99 OFFCURVE",
"306 99 CURVE SMOOTH",
"272.5 99 OFFCURVE",
"250 113.5 OFFCURVE",
"228 145.5 CURVE",
"228 366 LINE",
"250.5 402.5 OFFCURVE",
"278 426 OFFCURVE",
"315 426 CURVE SMOOTH"
);
}
);
vertWidth = 0;
width = 600;
}
);
note = "";
unicode = 00FE;
},
{
glyphname = q;
layers = (
{
anchors = (
{
name = bottom;
position = "{600, -386}";
},
{
name = top;
position = "{600, 1050}";
}
);
layerId = "5A91C8AF-16C0-4BC2-89AA-7C90677D5BAF";
paths = (
{
closed = 1;
nodes = (
"151 534.5 OFFCURVE",
"83 418 OFFCURVE",
"83 261 CURVE SMOOTH",
"83 98 OFFCURVE",
"133.5 -10 OFFCURVE",
"277 -10 CURVE SMOOTH",
"332.5 -10 OFFCURVE",
"387.5 14 OFFCURVE",
"428.5 73 CURVE",
"428.5 -200.5 LINE",
"490.5 -209 LINE",
"490.5 525 LINE",
"438.5 525 LINE",
"431.5 463 LINE",
"395 509.5 OFFCURVE",
"346.5 534.5 OFFCURVE",
"280 534.5 CURVE SMOOTH"
);
},
{
closed = 1;
nodes = (
"349.5 481 OFFCURVE",
"399 453.5 OFFCURVE",
"428.5 406.5 CURVE",
"428.5 133.5 LINE",
"398 88.5 OFFCURVE",
"349.5 46 OFFCURVE",
"284.5 46 CURVE SMOOTH",
"193.5 46 OFFCURVE",
"151 123.5 OFFCURVE",
"151 261.5 CURVE SMOOTH",
"151 406.5 OFFCURVE",
"198.5 481 OFFCURVE",
"294.5 481 CURVE SMOOTH"
);
}
);
vertWidth = 0;
width = 600;
},
{
anchors = (
{
name = bottom;
position = "{600, -439}";
},
{
name = top;
position = "{600, 1050}";
}
);
layerId = "426AEE65-830A-4D9C-AD83-8E047A05F635";
paths = (
{
closed = 1;
nodes = (
"118.5 542.5 OFFCURVE",
"42 425.5 OFFCURVE",
"42 264 CURVE SMOOTH",
"42 94 OFFCURVE",
"99.5 -17 OFFCURVE",
"236 -17 CURVE SMOOTH",
"299 -17 OFFCURVE",
"341 8 OFFCURVE",
"372 43.5 CURVE",
"372 -203 LINE",
"530 -219 LINE",
"530 525 LINE",
"392 525 LINE",
"385 483.5 LINE",
"353 522 OFFCURVE",
"306.5 542.5 OFFCURVE",
"254.5 542.5 CURVE SMOOTH"
);
},
{
closed = 1;
nodes = (
"328.5 427 OFFCURVE",
"351 411.5 OFFCURVE",
"372 385 CURVE",
"372 159 LINE",
"349.5 121 OFFCURVE",
"322 100 OFFCURVE",
"286 100 CURVE SMOOTH",
"237 100 OFFCURVE",
"205 134 OFFCURVE",
"205 263 CURVE SMOOTH",
"205 380.5 OFFCURVE",
"238 427 OFFCURVE",
"296 427 CURVE SMOOTH"
);
}
);
vertWidth = 0;
width = 600;
}
);
note = "";
unicode = 0071;
},
{
glyphname = r;
layers = (
{
anchors = (
{
name = bottom;
position = "{462, 0}";
},
{
name = top;
position = "{664, 1050}";
}
);
layerId = "5A91C8AF-16C0-4BC2-89AA-7C90677D5BAF";
paths = (
{
closed = 1;
nodes = (
"370 0 LINE",
"370 52 LINE",
"262 52 LINE",
"262 296 LINE",
"299.5 420.5 OFFCURVE",
"357.5 476 OFFCURVE",
"442.5 476 CURVE SMOOTH",
"465 476 OFFCURVE",
"480 473 OFFCURVE",
"503.5 466.5 CURVE",
"521 525 LINE",
"497 531 OFFCURVE",
"477.5 535.5 OFFCURVE",
"450 535.5 CURVE SMOOTH",
"352 535.5 OFFCURVE",
"300 484.5 OFFCURVE",
"259 399 CURVE",
"247.5 525 LINE",
"114.5 525 LINE",
"114.5 472.5 LINE",
"200 472.5 LINE",
"200 52 LINE",
"114.5 52 LINE",
"114.5 0 LINE"
);
},
{
closed = 1;
nodes = (
"514 360 LINE",
"521 525 LINE",
"458 525 LINE",
"454 462.5 LINE",
"454 360 LINE"
);
}
);
vertWidth = 0;
width = 600;
},
{
anchors = (
{
name = bottom;
position = "{448, 0}";
},
{
name = top;
position = "{650, 1050}";
}
);
layerId = "426AEE65-830A-4D9C-AD83-8E047A05F635";
paths = (
{
closed = 1;
nodes = (
"408 0 LINE",
"408 106 LINE",
"303 106 LINE",
"303 254.5 LINE",
"330.5 340 OFFCURVE",
"384.5 402.5 OFFCURVE",
"454 402.5 CURVE SMOOTH",
"477.5 402.5 OFFCURVE",
"495.5 399.5 OFFCURVE",
"515 394.5 CURVE",
"563 525 LINE",
"538 535 OFFCURVE",
"511.5 541 OFFCURVE",
"475.5 541 CURVE SMOOTH",
"390 541 OFFCURVE",
"332.5 497 OFFCURVE",
"294.5 407 CURVE",
"265.5 525 LINE",
"75 525 LINE",
"75 420.5 LINE",
"145 420.5 LINE",
"145 106 LINE",
"75 106 LINE",
"75 0 LINE"
);
},
{
closed = 1;
nodes = (
"533.5 304.5 LINE",
"563 525 LINE",
"458 525 LINE",
"434.5 459 LINE",
"434.5 304.5 LINE"
);
}
);
vertWidth = 0;
width = 600;
}
);
note = "";
unicode = 0072;
},
{
glyphname = s;
layers = (
{
anchors = (
{
name = bottom;
position = "{590, 0}";
},
{
name = top;
position = "{612, 1050}";
}
);
layerId = "5A91C8AF-16C0-4BC2-89AA-7C90677D5BAF";
paths = (
{
closed = 1;
nodes = (
"216.5 46.5 OFFCURVE",
"161 69 OFFCURVE",
"120 104 CURVE",
"81.5 58.5 LINE",
"123.5 22 OFFCURVE",
"185.5 -10 OFFCURVE",
"278 -10 CURVE SMOOTH",
"384 -10 OFFCURVE",
"491.5 30.5 OFFCURVE",
"491.5 141.5 CURVE SMOOTH",
"491.5 238.5 OFFCURVE",
"423 275 OFFCURVE",
"320 302.5 CURVE SMOOTH",
"213 331 OFFCURVE",
"176 349.5 OFFCURVE",
"176 402 CURVE SMOOTH",
"176 446.5 OFFCURVE",
"209 479.5 OFFCURVE",
"301.5 479.5 CURVE SMOOTH",
"374 479.5 OFFCURVE",
"417.5 459 OFFCURVE",
"456 432 CURVE",
"485 478 LINE",
"443.5 509 OFFCURVE",
"383 534.5 OFFCURVE",
"301 534.5 CURVE SMOOTH",
"191.5 534.5 OFFCURVE",
"110.5 483.5 OFFCURVE",
"110.5 397 CURVE SMOOTH",
"110.5 306 OFFCURVE",
"181.5 276 OFFCURVE",
"294.5 248.5 CURVE SMOOTH",
"407.5 221 OFFCURVE",
"422 191.5 OFFCURVE",
"422 140 CURVE SMOOTH",
"422 84 OFFCURVE",
"368 46.5 OFFCURVE",
"278.5 46.5 CURVE SMOOTH"
);
}
);
vertWidth = 0;
width = 600;
},
{
anchors = (
{
name = bottom;
position = "{602, 0}";
},
{
name = top;
position = "{626, 1050}";
}
);
layerId = "426AEE65-830A-4D9C-AD83-8E047A05F635";
paths = (
{
closed = 1;
nodes = (
"220.5 96 OFFCURVE",
"167.5 120 OFFCURVE",
"127 151 CURVE",
"47.5 62.5 LINE",
"102 15 OFFCURVE",
"181 -17 OFFCURVE",
"284 -17 CURVE SMOOTH",
"419 -17 OFFCURVE",
"535 41.5 OFFCURVE",
"535 157 CURVE SMOOTH",
"535 260.5 OFFCURVE",
"467 294.5 OFFCURVE",
"366.5 323 CURVE SMOOTH",
"260.5 353 OFFCURVE",
"239.5 363.5 OFFCURVE",
"239.5 390.5 CURVE SMOOTH",
"239.5 417.5 OFFCURVE",
"264 430.5 OFFCURVE",
"315.5 430.5 CURVE SMOOTH",
"366.5 430.5 OFFCURVE",
"418.5 413 OFFCURVE",
"463 386 CURVE",
"526 478.5 LINE",
"474 516 OFFCURVE",
"405.5 542.5 OFFCURVE",
"311 542.5 CURVE SMOOTH",
"161.5 542.5 OFFCURVE",
"80.5 473.5 OFFCURVE",
"80.5 380 CURVE SMOOTH",
"80.5 287 OFFCURVE",
"147.5 244.5 OFFCURVE",
"244.5 218.5 CURVE SMOOTH",
"351 190 OFFCURVE",
"371 178 OFFCURVE",
"371 144.5 CURVE SMOOTH",
"371 112 OFFCURVE",
"335.5 96 OFFCURVE",
"283 96 CURVE SMOOTH"
);
}
);
vertWidth = 0;
width = 600;
}
);
note = "";
unicode = 0073;
},
{
glyphname = germandbls;
layers = (
{
layerId = "5A91C8AF-16C0-4BC2-89AA-7C90677D5BAF";
paths = (
{
closed = 1;
nodes = (
"181 746 OFFCURVE",
"106.5 675.5 OFFCURVE",
"106.5 534 CURVE SMOOTH",
"106.5 0 LINE",
"168.5 0 LINE",
"168.5 539.5 LINE SMOOTH",
"168.5 651.5 OFFCURVE",
"216.5 691.5 OFFCURVE",
"298.5 691.5 CURVE SMOOTH",
"382.5 691.5 OFFCURVE",
"405.5 635 OFFCURVE",
"405.5 597.5 CURVE SMOOTH",
"405.5 522.5 OFFCURVE",
"276.5 520 OFFCURVE",
"276.5 422.5 CURVE SMOOTH",
"276.5 291.5 OFFCURVE",
"489.5 294.5 OFFCURVE",
"489.5 161 CURVE SMOOTH",
"489.5 80.5 OFFCURVE",
"441.5 42.5 OFFCURVE",
"366 42.5 CURVE SMOOTH",
"333.5 42.5 OFFCURVE",
"295.5 53.5 OFFCURVE",
"269.5 69 CURVE",
"240.5 25.5 LINE",
"275.5 2 OFFCURVE",
"316.5 -10 OFFCURVE",
"370 -10 CURVE SMOOTH",
"466 -10 OFFCURVE",
"552 51.5 OFFCURVE",
"552 166.5 CURVE SMOOTH",
"552 333.5 OFFCURVE",
"343.5 337.5 OFFCURVE",
"343.5 427.5 CURVE SMOOTH",
"343.5 490 OFFCURVE",
"463.5 506 OFFCURVE",
"463.5 606 CURVE SMOOTH",
"463.5 690 OFFCURVE",
"393.5 746 OFFCURVE",
"298 746 CURVE SMOOTH"
);
}
);
vertWidth = 0;
width = 600;
},
{
layerId = "426AEE65-830A-4D9C-AD83-8E047A05F635";
paths = (
{
closed = 1;
nodes = (
"139 750 OFFCURVE",
"60 666 OFFCURVE",
"60 525 CURVE SMOOTH",
"60 0 LINE",
"218 0 LINE",
"218 532 LINE SMOOTH",
"218 604 OFFCURVE",
"237.5 640 OFFCURVE",
"287 640 CURVE SMOOTH",
"320 640 OFFCURVE",
"340.5 622 OFFCURVE",
"340.5 589 CURVE SMOOTH",
"340.5 518 OFFCURVE",
"265 488.5 OFFCURVE",
"265 399.5 CURVE SMOOTH",
"265 270 OFFCURVE",
"414.5 273 OFFCURVE",
"414.5 165 CURVE SMOOTH",
"414.5 126.5 OFFCURVE",
"395 104.5 OFFCURVE",
"356 104.5 CURVE SMOOTH",
"338 104.5 OFFCURVE",
"319 110 OFFCURVE",
"299.5 119.5 CURVE",
"249 13.5 LINE",
"283.5 -5 OFFCURVE",
"325 -17 OFFCURVE",
"376 -17 CURVE SMOOTH",
"491.5 -17 OFFCURVE",
"577.5 49.5 OFFCURVE",
"577.5 166 CURVE SMOOTH",
"577.5 338.5 OFFCURVE",
"403 352 OFFCURVE",
"403 427 CURVE SMOOTH",
"403 487.5 OFFCURVE",
"493.5 506.5 OFFCURVE",
"493.5 596 CURVE SMOOTH",
"493.5 682 OFFCURVE",
"420.5 750 OFFCURVE",
"291 750 CURVE SMOOTH"
);
}
);
vertWidth = 0;
width = 600;
}
);
note = "";
unicode = 00DF;
},
{
glyphname = t;
layers = (
{
anchors = (
{
name = bottom;
position = "{749, 0}";
},
{
name = center;
position = "{600, 526}";
},
{
name = top;
position = "{482, 1304}";
},
{
name = topright;
position = "{641, 1471}";
}
);
layerId = "5A91C8AF-16C0-4BC2-89AA-7C90677D5BAF";
paths = (
{
closed = 1;
nodes = (
"483 69.5 LINE",
"453.5 54 OFFCURVE",
"420 44 OFFCURVE",
"380 44 CURVE SMOOTH",
"302 44 OFFCURVE",
"272 78.5 OFFCURVE",
"272 139 CURVE SMOOTH",
"272 473 LINE",
"448.5 473 LINE",
"457 525 LINE",
"272 525 LINE",
"272 653.5 LINE",
"210 646 LINE",
"210 525 LINE",
"86 525 LINE",
"86 473 LINE",
"210 473 LINE",
"210 137.5 LINE SMOOTH",
"210 53 OFFCURVE",
"273 -10 OFFCURVE",
"378.5 -10 CURVE SMOOTH",
"420.5 -10 OFFCURVE",
"475.5 2.5 OFFCURVE",
"510 25 CURVE"
);
}
);
vertWidth = 0;
width = 600;
},
{
anchors = (
{
name = bottom;
position = "{721, 0}";
},
{
name = center;
position = "{600, 526}";
},
{
name = top;
position = "{496, 1289}";
},
{
name = topright;
position = "{709, 1605}";
}
);
layerId = "426AEE65-830A-4D9C-AD83-8E047A05F635";
paths = (
{
closed = 1;
nodes = (
"495.5 131 LINE",
"470 117 OFFCURVE",
"439 107.5 OFFCURVE",
"402.5 107.5 CURVE SMOOTH",
"350 107.5 OFFCURVE",
"327 127.5 OFFCURVE",
"327 179.5 CURVE SMOOTH",
"327 416.5 LINE",
"482.5 416.5 LINE",
"498 525 LINE",
"327 525 LINE",
"327 657.5 LINE",
"169 638.5 LINE",
"169 525 LINE",
"57.5 525 LINE",
"57.5 416.5 LINE",
"169 416.5 LINE",
"169 180 LINE SMOOTH",
"169 58.5 OFFCURVE",
"235 -17 OFFCURVE",
"374 -17 CURVE SMOOTH",
"447.5 -17 OFFCURVE",
"506.5 4 OFFCURVE",
"548 31 CURVE"
);
}
);
vertWidth = 0;
width = 600;
}
);
note = "";
unicode = 0074;
},
{
glyphname = tbar;
layers = (
{
anchors = (
{
name = bottom;
position = "{749, 0}";
},
{
name = center;
position = "{600, 526}";
},
{
name = top;
position = "{482, 1304}";
},
{
name = topright;
position = "{641, 1471}";
}
);
components = (
{
alignment = -1;
name = t;
transform = "{0.5, 0, 0, 0.5, 0, 0}";
}
);
layerId = "5A91C8AF-16C0-4BC2-89AA-7C90677D5BAF";
paths = (
{
closed = 1;
nodes = (
"210 349.5 LINE",
"96.5 349.5 LINE",
"96.5 295.5 LINE",
"272 295.5 LINE",
"450.5 295.5 LINE",
"450.5 349.5 LINE"
);
}
);
vertWidth = 0;
width = 600;
},
{
anchors = (
{
name = bottom;
position = "{721, 0}";
},
{
name = center;
position = "{600, 526}";
},
{
name = top;
position = "{496, 1289}";
},
{
name = topright;
position = "{709, 1605}";
}
);
components = (
{
alignment = -1;
name = t;
transform = "{0.5, 0, 0, 0.5, 0, 0}";
}
);
layerId = "426AEE65-830A-4D9C-AD83-8E047A05F635";
paths = (
{
closed = 1;
nodes = (
"169 357 LINE",
"69.5 357 LINE",
"69.5 258 LINE",
"327 258 LINE",
"481.5 258 LINE",
"481.5 357 LINE"
);
}
);
vertWidth = 0;
width = 600;
}
);
note = "";
unicode = 0167;
},
{
glyphname = u;
layers = (
{
anchors = (
{
name = ogonek;
position = "{1001, 0}";
},
{
name = top;
position = "{600, 1050}";
}
);
layerId = "5A91C8AF-16C0-4BC2-89AA-7C90677D5BAF";
paths = (
{
closed = 1;
nodes = (
"109.5 525 LINE",
"109.5 142 LINE SMOOTH",
"109.5 45.5 OFFCURVE",
"160 -10 OFFCURVE",
"261.5 -10 CURVE SMOOTH",
"322.5 -10 OFFCURVE",
"388.5 20 OFFCURVE",
"431.5 73.5 CURVE",
"438.5 0 LINE",
"490.5 0 LINE",
"490.5 525 LINE",
"428.5 525 LINE",
"428.5 133.5 LINE",
"398 85.5 OFFCURVE",
"335.5 42 OFFCURVE",
"270.5 42 CURVE SMOOTH",
"201.5 42 OFFCURVE",
"171.5 75 OFFCURVE",
"171.5 149.5 CURVE SMOOTH",
"171.5 525 LINE"
);
}
);
vertWidth = 0;
width = 600;
},
{
anchors = (
{
name = ogonek;
position = "{1080, 0}";
},
{
name = top;
position = "{600, 1050}";
}
);
layerId = "426AEE65-830A-4D9C-AD83-8E047A05F635";
paths = (
{
closed = 1;
nodes = (
"70 525 LINE",
"70 146.5 LINE SMOOTH",
"70 46.5 OFFCURVE",
"119 -17 OFFCURVE",
"222 -17 CURVE SMOOTH",
"285.5 -17 OFFCURVE",
"349 9.5 OFFCURVE",
"385 61 CURVE",
"392 0 LINE",
"530 0 LINE",
"530 525 LINE",
"372 525 LINE",
"372 156 LINE",
"350.5 122 OFFCURVE",
"315 100 OFFCURVE",
"282 100 CURVE SMOOTH",
"248 100 OFFCURVE",
"228 115.5 OFFCURVE",
"228 166 CURVE SMOOTH",
"228 525 LINE"
);
}
);
vertWidth = 0;
width = 600;
}
);
note = "";
unicode = 0075;
},
{
glyphname = v;
layers = (
{
anchors = (
{
name = bottom;
position = "{600, 0}";
},
{
name = top;
position = "{600, 1050}";
}
);
layerId = "5A91C8AF-16C0-4BC2-89AA-7C90677D5BAF";
paths = (
{
closed = 1;
nodes = (
"465 525 LINE",
"301.5 63 LINE",
"134.5 525 LINE",
"70 525 LINE",
"263 0 LINE",
"334.5 0 LINE",
"530 525 LINE"
);
}
);
vertWidth = 0;
width = 600;
},
{
anchors = (
{
name = bottom;
position = "{600, 0}";
},
{
name = top;
position = "{600, 1050}";
}
);
layerId = "426AEE65-830A-4D9C-AD83-8E047A05F635";
paths = (
{
closed = 1;
nodes = (
"411 525 LINE",
"303 120.5 LINE",
"199.5 525 LINE",
"29 525 LINE",
"208 0 LINE",
"394 0 LINE",
"571 525 LINE"
);
}
);
vertWidth = 0;
width = 600;
}
);
note = "";
unicode = 0076;
},
{
glyphname = w;
layers = (
{
anchors = (
{
name = bottom;
position = "{600, 0}";
},
{
name = top;
position = "{600, 1050}";
}
);
layerId = "5A91C8AF-16C0-4BC2-89AA-7C90677D5BAF";
paths = (
{
closed = 1;
nodes = (
"578.5 525 LINE",
"513.5 525 LINE",
"437 38 LINE",
"349 458 LINE",
"259.5 458 LINE",
"167 38 LINE",
"90 525 LINE",
"21.5 525 LINE",
"123 0 LINE",
"222.5 0 LINE",
"304 395 LINE",
"379 0 LINE",
"481.5 0 LINE"
);
}
);
vertWidth = 0;
width = 600;
},
{
anchors = (
{
name = bottom;
position = "{600, 0}";
},
{
name = top;
position = "{600, 1050}";
}
);
layerId = "426AEE65-830A-4D9C-AD83-8E047A05F635";
paths = (
{
closed = 1;
nodes = (
"596.5 525 LINE",
"457 525 LINE",
"421.5 98.5 LINE",
"371.5 459 LINE",
"238.5 459 LINE",
"182.5 98.5 LINE",
"148 525 LINE",
"3.5 525 LINE",
"82 0 LINE",
"253.5 0 LINE",
"301 352.5 LINE",
"346.5 0 LINE",
"521 0 LINE"
);
}
);
vertWidth = 0;
width = 600;
}
);
note = "";
unicode = 0077;
},
{
glyphname = x;
layers = (
{
anchors = (
{
name = bottom;
position = "{600, 0}";
},
{
name = bottomright;
position = "{963, 0}";
},
{
name = top;
position = "{600, 1050}";
}
);
layerId = "5A91C8AF-16C0-4BC2-89AA-7C90677D5BAF";
paths = (
{
closed = 1;
nodes = (
"298.5 234 LINE",
"454 0 LINE",
"534.5 0 LINE",
"337 280.5 LINE",
"511.5 525 LINE",
"437 525 LINE",
"301 321.5 LINE",
"168 525 LINE",
"91.5 525 LINE",
"263.5 277.5 LINE",
"65.5 0 LINE",
"139 0 LINE"
);
}
);
vertWidth = 0;
width = 600;
},
{
anchors = (
{
name = bottom;
position = "{600, 0}";
},
{
name = bottomright;
position = "{1036, 0}";
},
{
name = top;
position = "{600, 1050}";
}
);
layerId = "426AEE65-830A-4D9C-AD83-8E047A05F635";
paths = (
{
closed = 1;
nodes = (
"294 195.5 LINE",
"399 0 LINE",
"578 0 LINE",
"395 282 LINE",
"551 525 LINE",
"383 525 LINE",
"301 357.5 LINE",
"216 525 LINE",
"39 525 LINE",
"204 276 LINE",
"22 0 LINE",
"193 0 LINE"
);
}
);
vertWidth = 0;
width = 600;
}
);
note = "";
unicode = 0078;
},
{
glyphname = y;
layers = (
{
anchors = (
{
name = bottom;
position = "{600, -386}";
},
{
name = top;
position = "{600, 1050}";
}
);
layerId = "5A91C8AF-16C0-4BC2-89AA-7C90677D5BAF";
paths = (
{
closed = 1;
nodes = (
"464 525 LINE",
"304 53 LINE",
"138.5 525 LINE",
"71.5 525 LINE",
"260 0 LINE",
"280.5 0 LINE",
"252.5 -85.5 OFFCURVE",
"223.5 -134.5 OFFCURVE",
"113.5 -154.5 CURVE",
"124.5 -208.5 LINE",
"257.5 -192.5 OFFCURVE",
"307 -101.5 OFFCURVE",
"341 -4.5 CURVE SMOOTH",
"528.5 525 LINE"
);
}
);
vertWidth = 0;
width = 600;
},
{
anchors = (
{
name = bottom;
position = "{600, -439}";
},
{
name = top;
position = "{600, 1050}";
}
);
layerId = "426AEE65-830A-4D9C-AD83-8E047A05F635";
paths = (
{
closed = 1;
nodes = (
"410 525 LINE",
"298 101 LINE",
"195 525 LINE",
"28 525 LINE",
"196.5 0 LINE",
"250.5 0 LINE",
"221.5 -67.5 OFFCURVE",
"184 -96.5 OFFCURVE",
"79.5 -109 CURVE",
"97.5 -220 LINE",
"259 -211.5 OFFCURVE",
"348 -139.5 OFFCURVE",
"395 0 CURVE SMOOTH",
"572 525 LINE"
);
}
);
vertWidth = 0;
width = 600;
}
);
note = "";
unicode = 0079;
},
{
glyphname = z;
layers = (
{
anchors = (
{
name = bottom;
position = "{600, 0}";
},
{
name = top;
position = "{623, 1050}";
}
);
layerId = "5A91C8AF-16C0-4BC2-89AA-7C90677D5BAF";
paths = (
{
closed = 1;
nodes = (
"488.5 474 LINE",
"488.5 525 LINE",
"135 525 LINE",
"135 466 LINE",
"412 466 LINE",
"111.5 49.5 LINE",
"111.5 0 LINE",
"481 0 LINE",
"490.5 57.5 LINE",
"189.5 57.5 LINE"
);
}
);
vertWidth = 0;
width = 600;
},
{
anchors = (
{
name = bottom;
position = "{600, 0}";
},
{
name = top;
position = "{614, 1050}";
}
);
layerId = "426AEE65-830A-4D9C-AD83-8E047A05F635";
paths = (
{
closed = 1;
nodes = (
"519.5 414 LINE",
"519.5 525 LINE",
"94 525 LINE",
"94 406.5 LINE",
"335.5 406.5 LINE",
"72 111.5 LINE",
"72 0 LINE",
"509.5 0 LINE",
"524.5 119.5 LINE",
"258.5 119.5 LINE"
);
}
);
vertWidth = 0;
width = 600;
}
);
note = "";
unicode = 007A;
},
{
color = 3;
glyphname = a.cv01;
layers = (
{
anchors = (
{
name = bottom;
position = "{600, 0}";
},
{
name = ogonek;
position = "{1058, -21}";
},
{
name = top;
position = "{583, 1050}";
}
);
layerId = "5A91C8AF-16C0-4BC2-89AA-7C90677D5BAF";
paths = (
{
closed = 1;
nodes = (
"428.5 468.5 LINE",
"392.5 512 OFFCURVE",
"345.5 534.5 OFFCURVE",
"281.5 534.5 CURVE SMOOTH",
"151.5 534.5 OFFCURVE",
"76.5 418 OFFCURVE",
"76.5 261 CURVE SMOOTH",
"76.5 100.5 OFFCURVE",
"139.5 -10 OFFCURVE",
"278.5 -10 CURVE SMOOTH",
"333 -10 OFFCURVE",
"386.5 12.5 OFFCURVE",
"428.5 72.5 CURVE",
"439.5 24 OFFCURVE",
"474.5 -4 OFFCURVE",
"519 -10.5 CURVE",
"536 35 LINE",
"507 40.5 OFFCURVE",
"492 62.5 OFFCURVE",
"490.5 98.5 CURVE",
"490.5 525 LINE",
"436.5 525 LINE"
);
},
{
closed = 1;
nodes = (
"350.5 481 OFFCURVE",
"398 453.5 OFFCURVE",
"428.5 406.5 CURVE",
"428.5 133.5 LINE",
"398.5 88.5 OFFCURVE",
"353 44 OFFCURVE",
"286.5 44 CURVE SMOOTH",
"193.5 44 OFFCURVE",
"146.5 123.5 OFFCURVE",
"146.5 261.5 CURVE SMOOTH",
"146.5 406.5 OFFCURVE",
"199.5 481 OFFCURVE",
"297 481 CURVE SMOOTH"
);
}
);
vertWidth = 0;
width = 600;
},
{
anchors = (
{
name = bottom;
position = "{600, 0}";
},
{
name = ogonek;
position = "{1085, -30}";
},
{
name = top;
position = "{586, 1050}";
}
);
layerId = "426AEE65-830A-4D9C-AD83-8E047A05F635";
paths = (
{
closed = 1;
nodes = (
"382 494.5 LINE",
"350 526 OFFCURVE",
"298.5 542.5 OFFCURVE",
"251.5 542.5 CURVE SMOOTH",
"120.5 542.5 OFFCURVE",
"40 425.5 OFFCURVE",
"40 264 CURVE SMOOTH",
"40 95 OFFCURVE",
"103 -17 OFFCURVE",
"235 -17 CURVE SMOOTH",
"305 -17 OFFCURVE",
"353 17.5 OFFCURVE",
"382 57.5 CURVE",
"423 5 OFFCURVE",
"493 -11 OFFCURVE",
"532.5 -15 CURVE",
"565 89 LINE",
"541.5 95 OFFCURVE",
"531 114 OFFCURVE",
"530 141 CURVE",
"530 525 LINE",
"390 525 LINE"
);
},
{
closed = 1;
nodes = (
"326.5 427 OFFCURVE",
"350 411.5 OFFCURVE",
"372 385 CURVE",
"372 159 LINE",
"349.5 122.5 OFFCURVE",
"321 99 OFFCURVE",
"285 99 CURVE SMOOTH",
"237 99 OFFCURVE",
"203 134 OFFCURVE",
"203 263 CURVE SMOOTH",
"203 380.5 OFFCURVE",
"239 427 OFFCURVE",
"294 427 CURVE SMOOTH"
);
}
);
vertWidth = 0;
width = 600;
}
);
note = "";
},
{
color = 3;
glyphname = g.cv02;
layers = (
{
anchors = (
{
name = bottom;
position = "{600, 0}";
},
{
name = top;
position = "{583, 1050}";
}
);
layerId = "5A91C8AF-16C0-4BC2-89AA-7C90677D5BAF";
paths = (
{
closed = 1;
nodes = (
"428.5 468.5 LINE",
"392.5 512 OFFCURVE",
"345.5 534.5 OFFCURVE",
"281.5 534.5 CURVE SMOOTH",
"151.5 534.5 OFFCURVE",
"76.5 418 OFFCURVE",
"76.5 261 CURVE SMOOTH",
"76.5 100.5 OFFCURVE",
"139.5 -10 OFFCURVE",
"278.5 -10 CURVE SMOOTH",
"333 -10 OFFCURVE",
"386.5 12.5 OFFCURVE",
"428.5 72.5 CURVE",
"428.5 15 LINE SMOOTH",
"428.5 -96 OFFCURVE",
"367 -153 OFFCURVE",
"282.5 -153 CURVE SMOOTH",
"185 -153 OFFCURVE",
"151.5 -118.5 OFFCURVE",
"121.5 -89 CURVE",
"81.5 -131.5 LINE",
"126 -164.5 OFFCURVE",
"162.5 -209 OFFCURVE",
"281.5 -209 CURVE SMOOTH",
"386.5 -209 OFFCURVE",
"495.5 -132 OFFCURVE",
"492.5 10.5 CURVE SMOOTH",
"490.5 98.5 LINE",
"490.5 525 LINE",
"436.5 525 LINE"
);
},
{
closed = 1;
nodes = (
"350.5 481 OFFCURVE",
"398 453.5 OFFCURVE",
"428.5 406.5 CURVE",
"428.5 133.5 LINE",
"398.5 88.5 OFFCURVE",
"353 44 OFFCURVE",
"286.5 44 CURVE SMOOTH",
"193.5 44 OFFCURVE",
"146.5 123.5 OFFCURVE",
"146.5 261.5 CURVE SMOOTH",
"146.5 406.5 OFFCURVE",
"199.5 481 OFFCURVE",
"297 481 CURVE SMOOTH"
);
}
);
vertWidth = 0;
width = 600;
},
{
anchors = (
{
name = bottom;
position = "{600, 0}";
},
{
name = top;
position = "{602, 1050}";
}
);
layerId = "426AEE65-830A-4D9C-AD83-8E047A05F635";
paths = (
{
closed = 1;
nodes = (
"382 494.5 LINE",
"350 526 OFFCURVE",
"298.5 542.5 OFFCURVE",
"251.5 542.5 CURVE SMOOTH",
"120.5 542.5 OFFCURVE",
"40 425.5 OFFCURVE",
"40 264 CURVE SMOOTH",
"40 95 OFFCURVE",
"103 -17 OFFCURVE",
"235 -17 CURVE SMOOTH",
"305 -17 OFFCURVE",
"353 17.5 OFFCURVE",
"382 57.5 CURVE",
"382 9 LINE SMOOTH",
"382 -15 OFFCURVE",
"362 -101 OFFCURVE",
"259 -98.5 CURVE SMOOTH",
"202 -97 OFFCURVE",
"164 -73.5 OFFCURVE",
"130 -36 CURVE",
"39 -116.5 LINE",
"109 -198 OFFCURVE",
"199 -219 OFFCURVE",
"270 -219 CURVE SMOOTH",
"320.5 -219 OFFCURVE",
"530 -194.5 OFFCURVE",
"530 17.5 CURVE SMOOTH",
"530 141 LINE",
"530 525 LINE",
"390 525 LINE"
);
},
{
closed = 1;
nodes = (
"326.5 427 OFFCURVE",
"350 411.5 OFFCURVE",
"372 385 CURVE",
"372 159 LINE",
"349.5 122.5 OFFCURVE",
"321 99 OFFCURVE",
"285 99 CURVE SMOOTH",
"237 99 OFFCURVE",
"203 134 OFFCURVE",
"203 263 CURVE SMOOTH",
"203 380.5 OFFCURVE",
"239 427 OFFCURVE",
"294 427 CURVE SMOOTH"
);
}
);
vertWidth = 0;
width = 600;
}
);
note = "";
},
{
color = 3;
glyphname = idotless.cv03;
production = dotlessi.cv03;
layers = (
{
anchors = (
{
name = ogonek;
position = "{682, 0}";
},
{
name = top;
position = "{600, 1050}";
}
);
layerId = "5A91C8AF-16C0-4BC2-89AA-7C90677D5BAF";
paths = (
{
closed = 1;
nodes = (
"269 525 LINE",
"269 0 LINE",
"331 0 LINE",
"331 525 LINE"
);
}
);
vertWidth = 0;
width = 600;
},
{
anchors = (
{
name = ogonek;
position = "{779, 0}";
},
{
name = top;
position = "{600, 1050}";
}
);
layerId = "426AEE65-830A-4D9C-AD83-8E047A05F635";
paths = (
{
closed = 1;
nodes = (
"221 525 LINE",
"221 0 LINE",
"379 0 LINE",
"379 525 LINE"
);
}
);
vertWidth = 0;
width = 600;
}
);
note = "";
},
{
color = 3;
glyphname = idotless.cv04;
production = dotlessi.cv04;
layers = (
{
anchors = (
{
name = ogonek;
position = "{738, 0}";
},
{
name = top;
position = "{604, 1050}";
}
);
layerId = "5A91C8AF-16C0-4BC2-89AA-7C90677D5BAF";
paths = (
{
closed = 1;
nodes = (
"136 525 LINE",
"136 471 LINE",
"297 471 LINE",
"297 0 LINE",
"359 0 LINE",
"359 525 LINE"
);
}
);
vertWidth = 0;
width = 600;
},
{
anchors = (
{
name = ogonek;
position = "{809, 0}";
},
{
name = top;
position = "{598, 1050}";
}
);
layerId = "426AEE65-830A-4D9C-AD83-8E047A05F635";
paths = (
{
closed = 1;
nodes = (
"91 525 LINE",
"91 417.5 LINE",
"236.5 417.5 LINE",
"236.5 0 LINE",
"394.5 0 LINE",
"394.5 525 LINE"
);
}
);
vertWidth = 0;
width = 600;
}
);
note = "";
},
{
color = 3;
glyphname = idotless.cv05;
production = dotlessi.cv05;
layers = (
{
anchors = (
{
name = ogonek;
position = "{738, 0}";
},
{
name = top;
position = "{604, 1050}";
}
);
layerId = "5A91C8AF-16C0-4BC2-89AA-7C90677D5BAF";
paths = (
{
closed = 1;
nodes = (
"136 525 LINE",
"136 471 LINE",
"297 471 LINE",
"297 0 LINE",
"511.5 0 LINE",
"511.5 54 LINE",
"359 54 LINE",
"359 525 LINE"
);
}
);
vertWidth = 0;
width = 600;
},
{
anchors = (
{
name = ogonek;
position = "{809, 0}";
},
{
name = top;
position = "{598, 1050}";
}
);
layerId = "426AEE65-830A-4D9C-AD83-8E047A05F635";
paths = (
{
closed = 1;
nodes = (
"91 525 LINE",
"91 417.5 LINE",
"236.5 417.5 LINE",
"236.5 0 LINE",
"529.5 0 LINE",
"529.5 108 LINE",
"394.5 108 LINE",
"394.5 525 LINE"
);
}
);
vertWidth = 0;
width = 600;
}
);
note = "";
},
{
color = 3;
glyphname = idotless.cv06;
production = dotlessi.cv06;
layers = (
{
anchors = (
{
name = bottom;
position = "{856, 0}";
},
{
name = top;
position = "{667, 1050}";
}
);
layerId = "5A91C8AF-16C0-4BC2-89AA-7C90677D5BAF";
paths = (
{
closed = 1;
nodes = (
"134 525 LINE",
"134 471 LINE",
"297 471 LINE",
"297 119 LINE SMOOTH",
"297 37 OFFCURVE",
"362.5 -10 OFFCURVE",
"445.5 -10 CURVE SMOOTH",
"494.5 -10 OFFCURVE",
"536 2 OFFCURVE",
"562 15 CURVE",
"544 63 LINE",
"513.5 51 OFFCURVE",
"484.5 44 OFFCURVE",
"451.5 44 CURVE SMOOTH",
"398 44 OFFCURVE",
"359 64.5 OFFCURVE",
"359 119 CURVE SMOOTH",
"359 525 LINE"
);
}
);
vertWidth = 0;
width = 600;
},
{
anchors = (
{
name = bottom;
position = "{805, 0}";
},
{
name = top;
position = "{607, 1050}";
}
);
layerId = "426AEE65-830A-4D9C-AD83-8E047A05F635";
paths = (
{
closed = 1;
nodes = (
"80 525 LINE",
"80 417.5 LINE",
"236.5 417.5 LINE",
"236.5 185.5 LINE SMOOTH",
"236.5 62.5 OFFCURVE",
"294.5 -17 OFFCURVE",
"422.5 -17 CURVE SMOOTH",
"490 -17 OFFCURVE",
"540 -1 OFFCURVE",
"576 18 CURVE",
"538 123 LINE",
"516.5 114.5 OFFCURVE",
"490.5 107.5 OFFCURVE",
"463 107.5 CURVE SMOOTH",
"420.5 107.5 OFFCURVE",
"394.5 124 OFFCURVE",
"394.5 166 CURVE SMOOTH",
"394.5 525 LINE"
);
}
);
vertWidth = 0;
width = 600;
}
);
note = "";
},
{
color = 3;
glyphname = l.cv07;
layers = (
{
anchors = (
{
name = bottom;
position = "{600, 0}";
},
{
name = center;
position = "{1116, 766}";
},
{
name = middle;
position = "{600, 766}";
},
{
name = top;
position = "{611, 1475}";
},
{
name = topright;
position = "{751, 1475}";
}
);
layerId = "5A91C8AF-16C0-4BC2-89AA-7C90677D5BAF";
paths = (
{
closed = 1;
nodes = (
"269 737.5 LINE",
"269 0 LINE",
"331 0 LINE",
"331 737.5 LINE"
);
}
);
vertWidth = 0;
width = 600;
},
{
anchors = (
{
name = bottom;
position = "{600, 0}";
},
{
name = center;
position = "{1136, 757}";
},
{
name = middle;
position = "{600, 757}";
},
{
name = top;
position = "{600, 1467}";
},
{
name = topright;
position = "{818, 1467}";
}
);
layerId = "426AEE65-830A-4D9C-AD83-8E047A05F635";
paths = (
{
closed = 1;
nodes = (
"221 733.5 LINE",
"221 0 LINE",
"379 0 LINE",
"379 733.5 LINE"
);
}
);
vertWidth = 0;
width = 600;
}
);
note = "";
},
{
color = 3;
glyphname = l.cv08;
layers = (
{
anchors = (
{
name = bottom;
position = "{800, 0}";
},
{
name = center;
position = "{1116, 766}";
},
{
name = middle;
position = "{600, 766}";
},
{
name = top;
position = "{611, 1475}";
},
{
name = topright;
position = "{751, 1475}";
}
);
layerId = "5A91C8AF-16C0-4BC2-89AA-7C90677D5BAF";
paths = (
{
closed = 1;
nodes = (
"106 737.5 LINE",
"106 683.5 LINE",
"269 683.5 LINE",
"269 0 LINE",
"331 0 LINE",
"331 737.5 LINE"
);
}
);
vertWidth = 0;
width = 600;
},
{
anchors = (
{
name = bottom;
position = "{600, 0}";
},
{
name = center;
position = "{1136, 757}";
},
{
name = middle;
position = "{600, 757}";
},
{
name = top;
position = "{576, 1467}";
},
{
name = topright;
position = "{818, 1467}";
}
);
layerId = "426AEE65-830A-4D9C-AD83-8E047A05F635";
paths = (
{
closed = 1;
nodes = (
"64.5 733.5 LINE",
"64.5 626 LINE",
"221 626 LINE",
"221 0 LINE",
"379 0 LINE",
"379 733.5 LINE"
);
}
);
vertWidth = 0;
width = 600;
}
);
note = "";
},
{
color = 3;
glyphname = l.cv09;
layers = (
{
anchors = (
{
name = bottom;
position = "{724, 0}";
},
{
name = center;
position = "{1116, 766}";
},
{
name = middle;
position = "{524, 766}";
},
{
name = top;
position = "{535, 1475}";
},
{
name = topright;
position = "{675, 1475}";
}
);
layerId = "5A91C8AF-16C0-4BC2-89AA-7C90677D5BAF";
paths = (
{
closed = 1;
nodes = (
"68 737.5 LINE",
"68 683.5 LINE",
"231 683.5 LINE",
"231 0 LINE",
"471 0 LINE",
"471 54 LINE",
"293 54 LINE",
"293 737.5 LINE"
);
}
);
vertWidth = 0;
width = 600;
},
{
anchors = (
{
name = bottom;
position = "{710, 0}";
},
{
name = center;
position = "{1136, 757}";
},
{
name = middle;
position = "{536, 757}";
},
{
name = top;
position = "{512, 1467}";
},
{
name = topright;
position = "{754, 1467}";
}
);
layerId = "426AEE65-830A-4D9C-AD83-8E047A05F635";
paths = (
{
closed = 1;
nodes = (
"32.5 733.5 LINE",
"32.5 626 LINE",
"189 626 LINE",
"189 0 LINE",
"528.5 0 LINE",
"528.5 108 LINE",
"347 108 LINE",
"347 733.5 LINE"
);
}
);
vertWidth = 0;
width = 600;
}
);
note = "";
},
{
color = 3;
glyphname = l.cv10;
layers = (
{
anchors = (
{
name = bottom;
position = "{656, 0}";
},
{
name = center;
position = "{1116, 766}";
},
{
name = middle;
position = "{656, 766}";
},
{
name = top;
position = "{667, 1475}";
},
{
name = topright;
position = "{807, 1475}";
}
);
layerId = "5A91C8AF-16C0-4BC2-89AA-7C90677D5BAF";
paths = (
{
closed = 1;
nodes = (
"136 737.5 LINE",
"136 683.5 LINE",
"297 683.5 LINE",
"297 54 LINE",
"131 54 LINE",
"131 0 LINE",
"511.5 0 LINE",
"511.5 54 LINE",
"359 54 LINE",
"359 737.5 LINE"
);
}
);
vertWidth = 0;
width = 600;
},
{
anchors = (
{
name = bottom;
position = "{631, 0}";
},
{
name = center;
position = "{1136, 757}";
},
{
name = middle;
position = "{631, 757}";
},
{
name = top;
position = "{607, 1467}";
},
{
name = topright;
position = "{849, 1467}";
}
);
layerId = "426AEE65-830A-4D9C-AD83-8E047A05F635";
paths = (
{
closed = 1;
nodes = (
"91 733.5 LINE",
"91 626 LINE",
"236.5 626 LINE",
"236.5 108 LINE",
"86 108 LINE",
"86 0 LINE",
"529.5 0 LINE",
"529.5 108 LINE",
"394.5 108 LINE",
"394.5 733.5 LINE"
);
}
);
vertWidth = 0;
width = 600;
}
);
note = "";
},
{
glyphname = x.multiply;
layers = (
{
layerId = "5A91C8AF-16C0-4BC2-89AA-7C90677D5BAF";
paths = (
{
closed = 1;
nodes = (
"300 369 LINE",
"145 520.5 LINE",
"101.5 477 LINE",
"256 324.5 LINE",
"101.5 170 LINE",
"145 126.5 LINE",
"300 280.5 LINE",
"452 126.5 LINE",
"495.5 170 LINE",
"344 324.5 LINE",
"495.5 477 LINE",
"452 520.5 LINE"
);
}
);
vertWidth = 0;
width = 600;
},
{
layerId = "426AEE65-830A-4D9C-AD83-8E047A05F635";
paths = (
{
closed = 1;
nodes = (
"300 407 LINE",
"167.5 539 LINE",
"80.5 452 LINE",
"215 322.5 LINE",
"80.5 190.5 LINE",
"167.5 104 LINE",
"300 237.5 LINE",
"432.5 104 LINE",
"519.5 190.5 LINE",
"385 322.5 LINE",
"519.5 452 LINE",
"432.5 539 LINE"
);
}
);
vertWidth = 0;
width = 600;
}
);
note = "";
},
{
color = 3;
glyphname = r.ss01;
layers = (
{
anchors = (
{
name = bottom;
position = "{462, 0}";
},
{
name = top;
position = "{664, 1050}";
}
);
layerId = "5A91C8AF-16C0-4BC2-89AA-7C90677D5BAF";
paths = (
{
closed = 1;
nodes = (
"370 0 LINE",
"370 52 LINE",
"262 52 LINE",
"262 296 LINE",
"299.5 420.5 OFFCURVE",
"357.5 476 OFFCURVE",
"442.5 476 CURVE SMOOTH",
"465 476 OFFCURVE",
"480 473 OFFCURVE",
"503.5 466.5 CURVE",
"521 525 LINE",
"497 531 OFFCURVE",
"477.5 535.5 OFFCURVE",
"450 535.5 CURVE SMOOTH",
"352 535.5 OFFCURVE",
"300 484.5 OFFCURVE",
"259 399 CURVE",
"247.5 525 LINE",
"114.5 525 LINE",
"114.5 472.5 LINE",
"200 472.5 LINE",
"200 52 LINE",
"114.5 52 LINE",
"114.5 0 LINE"
);
}
);
vertWidth = 0;
width = 600;
},
{
anchors = (
{
name = bottom;
position = "{448, 0}";
},
{
name = top;
position = "{650, 1050}";
}
);
layerId = "426AEE65-830A-4D9C-AD83-8E047A05F635";
paths = (
{
closed = 1;
nodes = (
"408 0 LINE",
"408 106 LINE",
"303 106 LINE",
"303 254.5 LINE",
"330.5 340 OFFCURVE",
"384.5 402.5 OFFCURVE",
"454 402.5 CURVE SMOOTH",
"477.5 402.5 OFFCURVE",
"495.5 399.5 OFFCURVE",
"515 394.5 CURVE",
"563 525 LINE",
"538 535 OFFCURVE",
"511.5 541 OFFCURVE",
"475.5 541 CURVE SMOOTH",
"390 541 OFFCURVE",
"332.5 497 OFFCURVE",
"294.5 407 CURVE",
"265.5 525 LINE",
"75 525 LINE",
"75 420.5 LINE",
"145 420.5 LINE",
"145 106 LINE",
"75 106 LINE",
"75 0 LINE"
);
}
);
vertWidth = 0;
width = 600;
}
);
note = "";
},
{
color = 3;
export = 0;
glyphname = r.001;
layers = (
{
anchors = (
{
name = bottom;
position = "{462, 0}";
},
{
name = top;
position = "{636, 1050}";
}
);
layerId = "5A91C8AF-16C0-4BC2-89AA-7C90677D5BAF";
paths = (
{
closed = 1;
nodes = (
"262 0 LINE",
"262 296 LINE",
"299.5 420.5 OFFCURVE",
"357.5 476 OFFCURVE",
"442.5 476 CURVE SMOOTH",
"465 476 OFFCURVE",
"480 473 OFFCURVE",
"503.5 466.5 CURVE",
"521 525 LINE",
"497 531 OFFCURVE",
"477.5 535.5 OFFCURVE",
"450 535.5 CURVE SMOOTH",
"352 535.5 OFFCURVE",
"300 484.5 OFFCURVE",
"259 399 CURVE",
"247.5 525 LINE",
"114.5 525 LINE",
"114.5 472.5 LINE",
"200 472.5 LINE",
"200 0 LINE"
);
},
{
closed = 1;
nodes = (
"514 360 LINE",
"521 525 LINE",
"458 525 LINE",
"454 489 LINE",
"454 360 LINE"
);
}
);
vertWidth = 0;
width = 600;
},
{
anchors = (
{
name = bottom;
position = "{448, 0}";
},
{
name = top;
position = "{650, 1050}";
}
);
layerId = "426AEE65-830A-4D9C-AD83-8E047A05F635";
paths = (
{
closed = 1;
nodes = (
"303 0 LINE",
"303 254.5 LINE",
"330.5 340 OFFCURVE",
"384.5 402.5 OFFCURVE",
"454 402.5 CURVE SMOOTH",
"477.5 402.5 OFFCURVE",
"495.5 399.5 OFFCURVE",
"515 394.5 CURVE",
"563 525 LINE",
"538 535 OFFCURVE",
"511.5 541 OFFCURVE",
"475.5 541 CURVE SMOOTH",
"390 541 OFFCURVE",
"332.5 497 OFFCURVE",
"294.5 407 CURVE",
"265.5 525 LINE",
"75 525 LINE",
"75 420.5 LINE",
"145 420.5 LINE",
"145 0 LINE"
);
},
{
closed = 1;
nodes = (
"533.5 304.5 LINE",
"563 525 LINE",
"458 525 LINE",
"434.5 458.5 LINE",
"434.5 304.5 LINE"
);
}
);
vertWidth = 0;
width = 600;
}
);
note = "";
},
{
color = 3;
glyphname = i.salt_low;
layers = (
{
anchors = (
{
name = bottom;
position = "{600, 0}";
}
);
layerId = "5A91C8AF-16C0-4BC2-89AA-7C90677D5BAF";
paths = (
{
closed = 1;
nodes = (
"136 482 LINE",
"136 429 LINE",
"297 429 LINE",
"297 54 LINE",
"131 54 LINE",
"131 0 LINE",
"511.5 0 LINE",
"511.5 54 LINE",
"359 54 LINE",
"359 482 LINE"
);
},
{
closed = 1;
nodes = (
"270.5 722.5 OFFCURVE",
"250 700.5 OFFCURVE",
"250 673 CURVE SMOOTH",
"250 643.5 OFFCURVE",
"270.5 621.5 OFFCURVE",
"300.5 621.5 CURVE SMOOTH",
"332.5 621.5 OFFCURVE",
"352.5 643.5 OFFCURVE",
"352.5 673 CURVE SMOOTH",
"352.5 700.5 OFFCURVE",
"332.5 722.5 OFFCURVE",
"300.5 722.5 CURVE SMOOTH"
);
}
);
vertWidth = 0;
width = 600;
},
{
anchors = (
{
name = bottom;
position = "{600, 0}";
}
);
layerId = "426AEE65-830A-4D9C-AD83-8E047A05F635";
paths = (
{
closed = 1;
nodes = (
"91 492 LINE",
"91 383 LINE",
"236.5 383 LINE",
"236.5 108 LINE",
"86 108 LINE",
"86 0 LINE",
"529.5 0 LINE",
"529.5 108 LINE",
"394.5 108 LINE",
"394.5 492 LINE"
);
},
{
closed = 1;
nodes = (
"243.5 776.5 OFFCURVE",
"205 738 OFFCURVE",
"205 687.5 CURVE SMOOTH",
"205 637.5 OFFCURVE",
"243.5 598.5 OFFCURVE",
"299 598.5 CURVE SMOOTH",
"353.5 598.5 OFFCURVE",
"392 637.5 OFFCURVE",
"392 687.5 CURVE SMOOTH",
"392 738 OFFCURVE",
"353.5 776.5 OFFCURVE",
"299 776.5 CURVE SMOOTH"
);
}
);
vertWidth = 0;
width = 600;
}
);
note = "";
},
{
color = 3;
glyphname = j.salt_low;
layers = (
{
anchors = (
{
name = bottom;
position = "{600, -386}";
},
{
name = top;
position = "{734, 1050}";
}
);
layerId = "5A91C8AF-16C0-4BC2-89AA-7C90677D5BAF";
paths = (
{
closed = 1;
nodes = (
"147.5 482 LINE",
"147.5 429 LINE",
"375 429 LINE",
"375 59.5 LINE SMOOTH",
"375 -78 OFFCURVE",
"257.5 -138 OFFCURVE",
"103.5 -160.5 CURVE",
"114 -209 LINE",
"315.5 -177.5 OFFCURVE",
"437 -96 OFFCURVE",
"437 64 CURVE SMOOTH",
"437 482 LINE"
);
},
{
closed = 1;
nodes = (
"335.5 722.5 OFFCURVE",
"315.5 700.5 OFFCURVE",
"315.5 673 CURVE SMOOTH",
"315.5 643.5 OFFCURVE",
"335.5 621.5 OFFCURVE",
"365.5 621.5 CURVE SMOOTH",
"397.5 621.5 OFFCURVE",
"418 643.5 OFFCURVE",
"418 673 CURVE SMOOTH",
"418 700.5 OFFCURVE",
"397.5 722.5 OFFCURVE",
"365.5 722.5 CURVE SMOOTH"
);
}
);
vertWidth = 0;
width = 600;
},
{
anchors = (
{
name = bottom;
position = "{600, -439}";
},
{
name = top;
position = "{740, 1050}";
}
);
layerId = "426AEE65-830A-4D9C-AD83-8E047A05F635";
paths = (
{
closed = 1;
nodes = (
"123.5 492 LINE",
"123.5 383 LINE",
"314.5 383 LINE",
"314.5 144 LINE SMOOTH",
"314.5 -9 OFFCURVE",
"230.5 -62.5 OFFCURVE",
"69.5 -99 CURVE",
"94.5 -219 LINE",
"342 -171 OFFCURVE",
"472.5 -75.5 OFFCURVE",
"472.5 154 CURVE SMOOTH",
"472.5 492 LINE"
);
},
{
closed = 1;
nodes = (
"314.5 776.5 OFFCURVE",
"276 738 OFFCURVE",
"276 687.5 CURVE SMOOTH",
"276 637.5 OFFCURVE",
"314.5 598.5 OFFCURVE",
"370 598.5 CURVE SMOOTH",
"424.5 598.5 OFFCURVE",
"463 637.5 OFFCURVE",
"463 687.5 CURVE SMOOTH",
"463 738 OFFCURVE",
"424.5 776.5 OFFCURVE",
"370 776.5 CURVE SMOOTH"
);
}
);
vertWidth = 0;
width = 600;
}
);
note = "";
},
{
color = 3;
glyphname = l.salt_low;
layers = (
{
anchors = (
{
name = bottom;
position = "{724, 0}";
},
{
name = center;
position = "{1116, 766}";
},
{
name = top;
position = "{535, 1374}";
},
{
name = topright;
position = "{675, 1374}";
}
);
layerId = "5A91C8AF-16C0-4BC2-89AA-7C90677D5BAF";
paths = (
{
closed = 1;
nodes = (
"68 687 LINE",
"68 628 LINE",
"231 628 LINE",
"231 119 LINE SMOOTH",
"231 37 OFFCURVE",
"296.5 -10 OFFCURVE",
"379.5 -10 CURVE SMOOTH",
"428.5 -10 OFFCURVE",
"470 2 OFFCURVE",
"496 15 CURVE",
"478 63 LINE",
"447.5 51 OFFCURVE",
"418.5 44 OFFCURVE",
"385.5 44 CURVE SMOOTH",
"332 44 OFFCURVE",
"293 64.5 OFFCURVE",
"293 119 CURVE SMOOTH",
"293 687 LINE"
);
}
);
vertWidth = 0;
width = 600;
},
{
anchors = (
{
name = bottom;
position = "{710, 0}";
},
{
name = center;
position = "{1136, 757}";
},
{
name = top;
position = "{512, 1371}";
},
{
name = topright;
position = "{754, 1371}";
}
);
layerId = "426AEE65-830A-4D9C-AD83-8E047A05F635";
paths = (
{
closed = 1;
nodes = (
"32.5 685.5 LINE",
"32.5 560 LINE",
"189 560 LINE",
"189 185.5 LINE SMOOTH",
"189 62.5 OFFCURVE",
"247 -17 OFFCURVE",
"375 -17 CURVE SMOOTH",
"442.5 -17 OFFCURVE",
"492.5 -1 OFFCURVE",
"528.5 18 CURVE",
"490.5 123 LINE",
"469 114.5 OFFCURVE",
"443 107.5 OFFCURVE",
"415.5 107.5 CURVE SMOOTH",
"373 107.5 OFFCURVE",
"347 124 OFFCURVE",
"347 166 CURVE SMOOTH",
"347 685.5 LINE"
);
}
);
vertWidth = 0;
width = 600;
}
);
note = "";
},
{
color = 3;
glyphname = w_w_w.liga;
layers = (
{
anchors = (
{
name = bottom;
position = "{-1800, 0}";
},
{
name = top;
position = "{-1800, 1050}";
}
);
layerId = "5A91C8AF-16C0-4BC2-89AA-7C90677D5BAF";
paths = (
{
closed = 1;
nodes = (
"355.5 38 LINE",
"270.5 458 LINE",
"181 458 LINE",
"76 38 LINE",
"5.5 458 LINE",
"-87 458 LINE",
"-170 38 LINE",
"-248.5 458 LINE",
"-340.5 458 LINE",
"-426 38 LINE",
"-509 458 LINE",
"-601.5 458 LINE",
"-686 38 LINE",
"-769.5 458 LINE",
"-859 458 LINE",
"-951.5 38 LINE",
"-1029 525 LINE",
"-1097 525 LINE",
"-996 0 LINE",
"-896.5 0 LINE",
"-816.5 395 LINE",
"-749 0 LINE",
"-628 0 LINE",
"-556.5 395 LINE",
"-487.5 0 LINE",
"-370.5 0 LINE",
"-296.5 395 LINE",
"-229.5 0 LINE",
"-108.5 0 LINE",
"-44 395 LINE",
"17.5 0 LINE",
"134 0 LINE",
"223.5 395 LINE",
"296 0 LINE",
"400 0 LINE",
"495 525 LINE",
"433 525 LINE"
);
}
);
vertWidth = 0;
width = 600;
},
{
anchors = (
{
name = bottom;
position = "{-1800, 0}";
},
{
name = top;
position = "{-1800, 1050}";
}
);
layerId = "426AEE65-830A-4D9C-AD83-8E047A05F635";
paths = (
{
closed = 1;
nodes = (
"344 98.5 LINE",
"288.5 459 LINE",
"155.5 459 LINE",
"95.5 98.5 LINE",
"26.5 459 LINE",
"-106.5 459 LINE",
"-163 98.5 LINE",
"-234.5 459 LINE",
"-361.5 459 LINE",
"-433 98.5 LINE",
"-489.5 459 LINE",
"-622.5 459 LINE",
"-692 98.5 LINE",
"-751.5 459 LINE",
"-884.5 459 LINE",
"-940 98.5 LINE",
"-975 525 LINE",
"-1119.5 525 LINE",
"-1041 0 LINE",
"-869.5 0 LINE",
"-818 352.5 LINE",
"-756 0 LINE",
"-622 0 LINE",
"-558 352.5 LINE",
"-496 0 LINE",
"-362 0 LINE",
"-298 352.5 LINE",
"-234 0 LINE",
"-100 0 LINE",
"-38 352.5 LINE",
"26 0 LINE",
"159.5 0 LINE",
"222 352.5 LINE",
"273.5 0 LINE",
"445 0 LINE",
"523.5 525 LINE",
"379 525 LINE"
);
}
);
vertWidth = 0;
width = 600;
}
);
note = "";
},
{
color = 3;
glyphname = f_i.liga.ss10;
layers = (
{
anchors = (
{
name = bottom;
position = "{-680, 0}";
},
{
name = top;
position = "{-460, 1475}";
}
);
layerId = "5A91C8AF-16C0-4BC2-89AA-7C90677D5BAF";
paths = (
{
closed = 1;
nodes = (
"-309 482 LINE",
"-309 599.5 LINE SMOOTH",
"-309 660.5 OFFCURVE",
"-268 691.5 OFFCURVE",
"-191.5 691.5 CURVE SMOOTH",
"-150.5 691.5 OFFCURVE",
"-111.5 684 OFFCURVE",
"-79 668.5 CURVE",
"-56.5 719 LINE",
"-96.5 736.5 OFFCURVE",
"-137 746 OFFCURVE",
"-187.5 746 CURVE SMOOTH",
"-286.5 746 OFFCURVE",
"-371 690.5 OFFCURVE",
"-371 595.5 CURVE SMOOTH",
"-371 482 LINE",
"-501 482 LINE",
"-501 429 LINE",
"-371 429 LINE",
"-371 0 LINE",
"-309 0 LINE",
"-309 429 LINE",
"297 428 LINE",
"297 54 LINE",
"131 54 LINE",
"131 0 LINE",
"511.5 0 LINE",
"511.5 54 LINE",
"359 54 LINE",
"359 482 LINE"
);
},
{
closed = 1;
nodes = (
"270.5 722.5 OFFCURVE",
"250 700.5 OFFCURVE",
"250 673 CURVE SMOOTH",
"250 643.5 OFFCURVE",
"270.5 621.5 OFFCURVE",
"300.5 621.5 CURVE SMOOTH",
"332.5 621.5 OFFCURVE",
"352.5 643.5 OFFCURVE",
"352.5 673 CURVE SMOOTH",
"352.5 700.5 OFFCURVE",
"332.5 722.5 OFFCURVE",
"300.5 722.5 CURVE SMOOTH"
);
}
);
vertWidth = 0;
width = 600;
},
{
anchors = (
{
name = bottom;
position = "{-666, 0}";
},
{
name = top;
position = "{-460, 1467}";
}
);
layerId = "426AEE65-830A-4D9C-AD83-8E047A05F635";
paths = (
{
closed = 1;
nodes = (
"-255 492 LINE",
"-255 561.5 LINE SMOOTH",
"-255 613 OFFCURVE",
"-230 634 OFFCURVE",
"-167.5 634 CURVE SMOOTH",
"-129.5 634 OFFCURVE",
"-90.5 628 OFFCURVE",
"-53.5 614 CURVE",
"-10 717 LINE",
"-56.5 736.5 OFFCURVE",
"-114 750 OFFCURVE",
"-192 750 CURVE SMOOTH",
"-336 750 OFFCURVE",
"-412 671 OFFCURVE",
"-412 567.5 CURVE SMOOTH",
"-412 492 LINE",
"-523.5 492 LINE",
"-523.5 383 LINE",
"-412 383 LINE",
"-412 0 LINE",
"-255 0 LINE",
"-255 383 LINE",
"236.5 384.5 LINE",
"236.5 108 LINE",
"86 108 LINE",
"86 0 LINE",
"529.5 0 LINE",
"529.5 108 LINE",
"394.5 108 LINE",
"394.5 492 LINE"
);
},
{
closed = 1;
nodes = (
"243.5 801.5 OFFCURVE",
"205 763 OFFCURVE",
"205 712.5 CURVE SMOOTH",
"205 662.5 OFFCURVE",
"243.5 623.5 OFFCURVE",
"299 623.5 CURVE SMOOTH",
"353.5 623.5 OFFCURVE",
"392 662.5 OFFCURVE",
"392 712.5 CURVE SMOOTH",
"392 763 OFFCURVE",
"353.5 801.5 OFFCURVE",
"299 801.5 CURVE SMOOTH"
);
}
);
vertWidth = 0;
width = 600;
}
);
note = "";
},
{
color = 3;
glyphname = f_j.liga.ss10;
layers = (
{
anchors = (
{
name = bottom;
position = "{600, -386}";
},
{
name = top;
position = "{-460, 1475}";
}
);
layerId = "5A91C8AF-16C0-4BC2-89AA-7C90677D5BAF";
paths = (
{
closed = 1;
nodes = (
"-309 482 LINE",
"-309 599.5 LINE SMOOTH",
"-309 660.5 OFFCURVE",
"-268 691.5 OFFCURVE",
"-191.5 691.5 CURVE SMOOTH",
"-150.5 691.5 OFFCURVE",
"-111.5 684 OFFCURVE",
"-79 668.5 CURVE",
"-56.5 719 LINE",
"-96.5 736.5 OFFCURVE",
"-137 746 OFFCURVE",
"-187.5 746 CURVE SMOOTH",
"-286.5 746 OFFCURVE",
"-371 690.5 OFFCURVE",
"-371 595.5 CURVE SMOOTH",
"-371 482 LINE",
"-501 482 LINE",
"-501 429 LINE",
"-371 429 LINE",
"-371 0 LINE",
"-309 0 LINE",
"-309 429 LINE",
"375 429 LINE",
"375 59.5 LINE SMOOTH",
"375 -78 OFFCURVE",
"257.5 -138 OFFCURVE",
"103.5 -160.5 CURVE",
"114 -209 LINE",
"315.5 -177.5 OFFCURVE",
"437 -96 OFFCURVE",
"437 64 CURVE SMOOTH",
"437 482 LINE"
);
},
{
closed = 1;
nodes = (
"335.5 722 OFFCURVE",
"315.5 700 OFFCURVE",
"315.5 672.5 CURVE SMOOTH",
"315.5 643 OFFCURVE",
"335.5 621 OFFCURVE",
"365.5 621 CURVE SMOOTH",
"397.5 621 OFFCURVE",
"418 643 OFFCURVE",
"418 672.5 CURVE SMOOTH",
"418 700 OFFCURVE",
"397.5 722 OFFCURVE",
"365.5 722 CURVE SMOOTH"
);
}
);
vertWidth = 0;
width = 600;
},
{
anchors = (
{
name = bottom;
position = "{600, -439}";
},
{
name = top;
position = "{-460, 1467}";
}
);
layerId = "426AEE65-830A-4D9C-AD83-8E047A05F635";
paths = (
{
closed = 1;
nodes = (
"-255 492 LINE",
"-255 561.5 LINE SMOOTH",
"-255 613 OFFCURVE",
"-230 634 OFFCURVE",
"-167.5 634 CURVE SMOOTH",
"-129.5 634 OFFCURVE",
"-90.5 628 OFFCURVE",
"-53.5 614 CURVE",
"-10 717 LINE",
"-56.5 736.5 OFFCURVE",
"-114 750 OFFCURVE",
"-192 750 CURVE SMOOTH",
"-336 750 OFFCURVE",
"-412 671 OFFCURVE",
"-412 567.5 CURVE SMOOTH",
"-412 492 LINE",
"-523.5 492 LINE",
"-523.5 383 LINE",
"-412 383 LINE",
"-412 0 LINE",
"-255 0 LINE",
"-255 383 LINE",
"314.5 383 LINE",
"314.5 144 LINE SMOOTH",
"314.5 -9 OFFCURVE",
"230.5 -62.5 OFFCURVE",
"69.5 -99 CURVE",
"94.5 -219 LINE",
"342 -171 OFFCURVE",
"472.5 -75.5 OFFCURVE",
"472.5 154 CURVE SMOOTH",
"472.5 492 LINE"
);
},
{
closed = 1;
nodes = (
"314.5 761 OFFCURVE",
"276 722.5 OFFCURVE",
"276 672.5 CURVE SMOOTH",
"276 622.5 OFFCURVE",
"314.5 583.5 OFFCURVE",
"370 583.5 CURVE SMOOTH",
"424.5 583.5 OFFCURVE",
"463 622.5 OFFCURVE",
"463 672.5 CURVE SMOOTH",
"463 722.5 OFFCURVE",
"424.5 761 OFFCURVE",
"370 761 CURVE SMOOTH"
);
}
);
vertWidth = 0;
width = 600;
}
);
rightMetricsKey = j;
note = "";
},
{
color = 3;
glyphname = f_l.liga.ss10;
layers = (
{
anchors = (
{
name = bottom;
position = "{-680, 0}";
},
{
name = center;
position = "{1116, 766}";
},
{
name = top;
position = "{-460, 1475}";
},
{
name = topright;
position = "{675, 1475}";
}
);
layerId = "5A91C8AF-16C0-4BC2-89AA-7C90677D5BAF";
paths = (
{
closed = 1;
nodes = (
"-187.5 738.5 LINE",
"-286.5 738.5 OFFCURVE",
"-371 683 OFFCURVE",
"-371 588 CURVE SMOOTH",
"-371 482 LINE",
"-501 482 LINE",
"-501 429 LINE",
"-371 429 LINE",
"-371 0 LINE",
"-309 0 LINE",
"-309 429 LINE",
"-135 429 LINE",
"-128.5 482 LINE",
"-309 482 LINE",
"-309 592 LINE SMOOTH",
"-309 653 OFFCURVE",
"-268 684 OFFCURVE",
"-191.5 684 CURVE",
"231 684.5 LINE",
"231 119 LINE SMOOTH",
"231 37 OFFCURVE",
"296.5 -10 OFFCURVE",
"379.5 -10 CURVE SMOOTH",
"428.5 -10 OFFCURVE",
"470 2 OFFCURVE",
"496 15 CURVE",
"478 63 LINE",
"447.5 51 OFFCURVE",
"418.5 44 OFFCURVE",
"385.5 44 CURVE SMOOTH",
"332 44 OFFCURVE",
"293 64.5 OFFCURVE",
"293 119 CURVE SMOOTH",
"293 738.5 LINE"
);
}
);
vertWidth = 0;
width = 600;
},
{
anchors = (
{
name = bottom;
position = "{-666, 0}";
},
{
name = center;
position = "{1136, 757}";
},
{
name = top;
position = "{-460, 1467}";
},
{
name = topright;
position = "{754, 1467}";
}
);
layerId = "426AEE65-830A-4D9C-AD83-8E047A05F635";
paths = (
{
closed = 1;
nodes = (
"-192 733.5 LINE SMOOTH",
"-336 733.5 OFFCURVE",
"-412 654.5 OFFCURVE",
"-412 551 CURVE SMOOTH",
"-412 492 LINE",
"-523.5 492 LINE",
"-523.5 383 LINE",
"-412 383 LINE",
"-412 0 LINE",
"-255 0 LINE",
"-255 383 LINE",
"-99.5 383 LINE",
"-82 492 LINE",
"-255 492 LINE",
"-255 545 LINE SMOOTH",
"-255 597 OFFCURVE",
"-230 617.5 OFFCURVE",
"-167.5 617.5 CURVE",
"189 617.5 LINE",
"189 185.5 LINE SMOOTH",
"189 62.5 OFFCURVE",
"247 -17 OFFCURVE",
"375 -17 CURVE SMOOTH",
"442.5 -17 OFFCURVE",
"492.5 -1 OFFCURVE",
"528.5 18 CURVE",
"490.5 123 LINE",
"469 114.5 OFFCURVE",
"443 107.5 OFFCURVE",
"415.5 107.5 CURVE SMOOTH",
"373 107.5 OFFCURVE",
"347 124 OFFCURVE",
"347 166 CURVE SMOOTH",
"347 733.5 LINE"
);
}
);
vertWidth = 0;
width = 600;
}
);
rightMetricsKey = l;
note = "";
},
{
color = 3;
glyphname = f_t.liga.ss10;
layers = (
{
anchors = (
{
name = bottom;
position = "{-680, 0}";
},
{
name = center;
position = "{600, 526}";
},
{
name = top;
position = "{-460, 1475}";
},
{
name = topright;
position = "{641, 1471}";
}
);
layerId = "5A91C8AF-16C0-4BC2-89AA-7C90677D5BAF";
paths = (
{
closed = 1;
nodes = (
"-309 482 LINE",
"-309 599.5 LINE SMOOTH",
"-309 660.5 OFFCURVE",
"-268 691.5 OFFCURVE",
"-191.5 691.5 CURVE SMOOTH",
"-150.5 691.5 OFFCURVE",
"-111.5 684 OFFCURVE",
"-79 668.5 CURVE",
"-56.5 719 LINE",
"-96.5 736.5 OFFCURVE",
"-137 746 OFFCURVE",
"-187.5 746 CURVE SMOOTH",
"-286.5 746 OFFCURVE",
"-371 690.5 OFFCURVE",
"-371 595.5 CURVE SMOOTH",
"-371 482 LINE",
"-501 482 LINE",
"-501 429 LINE",
"-371 429 LINE",
"-371 0 LINE",
"-309 0 LINE",
"-309 429 LINE",
"210 429 LINE",
"210 137.5 LINE SMOOTH",
"210 53 OFFCURVE",
"273 -10 OFFCURVE",
"378.5 -10 CURVE SMOOTH",
"420.5 -10 OFFCURVE",
"475.5 2.5 OFFCURVE",
"510 25 CURVE",
"483 69.5 LINE",
"453.5 54 OFFCURVE",
"420 44 OFFCURVE",
"380 44 CURVE SMOOTH",
"302 44 OFFCURVE",
"272 78.5 OFFCURVE",
"272 139 CURVE SMOOTH",
"272 429 LINE",
"448.5 429 LINE",
"457 482 LINE",
"272 482 LINE",
"272 653.5 LINE",
"210 646 LINE",
"210 482 LINE"
);
}
);
vertWidth = 0;
width = 600;
},
{
anchors = (
{
name = bottom;
position = "{-666, 0}";
},
{
name = center;
position = "{600, 526}";
},
{
name = top;
position = "{-460, 1467}";
},
{
name = topright;
position = "{709, 1605}";
}
);
layerId = "426AEE65-830A-4D9C-AD83-8E047A05F635";
paths = (
{
closed = 1;
nodes = (
"-255 492 LINE",
"-255 561.5 LINE SMOOTH",
"-255 613 OFFCURVE",
"-230 634 OFFCURVE",
"-167.5 634 CURVE SMOOTH",
"-129.5 634 OFFCURVE",
"-90.5 628 OFFCURVE",
"-53.5 614 CURVE",
"-10 717 LINE",
"-56.5 736.5 OFFCURVE",
"-114 750 OFFCURVE",
"-192 750 CURVE SMOOTH",
"-336 750 OFFCURVE",
"-412 671 OFFCURVE",
"-412 567.5 CURVE SMOOTH",
"-412 492 LINE",
"-523.5 492 LINE",
"-523.5 383 LINE",
"-412 383 LINE",
"-412 0 LINE",
"-255 0 LINE",
"-255 383 LINE",
"169 383 LINE",
"169 180 LINE SMOOTH",
"169 58.5 OFFCURVE",
"235 -17 OFFCURVE",
"374 -17 CURVE SMOOTH",
"447.5 -17 OFFCURVE",
"506.5 4 OFFCURVE",
"548 31 CURVE",
"495.5 131 LINE",
"470 117 OFFCURVE",
"439 107.5 OFFCURVE",
"402.5 107.5 CURVE SMOOTH",
"350 107.5 OFFCURVE",
"327 127.5 OFFCURVE",
"327 179.5 CURVE SMOOTH",
"327 383 LINE",
"482.5 383 LINE",
"498 492 LINE",
"327 492 LINE",
"327 657.5 LINE",
"169 638.5 LINE",
"169 492 LINE"
);
}
);
vertWidth = 0;
width = 600;
}
);
rightMetricsKey = t;
note = "";
},
{
color = 3;
export = 0;
glyphname = fi;
layers = (
{
layerId = "5A91C8AF-16C0-4BC2-89AA-7C90677D5BAF";
paths = (
{
closed = 1;
nodes = (
"585 54 LINE",
"481.5 54 LINE",
"481.5 525 LINE",
"182.5 525 LINE",
"182.5 599.5 LINE SMOOTH",
"182.5 660.5 OFFCURVE",
"223 691.5 OFFCURVE",
"302 691.5 CURVE SMOOTH",
"343 691.5 OFFCURVE",
"382 684 OFFCURVE",
"414.5 668.5 CURVE",
"437.5 719 LINE",
"397 736.5 OFFCURVE",
"356.5 746 OFFCURVE",
"306.5 746 CURVE SMOOTH",
"207 746 OFFCURVE",
"117.5 690.5 OFFCURVE",
"117.5 595.5 CURVE SMOOTH",
"117.5 525 LINE",
"23 525 LINE",
"23 472 LINE",
"117.5 472 LINE",
"117.5 0 LINE",
"182.5 0 LINE",
"182.5 472 LINE",
"417 472 LINE",
"417 54 LINE",
"313.5 54 LINE",
"313.5 0 LINE",
"585 0 LINE"
);
}
);
vertWidth = 0;
width = 600;
},
{
layerId = "426AEE65-830A-4D9C-AD83-8E047A05F635";
paths = (
{
closed = 1;
nodes = (
"592 108 LINE",
"528 108 LINE",
"528 525 LINE",
"239 525 LINE",
"239 561.5 LINE SMOOTH",
"239 613 OFFCURVE",
"264 634 OFFCURVE",
"327.5 634 CURVE SMOOTH",
"365.5 634 OFFCURVE",
"404.5 628 OFFCURVE",
"441.5 614 CURVE",
"484 717 LINE",
"438.5 736.5 OFFCURVE",
"381 750 OFFCURVE",
"302 750 CURVE SMOOTH",
"159 750 OFFCURVE",
"87.5 671 OFFCURVE",
"87.5 567.5 CURVE SMOOTH",
"87.5 525 LINE",
"10.5 525 LINE",
"10.5 415.5 LINE",
"87.5 415.5 LINE",
"87.5 0 LINE",
"239 0 LINE",
"239 415.5 LINE",
"376 415.5 LINE",
"376 108 LINE",
"315 108 LINE",
"315 0 LINE",
"592 0 LINE"
);
}
);
vertWidth = 0;
width = 600;
}
);
note = "";
unicode = FB01;
},
{
color = 3;
export = 0;
glyphname = fl;
layers = (
{
layerId = "5A91C8AF-16C0-4BC2-89AA-7C90677D5BAF";
paths = (
{
closed = 1;
nodes = (
"579 56.5 LINE",
"558 48 OFFCURVE",
"542 44 OFFCURVE",
"520 44 CURVE SMOOTH",
"485 44 OFFCURVE",
"463.5 59.5 OFFCURVE",
"463.5 109.5 CURVE SMOOTH",
"463.5 743.5 LINE",
"399.5 727.5 LINE",
"369 739 OFFCURVE",
"341.5 746 OFFCURVE",
"303.5 746 CURVE SMOOTH",
"201.5 746 OFFCURVE",
"113.5 690.5 OFFCURVE",
"113.5 595.5 CURVE SMOOTH",
"113.5 525 LINE",
"16 525 LINE",
"16 472 LINE",
"113.5 472 LINE",
"113.5 0 LINE",
"178 0 LINE",
"178 472 LINE",
"309.5 472 LINE",
"318 525 LINE",
"178 525 LINE",
"178 599.5 LINE SMOOTH",
"178 660.5 OFFCURVE",
"220.5 690 OFFCURVE",
"303.5 690 CURVE SMOOTH",
"335.5 690 OFFCURVE",
"367.5 686.5 OFFCURVE",
"399 678.5 CURVE",
"399 110 LINE SMOOTH",
"399 24 OFFCURVE",
"452 -10 OFFCURVE",
"514 -10 CURVE SMOOTH",
"554.5 -10 OFFCURVE",
"575.5 -1 OFFCURVE",
"600 11.5 CURVE"
);
}
);
vertWidth = 0;
width = 600;
},
{
layerId = "426AEE65-830A-4D9C-AD83-8E047A05F635";
paths = (
{
closed = 1;
nodes = (
"576 116 LINE",
"565 111.5 OFFCURVE",
"552 107.5 OFFCURVE",
"539.5 107.5 CURVE SMOOTH",
"517.5 107.5 OFFCURVE",
"503 119 OFFCURVE",
"503 155 CURVE SMOOTH",
"503 749 LINE",
"395 733.5 LINE",
"363.5 743 OFFCURVE",
"328 750 OFFCURVE",
"289.5 750 CURVE SMOOTH",
"152 750 OFFCURVE",
"77 671 OFFCURVE",
"77 567.5 CURVE SMOOTH",
"77 525 LINE",
"6 525 LINE",
"6 415.5 LINE",
"77 415.5 LINE",
"77 0 LINE",
"229 0 LINE",
"229 415.5 LINE",
"295.5 415.5 LINE",
"312 525 LINE",
"229 525 LINE",
"229 561.5 LINE SMOOTH",
"229 613 OFFCURVE",
"250.5 637 OFFCURVE",
"305 637 CURVE SMOOTH",
"321.5 637 OFFCURVE",
"336.5 635 OFFCURVE",
"351 631 CURVE",
"351 141.5 LINE SMOOTH",
"351 36.5 OFFCURVE",
"407 -17 OFFCURVE",
"504 -17 CURVE SMOOTH",
"546 -17 OFFCURVE",
"580 -8 OFFCURVE",
"607 3 CURVE"
);
}
);
vertWidth = 0;
width = 600;
}
);
note = "";
unicode = FB02;
},
{
glyphname = ordfeminine;
layers = (
{
layerId = "5A91C8AF-16C0-4BC2-89AA-7C90677D5BAF";
paths = (
{
closed = 1;
nodes = (
"245 746 OFFCURVE",
"196.5 739 OFFCURVE",
"138.5 716.5 CURVE",
"158.5 667.5 LINE",
"207 684.5 OFFCURVE",
"252 691.5 OFFCURVE",
"281 691.5 CURVE SMOOTH",
"344.5 691.5 OFFCURVE",
"384.5 666.5 OFFCURVE",
"384.5 608 CURVE SMOOTH",
"384.5 572.5 LINE",
"324.5 572.5 LINE SMOOTH",
"190 572.5 OFFCURVE",
"107.5 527 OFFCURVE",
"107.5 438.5 CURVE SMOOTH",
"107.5 359.5 OFFCURVE",
"168.5 308.5 OFFCURVE",
"259 308.5 CURVE SMOOTH",
"309 308.5 OFFCURVE",
"360 329.5 OFFCURVE",
"393 367 CURVE",
"406 329.5 OFFCURVE",
"431 312 OFFCURVE",
"467.5 307.5 CURVE",
"482.5 352 LINE",
"460.5 359 OFFCURVE",
"448.5 372 OFFCURVE",
"448.5 402.5 CURVE SMOOTH",
"448.5 610.5 LINE SMOOTH",
"448.5 693.5 OFFCURVE",
"394 746 OFFCURVE",
"289.5 746 CURVE SMOOTH"
);
},
{
closed = 1;
nodes = (
"107 66 LINE",
"107 0 LINE",
"494 0 LINE",
"494 66 LINE"
);
},
{
closed = 1;
nodes = (
"384.5 416 LINE",
"357 380 OFFCURVE",
"315 357.5 OFFCURVE",
"271.5 357.5 CURVE SMOOTH",
"211 357.5 OFFCURVE",
"175 386 OFFCURVE",
"175 442 CURVE SMOOTH",
"175 494 OFFCURVE",
"218.5 524.5 OFFCURVE",
"319 524.5 CURVE SMOOTH",
"384.5 524.5 LINE"
);
}
);
vertWidth = 0;
width = 600;
},
{
layerId = "426AEE65-830A-4D9C-AD83-8E047A05F635";
paths = (
{
closed = 1;
nodes = (
"245 758.5 OFFCURVE",
"182.5 749 OFFCURVE",
"121.5 728 CURVE",
"154 637.5 LINE",
"201 653.5 OFFCURVE",
"246 660.5 OFFCURVE",
"271 660.5 CURVE SMOOTH",
"330.5 660.5 OFFCURVE",
"353.5 649.5 OFFCURVE",
"353.5 602 CURVE SMOOTH",
"353.5 589.5 LINE",
"300.5 589.5 LINE SMOOTH",
"161.5 589.5 OFFCURVE",
"83.5 534 OFFCURVE",
"83.5 443 CURVE SMOOTH",
"83.5 361 OFFCURVE",
"144.5 304 OFFCURVE",
"236.5 304 CURVE SMOOTH",
"289.5 304 OFFCURVE",
"337.5 325 OFFCURVE",
"370.5 364 CURVE",
"390.5 328 OFFCURVE",
"424 312 OFFCURVE",
"481.5 306 CURVE",
"512.5 394 LINE",
"491.5 401 OFFCURVE",
"482.5 413 OFFCURVE",
"482.5 442 CURVE SMOOTH",
"482.5 606 LINE SMOOTH",
"482.5 705 OFFCURVE",
"429.5 758.5 OFFCURVE",
"291 758.5 CURVE SMOOTH"
);
},
{
closed = 1;
nodes = (
"100 108 LINE",
"100 0 LINE",
"513.5 0 LINE",
"513.5 108 LINE"
);
},
{
closed = 1;
nodes = (
"353.5 444.5 LINE",
"334.5 415.5 OFFCURVE",
"305 397 OFFCURVE",
"276 397 CURVE SMOOTH",
"243.5 397 OFFCURVE",
"226 414.5 OFFCURVE",
"226 448 CURVE SMOOTH",
"226 488 OFFCURVE",
"252.5 507.5 OFFCURVE",
"322 507.5 CURVE SMOOTH",
"353.5 507.5 LINE"
);
}
);
vertWidth = 0;
width = 600;
}
);
note = "";
unicode = 00AA;
},
{
glyphname = ordmasculine;
layers = (
{
layerId = "5A91C8AF-16C0-4BC2-89AA-7C90677D5BAF";
paths = (
{
closed = 1;
nodes = (
"180.5 746 OFFCURVE",
"101 658 OFFCURVE",
"101 527.5 CURVE SMOOTH",
"101 394.5 OFFCURVE",
"179.5 308.5 OFFCURVE",
"300 308.5 CURVE SMOOTH",
"419.5 308.5 OFFCURVE",
"497.5 398.5 OFFCURVE",
"497.5 527.5 CURVE SMOOTH",
"497.5 663.5 OFFCURVE",
"420.5 746 OFFCURVE",
"300 746 CURVE SMOOTH"
);
},
{
closed = 1;
nodes = (
"107.5 66 LINE",
"107.5 0 LINE",
"494 0 LINE",
"494 66 LINE"
);
},
{
closed = 1;
nodes = (
"380 691.5 OFFCURVE",
"429.5 638.5 OFFCURVE",
"429.5 527.5 CURVE SMOOTH",
"429.5 416 OFFCURVE",
"380 362 OFFCURVE",
"300 362 CURVE SMOOTH",
"220 362 OFFCURVE",
"169 416 OFFCURVE",
"169 527.5 CURVE SMOOTH",
"169 638.5 OFFCURVE",
"220 691.5 OFFCURVE",
"300 691.5 CURVE SMOOTH"
);
}
);
vertWidth = 0;
width = 600;
},
{
layerId = "426AEE65-830A-4D9C-AD83-8E047A05F635";
paths = (
{
closed = 1;
nodes = (
"162.5 758.5 OFFCURVE",
"78.5 661 OFFCURVE",
"78.5 532 CURVE SMOOTH",
"78.5 396 OFFCURVE",
"161.5 304 OFFCURVE",
"300 304 CURVE SMOOTH",
"437.5 304 OFFCURVE",
"521.5 397 OFFCURVE",
"521.5 532 CURVE SMOOTH",
"521.5 662 OFFCURVE",
"437.5 758.5 OFFCURVE",
"300 758.5 CURVE SMOOTH"
);
},
{
closed = 1;
nodes = (
"93.5 108 LINE",
"93.5 0 LINE",
"506.5 0 LINE",
"506.5 108 LINE"
);
},
{
closed = 1;
nodes = (
"351.5 660.5 OFFCURVE",
"383 624.5 OFFCURVE",
"383 532 CURVE SMOOTH",
"383 438.5 OFFCURVE",
"351.5 403 OFFCURVE",
"300 403 CURVE SMOOTH",
"248.5 403 OFFCURVE",
"217 438.5 OFFCURVE",
"217 532 CURVE SMOOTH",
"217 624.5 OFFCURVE",
"248.5 660.5 OFFCURVE",
"300 660.5 CURVE SMOOTH"
);
}
);
vertWidth = 0;
width = 600;
}
);
note = "";
unicode = 00BA;
},
{
glyphname = nmod;
production = uni207F;
layers = (
{
layerId = "5A91C8AF-16C0-4BC2-89AA-7C90677D5BAF";
paths = (
{
closed = 1;
nodes = (
"296 723 OFFCURVE",
"254.5 707 OFFCURVE",
"227.5 675 CURVE",
"225 717.5 LINE",
"172.5 717.5 LINE",
"172.5 378 LINE",
"231 378 LINE",
"231 622.5 LINE",
"248.5 646.5 OFFCURVE",
"282.5 674.5 OFFCURVE",
"316 674.5 CURVE SMOOTH",
"364 674.5 OFFCURVE",
"370.5 646.5 OFFCURVE",
"370.5 578.5 CURVE",
"370.5 378 LINE",
"429 378 LINE",
"429 620 LINE",
"429 684.5 OFFCURVE",
"400 723 OFFCURVE",
"326.5 723 CURVE SMOOTH"
);
}
);
vertWidth = 0;
width = 600;
},
{
layerId = "426AEE65-830A-4D9C-AD83-8E047A05F635";
paths = (
{
closed = 1;
nodes = (
"315.5 723 OFFCURVE",
"285.5 713 OFFCURVE",
"258.5 678 CURVE",
"253.5 713 LINE",
"151.5 713 LINE",
"151.5 378 LINE",
"266.5 378 LINE",
"266.5 604.5 LINE",
"282.5 625.5 OFFCURVE",
"296.5 638 OFFCURVE",
"313 638 CURVE SMOOTH",
"328.5 638 OFFCURVE",
"334 625.5 OFFCURVE",
"334 592.5 CURVE",
"334 378 LINE",
"448.5 378 LINE",
"448.5 620 LINE",
"448.5 686 OFFCURVE",
"412.5 723 OFFCURVE",
"350.5 723 CURVE SMOOTH"
);
}
);
vertWidth = 0;
width = 600;
}
);
note = "";
unicode = 207F;
},
{
glyphname = "Be-cy";
production = uni0411;
layers = (
{
anchors = (
{
name = bottom;
position = "{600, 0}";
},
{
name = top;
position = "{600, 1374}";
}
);
layerId = "5A91C8AF-16C0-4BC2-89AA-7C90677D5BAF";
paths = (
{
closed = 1;
nodes = (
"113.5 687 LINE",
"113.5 0 LINE",
"268.5 0 LINE SMOOTH",
"424.5 0 OFFCURVE",
"534.5 51 OFFCURVE",
"534.5 210.5 CURVE SMOOTH",
"534.5 355.5 OFFCURVE",
"433 413.5 OFFCURVE",
"269.5 413.5 CURVE SMOOTH",
"177.5 413.5 LINE",
"177.5 630.5 LINE",
"477 630.5 LINE",
"483 687 LINE"
);
},
{
closed = 1;
nodes = (
"389 359.5 OFFCURVE",
"466.5 322 OFFCURVE",
"466.5 209.5 CURVE SMOOTH",
"466.5 81 OFFCURVE",
"388.5 55 OFFCURVE",
"288 55 CURVE SMOOTH",
"177.5 55 LINE",
"177.5 359.5 LINE",
"288.5 359.5 LINE SMOOTH"
);
}
);
vertWidth = 0;
width = 600;
},
{
anchors = (
{
name = bottom;
position = "{600, 0}";
},
{
name = top;
position = "{600, 1374}";
}
);
layerId = "426AEE65-830A-4D9C-AD83-8E047A05F635";
paths = (
{
closed = 1;
nodes = (
"57 687 LINE",
"57 0 LINE",
"299.5 0 LINE SMOOTH",
"455 0 OFFCURVE",
"568.5 76 OFFCURVE",
"568.5 226 CURVE SMOOTH",
"568.5 370.5 OFFCURVE",
"465.5 440 OFFCURVE",
"290.5 440 CURVE SMOOTH",
"221 440 LINE",
"221 562.5 LINE",
"477 562.5 LINE",
"493 687 LINE"
);
},
{
closed = 1;
nodes = (
"360.5 322 OFFCURVE",
"400.5 290.5 OFFCURVE",
"400.5 225 CURVE SMOOTH",
"400.5 151.5 OFFCURVE",
"358.5 122.5 OFFCURVE",
"282 122.5 CURVE SMOOTH",
"221 122.5 LINE",
"221 322 LINE",
"280 322 LINE SMOOTH"
);
}
);
vertWidth = 0;
width = 600;
}
);
note = "";
unicode = 0411;
},
{
glyphname = "Ge-cy";
production = uni0413;
layers = (
{
anchors = (
{
name = bottom;
position = "{364, 0}";
},
{
name = bottomright;
position = "{429, 0}";
},
{
name = top;
position = "{707, 1374}";
}
);
layerId = "5A91C8AF-16C0-4BC2-89AA-7C90677D5BAF";
paths = (
{
closed = 1;
nodes = (
"149.5 687 LINE",
"149.5 0 LINE",
"213 0 LINE",
"213 626.5 LINE",
"533 626.5 LINE",
"540.5 687 LINE"
);
}
);
vertWidth = 0;
width = 600;
},
{
anchors = (
{
name = bottom;
position = "{344, 0}";
},
{
name = bottomright;
position = "{567, 0}";
},
{
name = top;
position = "{665, 1374}";
}
);
layerId = "426AEE65-830A-4D9C-AD83-8E047A05F635";
paths = (
{
closed = 1;
nodes = (
"90 687 LINE",
"90 0 LINE",
"254 0 LINE",
"254 558.5 LINE",
"543 558.5 LINE",
"558.5 687 LINE"
);
}
);
vertWidth = 0;
width = 600;
}
);
note = "";
unicode = 0413;
},
{
glyphname = "Gheupturn-cy";
production = uni0490;
layers = (
{
anchors = (
{
name = bottom;
position = "{364, 0}";
},
{
name = bottomright;
position = "{429, 0}";
},
{
name = top;
position = "{707, 1374}";
}
);
components = (
{
alignment = -1;
name = "Ge-cy";
transform = "{0.5, 0, 0, 0.5, 0, 0}";
}
);
layerId = "5A91C8AF-16C0-4BC2-89AA-7C90677D5BAF";
paths = (
{
closed = 1;
nodes = (
"475 830.5 LINE",
"475 677 LINE",
"540.5 687 LINE",
"540.5 830.5 LINE"
);
}
);
vertWidth = 0;
width = 600;
},
{
anchors = (
{
name = bottom;
position = "{344, 0}";
},
{
name = bottomright;
position = "{567, 0}";
},
{
name = top;
position = "{665, 1374}";
}
);
components = (
{
alignment = -1;
name = "Ge-cy";
transform = "{0.5, 0, 0, 0.5, 0, 0}";
}
);
layerId = "426AEE65-830A-4D9C-AD83-8E047A05F635";
paths = (
{
closed = 1;
nodes = (
"407.5 840.5 LINE",
"407.5 677 LINE",
"558.5 687 LINE",
"558.5 840.5 LINE"
);
}
);
vertWidth = 0;
width = 600;
}
);
note = "";
unicode = 0490;
},
{
glyphname = "Ghestroke-cy";
production = uni0492;
layers = (
{
anchors = (
{
name = bottom;
position = "{428, 0}";
},
{
name = bottomright;
position = "{493, 0}";
},
{
name = top;
position = "{771, 1374}";
}
);
components = (
{
alignment = -1;
locked = 1;
name = "Ge-cy";
transform = "{0.5, 0, 0, 0.5, 32, 0}";
}
);
layerId = "5A91C8AF-16C0-4BC2-89AA-7C90677D5BAF";
paths = (
{
closed = 1;
nodes = (
"181.5 433 LINE",
"74.5 433 LINE",
"74.5 376 LINE",
"245.5 376 LINE",
"407.5 376 LINE",
"407.5 433 LINE"
);
}
);
vertWidth = 0;
width = 600;
},
{
anchors = (
{
name = bottom;
position = "{394, 0}";
},
{
name = bottomright;
position = "{617, 0}";
},
{
name = top;
position = "{715, 1374}";
}
);
components = (
{
alignment = -1;
locked = 1;
name = "Ge-cy";
transform = "{0.5, 0, 0, 0.5, 25, 0}";
}
);
layerId = "426AEE65-830A-4D9C-AD83-8E047A05F635";
paths = (
{
closed = 1;
nodes = (
"115.5 429.5 LINE",
"38 429.5 LINE",
"38 331.5 LINE",
"279.5 331.5 LINE",
"421.5 331.5 LINE",
"421.5 429.5 LINE"
);
}
);
vertWidth = 0;
width = 600;
}
);
note = "";
unicode = 0492;
},
{
glyphname = "Ghemiddlehook-cy";
production = uni0494;
layers = (
{
anchors = (
{
name = bottom;
position = "{600, -386}";
},
{
name = bottomright;
position = "{1109, 0}";
},
{
name = top;
position = "{600, 1374}";
}
);
components = (
{
alignment = -1;
name = "Shha-cy";
transform = "{0.5, 0, 0, 0.5, 4.5, 0}";
},
{
alignment = -1;
name = hookHELPER.case;
transform = "{0.5, 0, 0, 0.5, 293.5, 0}";
}
);
layerId = "5A91C8AF-16C0-4BC2-89AA-7C90677D5BAF";
paths = (
{
closed = 1;
nodes = (
"120 687 LINE",
"161 630.5 LINE",
"456 630.5 LINE",
"464.5 687 LINE"
);
}
);
vertWidth = 0;
width = 600;
},
{
anchors = (
{
name = bottom;
position = "{600, -440}";
},
{
name = bottomright;
position = "{1152, 0}";
},
{
name = top;
position = "{600, 1374}";
}
);
components = (
{
alignment = -1;
name = "Shha-cy";
transform = "{0.5, 0, 0, 0.5, -9.5, 0}";
},
{
alignment = -1;
name = hookHELPER.case;
transform = "{0.5, 0, 0, 0.5, 170.5, 0}";
}
);
layerId = "426AEE65-830A-4D9C-AD83-8E047A05F635";
paths = (
{
closed = 1;
nodes = (
"43.5 687 LINE",
"206 562.5 LINE",
"466 562.5 LINE",
"485.5 687 LINE"
);
}
);
vertWidth = 0;
width = 600;
}
);
note = "";
unicode = 0494;
},
{
glyphname = "De-cy";
production = uni0414;
layers = (
{
anchors = (
{
name = _bottom;
position = "{1057, 0}";
},
{
name = bottom;
position = "{600, -386}";
},
{
name = top;
position = "{600, 1374}";
}
);
components = (
{
alignment = -1;
name = "descStraight-cy.case";
transform = "{0.5, 0, 0, 0.5, 216.5, 0}";
},
{
alignment = -1;
name = "descStraight-cy.case";
transform = "{-0.5, 0, 0, 0.5, 347.5, 0}";
}
);
layerId = "5A91C8AF-16C0-4BC2-89AA-7C90677D5BAF";
paths = (
{
closed = 1;
nodes = (
"177 687 LINE",
"149.5 495 LINE SMOOTH",
"106 184 OFFCURVE",
"104.5 114 OFFCURVE",
"46.5 58 CURVE",
"77 0 LINE",
"487 0.5 LINE",
"510.5 58 LINE",
"510.5 687 LINE"
);
},
{
closed = 1;
nodes = (
"440.5 58 LINE",
"117 58 LINE",
"176.5 113.5 OFFCURVE",
"182 192.5 OFFCURVE",
"218 483 CURVE SMOOTH",
"235 626.5 LINE",
"440.5 626.5 LINE"
);
}
);
vertWidth = 0;
width = 600;
},
{
anchors = (
{
name = _bottom;
position = "{1009, 0}";
},
{
name = bottom;
position = "{600, -440}";
},
{
name = top;
position = "{600, 1374}";
}
);
components = (
{
alignment = -1;
name = "descStraight-cy.case";
transform = "{0.5, 0, 0, 0.5, 185.5, 0}";
},
{
alignment = -1;
name = "descStraight-cy.case";
transform = "{-0.5, 0, 0, 0.5, 381.5, 0}";
}
);
layerId = "426AEE65-830A-4D9C-AD83-8E047A05F635";
paths = (
{
closed = 1;
nodes = (
"139 687 LINE",
"118.5 472 LINE SMOOTH",
"96 237 OFFCURVE",
"73.5 168.5 OFFCURVE",
"29.5 121.5 CURVE",
"115 0 LINE",
"451.5 -1 LINE",
"524.5 121.5 LINE",
"524.5 687 LINE"
);
},
{
closed = 1;
nodes = (
"374.5 121.5 LINE",
"158 121.5 LINE",
"222.5 174.5 OFFCURVE",
"249.5 255.5 OFFCURVE",
"269 488 CURVE SMOOTH",
"276 571.5 LINE",
"374.5 571.5 LINE"
);
}
);
vertWidth = 0;
width = 600;
}
);
note = "";
unicode = 0414;
},
{
glyphname = "Zhe-cy";
production = uni0416;
layers = (
{
anchors = (
{
name = bottom;
position = "{600, 0}";
},
{
name = bottomright;
position = "{1100, 0}";
},
{
name = top;
position = "{600, 1374}";
}
);
layerId = "5A91C8AF-16C0-4BC2-89AA-7C90677D5BAF";
paths = (
{
closed = 1;
nodes = (
"264.5 0 LINE",
"335.5 0 LINE",
"335.5 328.5 LINE",
"406 328.5 LINE",
"515.5 0 LINE",
"585 0 LINE",
"458 360.5 LINE",
"569.5 687 LINE",
"502.5 687 LINE",
"406.5 396 LINE",
"335.5 396 LINE",
"335.5 687 LINE",
"264.5 687 LINE",
"264.5 396 LINE",
"193.5 396 LINE",
"99 687 LINE",
"30.5 687 LINE",
"142 360.5 LINE",
"15 0 LINE",
"82.5 0 LINE",
"193.5 328.5 LINE",
"264.5 328.5 LINE"
);
}
);
vertWidth = 0;
width = 600;
},
{
anchors = (
{
name = bottom;
position = "{600, 0}";
},
{
name = bottomright;
position = "{1165, 0}";
},
{
name = top;
position = "{600, 1374}";
}
);
layerId = "426AEE65-830A-4D9C-AD83-8E047A05F635";
paths = (
{
closed = 1;
nodes = (
"250.5 0 LINE",
"349.5 0 LINE",
"349.5 317 LINE",
"377.5 317 LINE",
"456 0 LINE",
"597.5 0 LINE",
"490.5 375.5 LINE",
"587.5 687 LINE",
"453 687 LINE",
"376.5 398.5 LINE",
"349.5 398.5 LINE",
"349.5 687 LINE",
"250.5 687 LINE",
"250.5 398.5 LINE",
"223.5 398.5 LINE",
"147 687 LINE",
"12.5 687 LINE",
"109.5 375.5 LINE",
"2.5 0 LINE",
"142 0 LINE",
"220.5 317 LINE",
"250.5 317 LINE"
);
}
);
vertWidth = 0;
width = 600;
}
);
note = "";
unicode = 0416;
},
{
glyphname = "Ze-cy";
production = uni0417;
layers = (
{
anchors = (
{
name = bottom;
position = "{591, 0}";
},
{
name = top;
position = "{601, 1374}";
}
);
layerId = "5A91C8AF-16C0-4BC2-89AA-7C90677D5BAF";
paths = (
{
closed = 1;
nodes = (
"195 696.5 OFFCURVE",
"124 668.5 OFFCURVE",
"55.5 612.5 CURVE",
"95.5 570 LINE",
"149.5 612.5 OFFCURVE",
"202.5 640 OFFCURVE",
"283.5 640 CURVE SMOOTH",
"371 640 OFFCURVE",
"442.5 602 OFFCURVE",
"442.5 521.5 CURVE SMOOTH",
"442.5 435.5 OFFCURVE",
"363 400 OFFCURVE",
"283.5 400 CURVE SMOOTH",
"176 400 LINE",
"168.5 339.5 LINE",
"292.5 339.5 LINE SMOOTH",
"387 339.5 OFFCURVE",
"462 299.5 OFFCURVE",
"462 200.5 CURVE SMOOTH",
"462 107.5 OFFCURVE",
"397.5 49 OFFCURVE",
"281.5 49 CURVE SMOOTH",
"206 49 OFFCURVE",
"143 77 OFFCURVE",
"88 125 CURVE",
"43.5 88 LINE",
"103 25 OFFCURVE",
"187.5 -10 OFFCURVE",
"280 -10 CURVE SMOOTH",
"435.5 -10 OFFCURVE",
"534 85 OFFCURVE",
"534 206.5 CURVE SMOOTH",
"534 314.5 OFFCURVE",
"451 369.5 OFFCURVE",
"372.5 376 CURVE",
"443 384.5 OFFCURVE",
"510.5 434 OFFCURVE",
"510.5 519 CURVE SMOOTH",
"510.5 623.5 OFFCURVE",
"422.5 696.5 OFFCURVE",
"280 696.5 CURVE SMOOTH"
);
}
);
vertWidth = 0;
width = 600;
},
{
anchors = (
{
name = bottom;
position = "{574, 0}";
},
{
name = top;
position = "{578, 1374}";
}
);
layerId = "426AEE65-830A-4D9C-AD83-8E047A05F635";
paths = (
{
closed = 1;
nodes = (
"180 704.5 OFFCURVE",
"92 674.5 OFFCURVE",
"24.5 615.5 CURVE",
"104 532.5 LINE",
"147.5 567 OFFCURVE",
"203.5 586 OFFCURVE",
"266.5 586 CURVE SMOOTH",
"338.5 586 OFFCURVE",
"380.5 555.5 OFFCURVE",
"380.5 505.5 CURVE SMOOTH",
"380.5 449.5 OFFCURVE",
"334 422 OFFCURVE",
"265.5 422 CURVE SMOOTH",
"169 422 LINE",
"150.5 305.5 LINE",
"265.5 305.5 LINE SMOOTH",
"348.5 305.5 OFFCURVE",
"398.5 273 OFFCURVE",
"398.5 203.5 CURVE SMOOTH",
"398.5 141 OFFCURVE",
"348 103 OFFCURVE",
"267.5 103 CURVE SMOOTH",
"198.5 103 OFFCURVE",
"139.5 125 OFFCURVE",
"91 165 CURVE",
"7 81 LINE",
"67.5 18.5 OFFCURVE",
"157 -17 OFFCURVE",
"270 -17 CURVE SMOOTH",
"456 -17 OFFCURVE",
"562.5 68.5 OFFCURVE",
"562.5 196 CURVE SMOOTH",
"562.5 297.5 OFFCURVE",
"492 354.5 OFFCURVE",
"384 365.5 CURVE",
"484 385.5 OFFCURVE",
"541.5 437 OFFCURVE",
"541.5 521.5 CURVE SMOOTH",
"541.5 629.5 OFFCURVE",
"439.5 704.5 OFFCURVE",
"283 704.5 CURVE SMOOTH"
);
}
);
vertWidth = 0;
width = 600;
}
);
note = "";
unicode = 0417;
},
{
glyphname = "Ii-cy";
production = uni0418;
layers = (
{
anchors = (
{
name = bottom;
position = "{600, 0}";
},
{
name = bottomright;
position = "{1034, 0}";
},
{
name = top;
position = "{600, 1374}";
}
);
layerId = "5A91C8AF-16C0-4BC2-89AA-7C90677D5BAF";
paths = (
{
closed = 1;
nodes = (
"185 0 LINE",
"451.5 623.5 LINE",
"446.5 567.5 OFFCURVE",
"440 480 OFFCURVE",
"440 384 CURVE SMOOTH",
"440 0 LINE",
"507 0 LINE",
"507 687 LINE",
"416.5 687 LINE",
"149 57 LINE",
"157 131 OFFCURVE",
"160 190 OFFCURVE",
"160 305.5 CURVE SMOOTH",
"160 687 LINE",
"93 687 LINE",
"93 0 LINE"
);
}
);
vertWidth = 0;
width = 600;
},
{
anchors = (
{
name = bottom;
position = "{600, 0}";
},
{
name = bottomright;
position = "{1116, 0}";
},
{
name = top;
position = "{600, 1374}";
}
);
layerId = "426AEE65-830A-4D9C-AD83-8E047A05F635";
paths = (
{
closed = 1;
nodes = (
"236 0 LINE",
"424.5 542.5 LINE",
"410 457.5 OFFCURVE",
"398 359.5 OFFCURVE",
"398 226 CURVE SMOOTH",
"398 0 LINE",
"548 0 LINE",
"548 687 LINE",
"367 687 LINE",
"174.5 143 LINE",
"189.5 226.5 OFFCURVE",
"202 313.5 OFFCURVE",
"202 456 CURVE SMOOTH",
"202 687 LINE",
"52 687 LINE",
"52 0 LINE"
);
}
);
vertWidth = 0;
width = 600;
}
);
note = "";
unicode = 0418;
},
{
glyphname = "Ka-cy";
production = uni041A;
layers = (
{
anchors = (
{
name = bottom;
position = "{600, 0}";
},
{
name = bottomright;
position = "{1050, 0}";
},
{
name = top;
position = "{636, 1374}";
}
);
layerId = "5A91C8AF-16C0-4BC2-89AA-7C90677D5BAF";
paths = (
{
closed = 1;
nodes = (
"497 0 LINE",
"580 0 LINE",
"312.5 360.5 LINE",
"561 687 LINE",
"486.5 687 LINE",
"258.5 392 LINE",
"171 392 LINE",
"171 687 LINE",
"107 687 LINE",
"107 0 LINE",
"171 0 LINE",
"171 332.5 LINE",
"256 332.5 LINE"
);
}
);
vertWidth = 0;
width = 600;
},
{
anchors = (
{
name = bottom;
position = "{600, 0}";
},
{
name = bottomright;
position = "{1140, 0}";
},
{
name = top;
position = "{648, 1374}";
}
);
layerId = "426AEE65-830A-4D9C-AD83-8E047A05F635";
paths = (
{
closed = 1;
nodes = (
"429.5 0 LINE",
"608.5 0 LINE",
"413 375.5 LINE",
"589.5 687 LINE",
"430 687 LINE",
"276.5 417.5 LINE",
"216 417.5 LINE",
"216 687 LINE",
"52 687 LINE",
"52 0 LINE",
"216 0 LINE",
"216 298.5 LINE",
"278.5 298.5 LINE"
);
}
);
vertWidth = 0;
width = 600;
}
);
note = "";
unicode = 041A;
},
{
glyphname = "El-cy";
production = uni041B;
layers = (
{
anchors = (
{
name = bottom;
position = "{600, 0}";
},
{
name = bottomright;
position = "{1034, 0}";
},
{
name = top;
position = "{600, 1374}";
}
);
layerId = "5A91C8AF-16C0-4BC2-89AA-7C90677D5BAF";
paths = (
{
closed = 1;
nodes = (
"180 687 LINE",
"135.5 359.5 LINE SMOOTH",
"98.5 101.5 OFFCURVE",
"61 77.5 OFFCURVE",
"23 43 CURVE",
"53.5 -8.5 LINE",
"128.5 52 OFFCURVE",
"166 82 OFFCURVE",
"207 396 CURVE SMOOTH",
"235.5 627.5 LINE",
"443.5 627.5 LINE",
"443.5 0 LINE",
"507 0 LINE",
"507 687 LINE"
);
}
);
vertWidth = 0;
width = 600;
},
{
anchors = (
{
name = bottom;
position = "{600, 0}";
},
{
name = bottomright;
position = "{1116, 0}";
},
{
name = top;
position = "{600, 1374}";
}
);
layerId = "426AEE65-830A-4D9C-AD83-8E047A05F635";
paths = (
{
closed = 1;
nodes = (
"132 687 LINE",
"111.5 468.5 LINE SMOOTH",
"84.5 179 OFFCURVE",
"53.5 136.5 OFFCURVE",
"-12.5 88 CURVE",
"52 -20 LINE",
"190.5 45.5 OFFCURVE",
"233.5 123 OFFCURVE",
"265 456 CURVE SMOOTH",
"275 562 LINE",
"384 562 LINE",
"384 0 LINE",
"548 0 LINE",
"548 687 LINE"
);
}
);
vertWidth = 0;
width = 600;
}
);
note = "";
unicode = 041B;
},
{
glyphname = "Pe-cy";
production = uni041F;
layers = (
{
anchors = (
{
name = bottom;
position = "{600, 0}";
},
{
name = bottomright;
position = "{1034, 0}";
},
{
name = top;
position = "{600, 1374}";
}
);
layerId = "5A91C8AF-16C0-4BC2-89AA-7C90677D5BAF";
paths = (
{
closed = 1;
nodes = (
"507 0 LINE",
"507 687 LINE",
"93 687 LINE",
"93 0 LINE",
"156.5 0 LINE",
"156.5 626.5 LINE",
"443.5 626.5 LINE",
"443.5 0 LINE"
);
}
);
vertWidth = 0;
width = 600;
},
{
anchors = (
{
name = bottom;
position = "{600, 0}";
},
{
name = bottomright;
position = "{1116, 0}";
},
{
name = top;
position = "{600, 1374}";
}
);
layerId = "426AEE65-830A-4D9C-AD83-8E047A05F635";
paths = (
{
closed = 1;
nodes = (
"548 0 LINE",
"548 687 LINE",
"52 687 LINE",
"52 0 LINE",
"216 0 LINE",
"216 561 LINE",
"384 561 LINE",
"384 0 LINE"
);
}
);
vertWidth = 0;
width = 600;
}
);
note = "";
unicode = 041F;
},
{
glyphname = "U-cy";
production = uni0423;
layers = (
{
anchors = (
{
name = bottom;
position = "{600, 0}";
},
{
name = top;
position = "{620, 1374}";
}
);
guideLines = (
{
angle = 246.7784;
position = "{822, 923}";
}
);
layerId = "5A91C8AF-16C0-4BC2-89AA-7C90677D5BAF";
paths = (
{
closed = 1;
nodes = (
"507.5 687 LINE",
"314 236 LINE",
"102.5 687 LINE",
"36 687 LINE",
"266.5 191.5 LINE",
"295.5 191.5 LINE",
"254 94.5 OFFCURVE",
"219.5 63 OFFCURVE",
"115.5 47 CURVE",
"126 -10 LINE",
"258.5 9.5 OFFCURVE",
"309 68 OFFCURVE",
"351 163.5 CURVE SMOOTH",
"572 687 LINE"
);
}
);
vertWidth = 0;
width = 600;
},
{
anchors = (
{
name = bottom;
position = "{600, 0}";
},
{
name = top;
position = "{620, 1374}";
}
);
layerId = "426AEE65-830A-4D9C-AD83-8E047A05F635";
paths = (
{
closed = 1;
nodes = (
"441.5 687 LINE",
"311 275 LINE",
"164.5 687 LINE",
"-5 687 LINE",
"210 181.5 LINE",
"263 181.5 LINE",
"232 128 OFFCURVE",
"191 105 OFFCURVE",
"84.5 95 CURVE",
"106.5 -17 LINE",
"295 -2 OFFCURVE",
"363 57.5 OFFCURVE",
"431.5 234 CURVE SMOOTH",
"607.5 687 LINE"
);
}
);
vertWidth = 0;
width = 600;
}
);
note = "";
unicode = 0423;
},
{
glyphname = "Ef-cy";
production = uni0424;
layers = (
{
anchors = (
{
name = bottom;
position = "{600, 0}";
},
{
name = top;
position = "{600, 1374}";
}
);
layerId = "5A91C8AF-16C0-4BC2-89AA-7C90677D5BAF";
paths = (
{
closed = 1;
nodes = (
"261.5 714 LINE",
"261.5 660.5 LINE",
"94.5 648 OFFCURVE",
"15.5 543.5 OFFCURVE",
"15.5 345.5 CURVE SMOOTH",
"15.5 137.5 OFFCURVE",
"105.5 35 OFFCURVE",
"261.5 29.5 CURVE",
"261.5 -26 LINE",
"338.5 -26 LINE",
"338.5 29.5 LINE",
"493.5 36.5 OFFCURVE",
"584.5 138.5 OFFCURVE",
"584.5 345.5 CURVE SMOOTH",
"584.5 543.5 OFFCURVE",
"506 648 OFFCURVE",
"338.5 660.5 CURVE",
"338.5 714 LINE"
);
},
{
closed = 1;
nodes = (
"260 86 LINE",
"138.5 95 OFFCURVE",
"84 170.5 OFFCURVE",
"84 345.5 CURVE SMOOTH",
"84 533 OFFCURVE",
"142.5 601 OFFCURVE",
"260 603 CURVE"
);
},
{
closed = 1;
nodes = (
"457 601 OFFCURVE",
"516 533 OFFCURVE",
"516 345.5 CURVE SMOOTH",
"516 170.5 OFFCURVE",
"461.5 95 OFFCURVE",
"340 86 CURVE",
"340 603 LINE"
);
}
);
vertWidth = 0;
width = 600;
},
{
anchors = (
{
name = bottom;
position = "{600, 0}";
},
{
name = top;
position = "{600, 1374}";
}
);
layerId = "426AEE65-830A-4D9C-AD83-8E047A05F635";
paths = (
{
closed = 1;
nodes = (
"243.5 723.5 LINE",
"243.5 650.5 LINE",
"80.5 639.5 OFFCURVE",
"4 540.5 OFFCURVE",
"4 347 CURVE SMOOTH",
"4 154.5 OFFCURVE",
"81.5 47.5 OFFCURVE",
"243.5 38 CURVE",
"243.5 -38.5 LINE",
"356.5 -38.5 LINE",
"356.5 38 LINE",
"517.5 48 OFFCURVE",
"596 155.5 OFFCURVE",
"596 347 CURVE SMOOTH",
"596 540.5 OFFCURVE",
"518.5 639.5 OFFCURVE",
"356.5 650.5 CURVE",
"356.5 723.5 LINE"
);
},
{
closed = 1;
nodes = (
"253 127.5 LINE",
"178 135.5 OFFCURVE",
"157.5 200 OFFCURVE",
"157.5 347 CURVE SMOOTH",
"157.5 495.5 OFFCURVE",
"182 554.5 OFFCURVE",
"253 562 CURVE"
);
},
{
closed = 1;
nodes = (
"419 554.5 OFFCURVE",
"442.5 495.5 OFFCURVE",
"442.5 347 CURVE SMOOTH",
"442.5 200 OFFCURVE",
"422 135.5 OFFCURVE",
"347 127.5 CURVE",
"347 562 LINE"
);
}
);
vertWidth = 0;
width = 600;
}
);
note = "";
unicode = 0424;
},
{
glyphname = "Che-cy";
production = uni0427;
layers = (
{
anchors = (
{
name = bottom;
position = "{600, 0}";
},
{
name = bottomleft;
position = "{867, 0}";
},
{
name = bottomright;
position = "{1034, 0}";
},
{
name = top;
position = "{581, 1374}";
}
);
layerId = "5A91C8AF-16C0-4BC2-89AA-7C90677D5BAF";
paths = (
{
closed = 1;
nodes = (
"58.5 687 LINE",
"58.5 419.5 LINE SMOOTH",
"58.5 305.5 OFFCURVE",
"138.5 226 OFFCURVE",
"254.5 226 CURVE SMOOTH",
"340 226 OFFCURVE",
"388 249.5 OFFCURVE",
"465.5 309.5 CURVE",
"452.5 365.5 LINE",
"414.5 323.5 OFFCURVE",
"356 288.5 OFFCURVE",
"268.5 288.5 CURVE SMOOTH",
"177.5 288.5 OFFCURVE",
"122.5 333.5 OFFCURVE",
"122.5 427.5 CURVE SMOOTH",
"122.5 687 LINE"
);
},
{
closed = 1;
nodes = (
"443.5 687 LINE",
"443.5 0 LINE",
"507 0 LINE",
"507 687 LINE"
);
}
);
vertWidth = 0;
width = 600;
},
{
anchors = (
{
name = bottom;
position = "{600, 0}";
},
{
name = bottomleft;
position = "{748, 0}";
},
{
name = bottomright;
position = "{1116, 0}";
},
{
name = top;
position = "{572, 1374}";
}
);
layerId = "426AEE65-830A-4D9C-AD83-8E047A05F635";
paths = (
{
closed = 1;
nodes = (
"24.5 687 LINE",
"24.5 430 LINE SMOOTH",
"24.5 276 OFFCURVE",
"104.5 195.5 OFFCURVE",
"240.5 195.5 CURVE SMOOTH",
"304.5 195.5 OFFCURVE",
"356 216.5 OFFCURVE",
"396.5 250 CURVE",
"393 361 LINE",
"370.5 337.5 OFFCURVE",
"340.5 317 OFFCURVE",
"285.5 317 CURVE SMOOTH",
"217 317 OFFCURVE",
"188.5 349 OFFCURVE",
"188.5 435.5 CURVE SMOOTH",
"188.5 687 LINE"
);
},
{
closed = 1;
nodes = (
"384 687 LINE",
"384 0 LINE",
"548 0 LINE",
"548 687 LINE"
);
}
);
vertWidth = 0;
width = 600;
}
);
note = "";
unicode = 0427;
},
{
glyphname = "Sha-cy";
production = uni0428;
layers = (
{
anchors = (
{
name = bottom;
position = "{600, 0}";
},
{
name = bottomright;
position = "{1121, 0}";
},
{
name = top;
position = "{600, 1374}";
}
);
layerId = "5A91C8AF-16C0-4BC2-89AA-7C90677D5BAF";
paths = (
{
closed = 1;
nodes = (
"483 687 LINE",
"483 61 LINE",
"333.5 61 LINE",
"333.5 687 LINE",
"266.5 687 LINE",
"266.5 61 LINE",
"117 61 LINE",
"117 687 LINE",
"49.5 687 LINE",
"49.5 0 LINE",
"550.5 0 LINE",
"550.5 687 LINE"
);
}
);
vertWidth = 0;
width = 600;
},
{
anchors = (
{
name = bottom;
position = "{600, 0}";
},
{
name = bottomright;
position = "{1149, 0}";
},
{
name = top;
position = "{600, 1374}";
}
);
layerId = "426AEE65-830A-4D9C-AD83-8E047A05F635";
paths = (
{
closed = 1;
nodes = (
"435 687 LINE",
"435 112 LINE",
"357.5 112 LINE",
"357.5 687 LINE",
"242.5 687 LINE",
"242.5 112 LINE",
"165 112 LINE",
"165 687 LINE",
"35.5 687 LINE",
"35.5 0 LINE",
"564.5 0 LINE",
"564.5 687 LINE"
);
}
);
vertWidth = 0;
width = 600;
}
);
note = "";
unicode = 0428;
},
{
color = 3;
glyphname = "Dzhe-cy";
production = uni040F;
layers = (
{
anchors = (
{
name = bottom;
position = "{600, 0}";
},
{
name = bottomright;
position = "{1034, 0}";
}
);
components = (
{
name = "TseHelper-cy";
transform = "{0.5, 0, 0, 0.5, 0, 0}";
}
);
layerId = "5A91C8AF-16C0-4BC2-89AA-7C90677D5BAF";
paths = (
{
closed = 1;
nodes = (
"275 -139 LINE",
"325 -139 LINE",
"332 30.5 LINE",
"268 30.5 LINE"
);
}
);
vertWidth = 0;
width = 600;
},
{
anchors = (
{
name = bottom;
position = "{600, 0}";
},
{
name = bottomright;
position = "{1116, 0}";
}
);
components = (
{
name = "TseHelper-cy";
transform = "{0.5, 0, 0, 0.5, 0, 0}";
}
);
layerId = "426AEE65-830A-4D9C-AD83-8E047A05F635";
paths = (
{
closed = 1;
nodes = (
"240 -173.5 LINE",
"360 -173.5 LINE",
"384 77.5 LINE",
"216 77.5 LINE"
);
}
);
vertWidth = 0;
width = 600;
}
);
note = "";
unicode = 040F;
},
{
glyphname = "Softsign-cy";
production = uni042C;
layers = (
{
anchors = (
{
name = bottom;
position = "{600, 0}";
},
{
name = top;
position = "{600, 1374}";
}
);
layerId = "5A91C8AF-16C0-4BC2-89AA-7C90677D5BAF";
paths = (
{
closed = 1;
nodes = (
"106 687 LINE",
"106 0 LINE",
"282 0 LINE SMOOTH",
"433 0 OFFCURVE",
"544 57.5 OFFCURVE",
"544 217.5 CURVE SMOOTH",
"544 364.5 OFFCURVE",
"445 425.5 OFFCURVE",
"284 425.5 CURVE SMOOTH",
"169.5 425.5 LINE",
"169.5 687 LINE"
);
},
{
closed = 1;
nodes = (
"396.5 371 OFFCURVE",
"473.5 332 OFFCURVE",
"473.5 216.5 CURVE SMOOTH",
"473.5 83 OFFCURVE",
"395.5 56 OFFCURVE",
"298.5 56 CURVE SMOOTH",
"169.5 56 LINE",
"169.5 371 LINE",
"301 371 LINE SMOOTH"
);
}
);
vertWidth = 0;
width = 600;
},
{
anchors = (
{
name = bottom;
position = "{600, 0}";
},
{
name = top;
position = "{600, 1374}";
}
);
layerId = "426AEE65-830A-4D9C-AD83-8E047A05F635";
paths = (
{
closed = 1;
nodes = (
"55 687 LINE",
"55 0 LINE",
"297.5 0 LINE SMOOTH",
"465 0 OFFCURVE",
"576.5 75 OFFCURVE",
"576.5 233.5 CURVE SMOOTH",
"576.5 385.5 OFFCURVE",
"467.5 456 OFFCURVE",
"287 456 CURVE SMOOTH",
"219 456 LINE",
"219 687 LINE"
);
},
{
closed = 1;
nodes = (
"366.5 339 OFFCURVE",
"407.5 306.5 OFFCURVE",
"407.5 232.5 CURVE SMOOTH",
"407.5 153.5 OFFCURVE",
"364.5 119.5 OFFCURVE",
"287 119.5 CURVE SMOOTH",
"219 119.5 LINE",
"219 339 LINE",
"281.5 339 LINE SMOOTH"
);
}
);
vertWidth = 0;
width = 600;
}
);
note = "";
unicode = 042C;
},
{
glyphname = "Yeru-cy";
production = uni042B;
layers = (
{
anchors = (
{
name = bottom;
position = "{600, 0}";
},
{
name = top;
position = "{600, 1374}";
}
);
layerId = "5A91C8AF-16C0-4BC2-89AA-7C90677D5BAF";
paths = (
{
closed = 1;
nodes = (
"34 687 LINE",
"34 0 LINE",
"189 0 LINE SMOOTH",
"347 0 OFFCURVE",
"434 72 OFFCURVE",
"434 217 CURVE SMOOTH",
"434 348.5 OFFCURVE",
"357 424 OFFCURVE",
"187 424 CURVE SMOOTH",
"108.5 424 LINE",
"108.5 687 LINE"
);
},
{
closed = 1;
nodes = (
"301.5 371 OFFCURVE",
"356.5 318.5 OFFCURVE",
"356.5 216 CURVE SMOOTH",
"356.5 101.5 OFFCURVE",
"300.5 56.5 OFFCURVE",
"199.5 56.5 CURVE SMOOTH",
"108.5 56.5 LINE",
"108.5 371 LINE",
"195.5 371 LINE SMOOTH"
);
},
{
closed = 1;
nodes = (
"491.5 687 LINE",
"491.5 0 LINE",
"566 0 LINE",
"566 687 LINE"
);
}
);
vertWidth = 0;
width = 600;
},
{
anchors = (
{
name = bottom;
position = "{600, 0}";
},
{
name = top;
position = "{600, 1374}";
}
);
layerId = "426AEE65-830A-4D9C-AD83-8E047A05F635";
paths = (
{
closed = 1;
nodes = (
"21.5 687 LINE",
"21.5 0 LINE",
"166.5 0 LINE SMOOTH",
"318.5 0 OFFCURVE",
"418.5 71.5 OFFCURVE",
"418.5 234.5 CURVE SMOOTH",
"418.5 385 OFFCURVE",
"325 458.5 OFFCURVE",
"164.5 458.5 CURVE SMOOTH",
"155 458.5 LINE",
"155 687 LINE"
);
},
{
closed = 1;
nodes = (
"245 348 OFFCURVE",
"278.5 311 OFFCURVE",
"278.5 233.5 CURVE SMOOTH",
"278.5 140.5 OFFCURVE",
"238.5 113 OFFCURVE",
"168.5 113 CURVE SMOOTH",
"155 113 LINE",
"155 348 LINE",
"178.5 348 LINE SMOOTH"
);
},
{
closed = 1;
nodes = (
"445 687 LINE",
"445 0 LINE",
"578.5 0 LINE",
"578.5 687 LINE"
);
}
);
vertWidth = 0;
width = 600;
}
);
note = "";
unicode = 042B;
},
{
glyphname = "Hardsign-cy";
production = uni042A;
layers = (
{
layerId = "5A91C8AF-16C0-4BC2-89AA-7C90677D5BAF";
paths = (
{
closed = 1;
nodes = (
"1.5 687 LINE",
"1.5 624 LINE",
"130.5 624 LINE",
"130.5 0 LINE",
"317.5 0 LINE SMOOTH",
"470.5 0 OFFCURVE",
"580 57 OFFCURVE",
"580 217.5 CURVE SMOOTH",
"580 364.5 OFFCURVE",
"481 425.5 OFFCURVE",
"320 425.5 CURVE SMOOTH",
"198.5 425.5 LINE",
"198.5 687 LINE"
);
},
{
closed = 1;
nodes = (
"434 369.5 OFFCURVE",
"511.5 332 OFFCURVE",
"511.5 216.5 CURVE SMOOTH",
"511.5 86 OFFCURVE",
"438 57.5 OFFCURVE",
"345.5 57.5 CURVE SMOOTH",
"198.5 57.5 LINE",
"198.5 369.5 LINE",
"340 369.5 LINE SMOOTH"
);
}
);
vertWidth = 0;
width = 600;
},
{
layerId = "426AEE65-830A-4D9C-AD83-8E047A05F635";
paths = (
{
closed = 1;
nodes = (
"-3 687 LINE",
"-3 567.5 LINE",
"91 567.5 LINE",
"91 0 LINE",
"309 0 LINE SMOOTH",
"472 0 OFFCURVE",
"587 72 OFFCURVE",
"587 233.5 CURVE SMOOTH",
"587 385.5 OFFCURVE",
"478 456 OFFCURVE",
"297.5 456 CURVE SMOOTH",
"245 456 LINE",
"245 687 LINE"
);
},
{
closed = 1;
nodes = (
"379.5 342 OFFCURVE",
"420 306.5 OFFCURVE",
"420 232.5 CURVE SMOOTH",
"420 143.5 OFFCURVE",
"367 117 OFFCURVE",
"279.5 117 CURVE SMOOTH",
"245 117 LINE",
"245 342 LINE",
"292 342 LINE SMOOTH"
);
}
);
vertWidth = 0;
width = 600;
}
);
note = "";
unicode = 042A;
},
{
glyphname = "Lje-cy";
production = uni0409;
layers = (
{
anchors = (
{
name = bottom;
position = "{600, 0}";
},
{
name = top;
position = "{600, 1374}";
}
);
layerId = "5A91C8AF-16C0-4BC2-89AA-7C90677D5BAF";
paths = (
{
closed = 1;
nodes = (
"110.5 687 LINE",
"77.5 310.5 LINE SMOOTH",
"60.5 112 OFFCURVE",
"37.5 74.5 OFFCURVE",
"6.5 37.5 CURVE",
"47 -8.5 LINE",
"100.5 35 OFFCURVE",
"126.5 64 OFFCURVE",
"147.5 312.5 CURVE SMOOTH",
"173.5 625.5 LINE",
"278.5 625.5 LINE",
"278.5 0 LINE",
"362 0 LINE SMOOTH",
"509.5 0 OFFCURVE",
"600 59.5 OFFCURVE",
"600 217.5 CURVE SMOOTH",
"600 362 OFFCURVE",
"520 425.5 OFFCURVE",
"352.5 425.5 CURVE",
"352.5 687 LINE"
);
},
{
closed = 1;
nodes = (
"468 369 OFFCURVE",
"523 332 OFFCURVE",
"523 216.5 CURVE SMOOTH",
"523 83 OFFCURVE",
"464.5 59.5 OFFCURVE",
"367.5 59.5 CURVE SMOOTH",
"352.5 59.5 LINE",
"352.5 369 LINE",
"369.5 369 LINE SMOOTH"
);
}
);
vertWidth = 0;
width = 600;
},
{
anchors = (
{
name = bottom;
position = "{600, 0}";
},
{
name = top;
position = "{600, 1374}";
}
);
layerId = "426AEE65-830A-4D9C-AD83-8E047A05F635";
paths = (
{
closed = 1;
nodes = (
"61 687 LINE",
"41 321.5 LINE SMOOTH",
"30.5 132.5 OFFCURVE",
"13.5 98 OFFCURVE",
"-14.5 74 CURVE",
"44 -20 LINE",
"122 32 OFFCURVE",
"157.5 70.5 OFFCURVE",
"168.5 301 CURVE SMOOTH",
"182 583.5 LINE",
"239 583.5 LINE",
"239 0 LINE",
"365 0 LINE SMOOTH",
"508 0 OFFCURVE",
"600 73 OFFCURVE",
"600 233.5 CURVE SMOOTH",
"600 384.5 OFFCURVE",
"514 456 OFFCURVE",
"364 456 CURVE",
"364 687 LINE"
);
},
{
closed = 1;
nodes = (
"439.5 353 OFFCURVE",
"465 309 OFFCURVE",
"465 232.5 CURVE SMOOTH",
"465 153 OFFCURVE",
"440.5 105.5 OFFCURVE",
"379 105.5 CURVE SMOOTH",
"364 105.5 LINE",
"364 353 LINE",
"374 353 LINE SMOOTH"
);
}
);
vertWidth = 0;
width = 600;
}
);
note = "";
unicode = 0409;
},
{
glyphname = "Nje-cy";
production = uni040A;
layers = (
{
anchors = (
{
name = bottom;
position = "{600, 0}";
},
{
name = top;
position = "{600, 1374}";
}
);
layerId = "5A91C8AF-16C0-4BC2-89AA-7C90677D5BAF";
paths = (
{
closed = 1;
nodes = (
"277.5 687 LINE",
"277.5 407.5 LINE",
"117.5 407.5 LINE",
"117.5 687 LINE",
"45.5 687 LINE",
"45.5 0 LINE",
"117.5 0 LINE",
"117.5 357 LINE",
"277.5 357 LINE",
"277.5 0 LINE",
"364.5 0 LINE SMOOTH",
"504 0 OFFCURVE",
"600 50 OFFCURVE",
"600 208.5 CURVE SMOOTH",
"600 347.5 OFFCURVE",
"521 408.5 OFFCURVE",
"350 407.5 CURVE",
"350 687 LINE"
);
},
{
closed = 1;
nodes = (
"468 356 OFFCURVE",
"522 319.5 OFFCURVE",
"522 207.5 CURVE SMOOTH",
"522 75.5 OFFCURVE",
"463 54 OFFCURVE",
"369 55 CURVE SMOOTH",
"350 55 LINE",
"350 355.5 LINE",
"369 355.5 LINE SMOOTH"
);
}
);
vertWidth = 0;
width = 600;
},
{
anchors = (
{
name = bottom;
position = "{600, 0}";
},
{
name = top;
position = "{600, 1374}";
}
);
layerId = "426AEE65-830A-4D9C-AD83-8E047A05F635";
paths = (
{
closed = 1;
nodes = (
"241 687 LINE",
"241 431 LINE",
"157 431 LINE",
"157 687 LINE",
"28.5 687 LINE",
"28.5 0 LINE",
"157 0 LINE",
"157 318 LINE",
"241 318 LINE",
"241 0 LINE",
"360 0 LINE SMOOTH",
"519.5 0 OFFCURVE",
"600 75.5 OFFCURVE",
"600 225 CURVE SMOOTH",
"600 365.5 OFFCURVE",
"511 429 OFFCURVE",
"369.5 431 CURVE",
"369.5 687 LINE"
);
},
{
closed = 1;
nodes = (
"439.5 321 OFFCURVE",
"468 296 OFFCURVE",
"468 224 CURVE SMOOTH",
"468 146.5 OFFCURVE",
"443.5 113 OFFCURVE",
"375 113 CURVE SMOOTH",
"369.5 113 LINE",
"369.5 321 LINE",
"375 321 LINE SMOOTH"
);
}
);
vertWidth = 0;
width = 600;
}
);
note = "";
unicode = 040A;
},
{
glyphname = "E-cy";
production = uni0404;
layers = (
{
anchors = (
{
name = bottom;
position = "{600, 0}";
},
{
name = top;
position = "{600, 1374}";
}
);
layerId = "5A91C8AF-16C0-4BC2-89AA-7C90677D5BAF";
paths = (
{
closed = 1;
nodes = (
"199.5 696.5 OFFCURVE",
"64.5 575.5 OFFCURVE",
"64.5 343.5 CURVE SMOOTH",
"64.5 114.5 OFFCURVE",
"187.5 -10 OFFCURVE",
"354 -10 CURVE SMOOTH",
"449.5 -10 OFFCURVE",
"514.5 25.5 OFFCURVE",
"554 61.5 CURVE",
"515.5 108.5 LINE",
"484.5 78 OFFCURVE",
"434.5 47.5 OFFCURVE",
"355 47.5 CURVE SMOOTH",
"235.5 47.5 OFFCURVE",
"139.5 127 OFFCURVE",
"131.5 325.5 CURVE",
"452.5 325.5 LINE",
"452.5 382 LINE",
"134.5 382 LINE",
"148.5 574.5 OFFCURVE",
"244.5 640 OFFCURVE",
"354.5 640 CURVE SMOOTH",
"407.5 640 OFFCURVE",
"460.5 625.5 OFFCURVE",
"509 590 CURVE",
"543.5 632.5 LINE",
"492 674 OFFCURVE",
"436.5 696.5 OFFCURVE",
"351 696.5 CURVE SMOOTH"
);
}
);
vertWidth = 0;
width = 600;
},
{
anchors = (
{
name = bottom;
position = "{600, 0}";
},
{
name = top;
position = "{600, 1374}";
}
);
layerId = "426AEE65-830A-4D9C-AD83-8E047A05F635";
paths = (
{
closed = 1;
nodes = (
"172.5 704.5 OFFCURVE",
"33.5 575 OFFCURVE",
"33.5 345 CURVE SMOOTH",
"33.5 109 OFFCURVE",
"163.5 -17 OFFCURVE",
"354 -17 CURVE SMOOTH",
"463.5 -17 OFFCURVE",
"539 24 OFFCURVE",
"589.5 72.5 CURVE",
"517 160.5 LINE",
"476.5 132 OFFCURVE",
"433 107 OFFCURVE",
"365 107 CURVE SMOOTH",
"275 107 OFFCURVE",
"208.5 164 OFFCURVE",
"200.5 288.5 CURVE",
"457 288.5 LINE",
"457 414.5 LINE",
"200.5 414.5 LINE",
"210.5 532.5 OFFCURVE",
"281 586 OFFCURVE",
"368.5 586 CURVE SMOOTH",
"421 586 OFFCURVE",
"461.5 567.5 OFFCURVE",
"503 539.5 CURVE",
"580 628.5 LINE",
"521 675 OFFCURVE",
"457.5 704.5 OFFCURVE",
"358 704.5 CURVE SMOOTH"
);
}
);
vertWidth = 0;
width = 600;
}
);
note = "";
unicode = 0404;
},
{
glyphname = "Ereversed-cy";
production = uni042D;
layers = (
{
anchors = (
{
name = bottom;
position = "{600, 0}";
},
{
name = top;
position = "{585, 1378}";
}
);
layerId = "5A91C8AF-16C0-4BC2-89AA-7C90677D5BAF";
paths = (
{
closed = 1;
nodes = (
"175.5 696.5 OFFCURVE",
"106.5 655.5 OFFCURVE",
"58.5 612.5 CURVE",
"98 571.5 LINE",
"141 607 OFFCURVE",
"189.5 640 OFFCURVE",
"270.5 640 CURVE SMOOTH",
"386 640 OFFCURVE",
"455 570.5 OFFCURVE",
"465.5 384 CURVE",
"148.5 384 LINE",
"148.5 323.5 LINE",
"465.5 323.5 LINE",
"456 135.5 OFFCURVE",
"389.5 47.5 OFFCURVE",
"259.5 47.5 CURVE SMOOTH",
"195.5 47.5 OFFCURVE",
"143.5 70.5 OFFCURVE",
"96 116.5 CURVE",
"50.5 78 LINE",
"100.5 26.5 OFFCURVE",
"176.5 -10 OFFCURVE",
"266.5 -10 CURVE SMOOTH",
"430.5 -10 OFFCURVE",
"532 115.5 OFFCURVE",
"532 354 CURVE SMOOTH",
"532 585.5 OFFCURVE",
"430.5 696.5 OFFCURVE",
"271.5 696.5 CURVE SMOOTH"
);
}
);
vertWidth = 0;
width = 600;
},
{
anchors = (
{
name = bottom;
position = "{600, 0}";
},
{
name = top;
position = "{557, 1366}";
}
);
layerId = "426AEE65-830A-4D9C-AD83-8E047A05F635";
paths = (
{
closed = 1;
nodes = (
"158.5 704.5 OFFCURVE",
"85.5 671 OFFCURVE",
"22 619 CURVE",
"98 532.5 LINE",
"135 559.5 OFFCURVE",
"181 586 OFFCURVE",
"246.5 586 CURVE SMOOTH",
"335 586 OFFCURVE",
"387.5 538.5 OFFCURVE",
"393.5 409.5 CURVE",
"137 409.5 LINE",
"137 293.5 LINE",
"393.5 293.5 LINE",
"388.5 158.5 OFFCURVE",
"330 107 OFFCURVE",
"241.5 107 CURVE SMOOTH",
"178 107 OFFCURVE",
"134.5 127 OFFCURVE",
"90 159 CURVE",
"14 70.5 LINE",
"70.5 15 OFFCURVE",
"149 -17 OFFCURVE",
"242.5 -17 CURVE SMOOTH",
"432 -17 OFFCURVE",
"560.5 103 OFFCURVE",
"560.5 348 CURVE SMOOTH",
"560.5 582 OFFCURVE",
"448.5 704.5 OFFCURVE",
"260 704.5 CURVE SMOOTH"
);
}
);
vertWidth = 0;
width = 600;
}
);
note = "";
unicode = 042D;
},
{
glyphname = "Tshe-cy";
production = uni040B;
layers = (
{
layerId = "5A91C8AF-16C0-4BC2-89AA-7C90677D5BAF";
paths = (
{
closed = 1;
nodes = (
"-3.5 687 LINE",
"-3.5 628.5 LINE",
"164.5 628.5 LINE",
"164.5 0 LINE",
"231.5 0 LINE",
"231.5 321.5 LINE",
"259.5 346.5 OFFCURVE",
"301 381 OFFCURVE",
"371.5 381 CURVE SMOOTH",
"461.5 381 OFFCURVE",
"494.5 337.5 OFFCURVE",
"494.5 232.5 CURVE SMOOTH",
"494.5 0 LINE",
"562 0 LINE",
"562 245 LINE SMOOTH",
"562 373.5 OFFCURVE",
"505.5 443.5 OFFCURVE",
"384.5 443.5 CURVE SMOOTH",
"317.5 443.5 OFFCURVE",
"269.5 416.5 OFFCURVE",
"231.5 379.5 CURVE",
"231.5 628.5 LINE",
"398 628.5 LINE",
"405 687 LINE"
);
}
);
vertWidth = 0;
width = 600;
},
{
layerId = "426AEE65-830A-4D9C-AD83-8E047A05F635";
paths = (
{
closed = 1;
nodes = (
"-8 687 LINE",
"-8 570.5 LINE",
"130.5 570.5 LINE",
"130.5 0 LINE",
"284 0 LINE",
"284 317 LINE",
"302.5 334.5 OFFCURVE",
"326.5 349 OFFCURVE",
"360 349 CURVE SMOOTH",
"409 349 OFFCURVE",
"428.5 326 OFFCURVE",
"428.5 264.5 CURVE SMOOTH",
"428.5 0 LINE",
"581.5 0 LINE",
"581.5 250 LINE SMOOTH",
"581.5 394.5 OFFCURVE",
"519.5 467 OFFCURVE",
"402.5 467 CURVE SMOOTH",
"354 467 OFFCURVE",
"316.5 450 OFFCURVE",
"284 423 CURVE",
"284 570.5 LINE",
"423.5 570.5 LINE",
"440.5 687 LINE"
);
}
);
vertWidth = 0;
width = 600;
}
);
note = "";
unicode = 040B;
},
{
glyphname = "Iu-cy";
production = uni042E;
layers = (
{
anchors = (
{
name = bottom;
position = "{600, 0}";
},
{
name = top;
position = "{600, 1374}";
}
);
layerId = "5A91C8AF-16C0-4BC2-89AA-7C90677D5BAF";
paths = (
{
closed = 1;
nodes = (
"256 696.5 OFFCURVE",
"205 587 OFFCURVE",
"197 386.5 CURVE",
"122.5 386.5 LINE",
"122.5 687 LINE",
"51 687 LINE",
"51 0 LINE",
"122.5 0 LINE",
"122.5 326.5 LINE",
"196 326.5 LINE",
"198.5 130 OFFCURVE",
"242 -10 OFFCURVE",
"387 -10 CURVE SMOOTH",
"520.5 -10 OFFCURVE",
"576.5 117 OFFCURVE",
"576.5 342.5 CURVE SMOOTH",
"576.5 574 OFFCURVE",
"529.5 696.5 OFFCURVE",
"387 696.5 CURVE SMOOTH"
);
},
{
closed = 1;
nodes = (
"463 636.5 OFFCURVE",
"501.5 558 OFFCURVE",
"501.5 342.5 CURVE SMOOTH",
"501.5 126.5 OFFCURVE",
"463.5 50 OFFCURVE",
"387 50 CURVE SMOOTH",
"305 50 OFFCURVE",
"272 127.5 OFFCURVE",
"272 343.5 CURVE SMOOTH",
"272 559 OFFCURVE",
"304 636.5 OFFCURVE",
"387 636.5 CURVE SMOOTH"
);
}
);
vertWidth = 0;
width = 600;
},
{
anchors = (
{
name = bottom;
position = "{600, 0}";
},
{
name = top;
position = "{600, 1374}";
}
);
layerId = "426AEE65-830A-4D9C-AD83-8E047A05F635";
paths = (
{
closed = 1;
nodes = (
"263 704.5 OFFCURVE",
"211 597.5 OFFCURVE",
"203 410.5 CURVE",
"156.5 410.5 LINE",
"156.5 687 LINE",
"31.5 687 LINE",
"31.5 0 LINE",
"156.5 0 LINE",
"156.5 299.5 LINE",
"202 299.5 LINE",
"207 93 OFFCURVE",
"254.5 -17 OFFCURVE",
"394 -17 CURVE SMOOTH",
"538.5 -17 OFFCURVE",
"588 106 OFFCURVE",
"588 344 CURVE SMOOTH",
"588 584.5 OFFCURVE",
"541 704.5 OFFCURVE",
"394 704.5 CURVE SMOOTH"
);
},
{
closed = 1;
nodes = (
"440.5 597 OFFCURVE",
"452 547 OFFCURVE",
"452 344 CURVE SMOOTH",
"452 143 OFFCURVE",
"439.5 91 OFFCURVE",
"394 91 CURVE SMOOTH",
"347 91 OFFCURVE",
"335.5 144 OFFCURVE",
"335.5 345 CURVE SMOOTH",
"335.5 547 OFFCURVE",
"349 597 OFFCURVE",
"394 597 CURVE SMOOTH"
);
}
);
vertWidth = 0;
width = 600;
}
);
note = "";
unicode = 042E;
},
{
glyphname = "Ia-cy";
production = uni042F;
layers = (
{
anchors = (
{
name = bottom;
position = "{600, 0}";
},
{
name = top;
position = "{600, 1374}";
}
);
layerId = "5A91C8AF-16C0-4BC2-89AA-7C90677D5BAF";
paths = (
{
closed = 1;
nodes = (
"339.5 687 LINE SMOOTH",
"175 687 OFFCURVE",
"86.5 611.5 OFFCURVE",
"86.5 487.5 CURVE SMOOTH",
"86.5 408 OFFCURVE",
"126 337.5 OFFCURVE",
"207.5 301 CURVE",
"43 0 LINE",
"116.5 0 LINE",
"269.5 284.5 LINE",
"443.5 284.5 LINE",
"443.5 0 LINE",
"507 0 LINE",
"507 687 LINE"
);
},
{
closed = 1;
nodes = (
"443.5 343 LINE",
"300.5 343 LINE SMOOTH",
"206 343 OFFCURVE",
"156.5 391.5 OFFCURVE",
"156.5 489 CURVE SMOOTH",
"156.5 589 OFFCURVE",
"211 632 OFFCURVE",
"325.5 632 CURVE SMOOTH",
"443.5 632 LINE"
);
}
);
vertWidth = 0;
width = 600;
},
{
anchors = (
{
name = bottom;
position = "{600, 0}";
},
{
name = top;
position = "{600, 1374}";
}
);
layerId = "426AEE65-830A-4D9C-AD83-8E047A05F635";
paths = (
{
closed = 1;
nodes = (
"321.5 687 LINE SMOOTH",
"134 687 OFFCURVE",
"37 614.5 OFFCURVE",
"37 469 CURVE SMOOTH",
"37 372 OFFCURVE",
"78 313.5 OFFCURVE",
"155 279 CURVE",
"2 0 LINE",
"178.5 0 LINE",
"299.5 248 LINE",
"384 248 LINE",
"384 0 LINE",
"548 0 LINE",
"548 687 LINE"
);
},
{
closed = 1;
nodes = (
"384 359.5 LINE",
"327.5 359.5 LINE SMOOTH",
"251 359.5 OFFCURVE",
"206 386.5 OFFCURVE",
"206 465 CURVE SMOOTH",
"206 535.5 OFFCURVE",
"246.5 572 OFFCURVE",
"324 572 CURVE SMOOTH",
"384 572 LINE"
);
}
);
vertWidth = 0;
width = 600;
}
);
note = "";
unicode = 042F;
},
